<?xml version="1.0" encoding="UTF-8"?>
<!DOCTYPE svg PUBLIC "-//W3C//DTD SVG 1.1//EN" "http://www.w3.org/Graphics/SVG/1.1/DTD/svg11.dtd">
<svg xmlns="http://www.w3.org/2000/svg" version="1.1" width="1147px" height="300px" style="shape-rendering:geometricPrecision; text-rendering:geometricPrecision; image-rendering:optimizeQuality; fill-rule:evenodd; clip-rule:evenodd" xmlns:xlink="http://www.w3.org/1999/xlink">
<g><path style="opacity:0.2" fill="#220705" d="M 117.5,11.5 C 115.401,12.6118 113.067,13.2785 110.5,13.5C 112.438,11.8372 114.772,11.1706 117.5,11.5 Z"/></g>
<g><path style="opacity:1" fill="#b12323" d="M 117.5,11.5 C 120.187,11.3359 122.854,11.5026 125.5,12C 131.819,14.8121 138.486,16.4788 145.5,17C 146.942,17.3768 147.942,18.2101 148.5,19.5C 152.247,27.2755 149.913,31.9421 141.5,33.5C 140.702,33.9569 140.369,34.6236 140.5,35.5C 139.092,34.9386 137.592,34.6052 136,34.5C 128.881,35.149 122.047,36.4824 115.5,38.5C 113.094,36.7653 110.76,34.7653 108.5,32.5C 107.526,30.2573 107.192,27.924 107.5,25.5C 108.627,24.8783 109.627,24.045 110.5,23C 109.196,22.196 108.529,21.0293 108.5,19.5C 109.178,17.484 109.844,15.484 110.5,13.5C 113.067,13.2785 115.401,12.6118 117.5,11.5 Z"/></g>
<g><path style="opacity:0.047" fill="#0e0202" d="M 110.5,13.5 C 109.844,15.484 109.178,17.484 108.5,19.5C 108.529,21.0293 109.196,22.196 110.5,23C 109.627,24.045 108.627,24.8783 107.5,25.5C 107.729,22.6634 107.896,19.6634 108,16.5C 108.377,15.0577 109.21,14.0577 110.5,13.5 Z"/></g>
<g><path style="opacity:0.024" fill="#200805" d="M 148.5,19.5 C 150.776,19.7565 151.943,21.0898 152,23.5C 152.859,29.975 150.026,33.475 143.5,34C 142.663,35.0113 142.33,36.1779 142.5,37.5C 141.833,36.8333 141.167,36.1667 140.5,35.5C 140.369,34.6236 140.702,33.9569 141.5,33.5C 149.913,31.9421 152.247,27.2755 148.5,19.5 Z"/></g>
<g><path style="opacity:0.361" fill="#1a3c1c" d="M 203.5,34.5 C 207.981,33.3516 212.648,33.1849 217.5,34C 218.056,34.3826 218.389,34.8826 218.5,35.5C 213.562,34.6076 208.562,34.2743 203.5,34.5 Z"/></g>
<g><path style="opacity:0.067" fill="#170503" d="M 107.5,25.5 C 107.192,27.924 107.526,30.2573 108.5,32.5C 110.76,34.7653 113.094,36.7653 115.5,38.5C 114.833,38.8333 114.167,39.1667 113.5,39.5C 111.534,37.4074 109.368,35.4074 107,33.5C 106.199,30.633 106.366,27.9664 107.5,25.5 Z"/></g>
<g><path style="opacity:0.878" fill="#278531" d="M 198.5,35.5 C 196.485,36.9238 194.152,37.5905 191.5,37.5C 193.438,35.8372 195.772,35.1706 198.5,35.5 Z"/></g>
<g><path style="opacity:0.553" fill="#205f25" d="M 190.5,37.5 C 189.514,39.4077 187.848,40.4077 185.5,40.5C 186.659,38.7497 188.326,37.7497 190.5,37.5 Z"/></g>
<g><path style="opacity:0.008" fill="#22110a" d="M 142.5,37.5 C 144.457,39.4914 146.457,41.4914 148.5,43.5C 145.065,42.8084 143.065,40.8084 142.5,37.5 Z"/></g>
<g><path style="opacity:0.09" fill="#130704" d="M 113.5,39.5 C 113.346,41.9699 112.346,43.9699 110.5,45.5C 110.654,43.0301 111.654,41.0301 113.5,39.5 Z"/></g>
<g><path style="opacity:0.925" fill="#28832e" d="M 185.5,40.5 C 184.699,42.9995 183.366,44.9995 181.5,46.5C 181.87,43.733 183.204,41.733 185.5,40.5 Z"/></g>
<g><path style="opacity:0.008" fill="#301713" d="M 148.5,43.5 C 152.609,44.8744 155.943,47.2078 158.5,50.5C 156.089,48.7809 153.423,47.4476 150.5,46.5C 149.807,45.4822 149.141,44.4822 148.5,43.5 Z"/></g>
<g><path style="opacity:0.047" fill="#1f0f0b" d="M 110.5,45.5 C 109.872,48.09 108.705,50.4234 107,52.5C 106.184,53.8228 105.017,54.4894 103.5,54.5C 105.583,51.3492 107.916,48.3492 110.5,45.5 Z"/></g>
<g><path style="opacity:1" fill="#8c1569" d="M 168.5,73.5 C 168.5,73.8333 168.5,74.1667 168.5,74.5C 168.5,74.8333 168.5,75.1667 168.5,75.5C 166.838,78.1202 165.172,80.7868 163.5,83.5C 160.988,85.465 159.655,88.1317 159.5,91.5C 156.334,94.7752 154.668,98.7752 154.5,103.5C 145.874,102.589 137.208,102.255 128.5,102.5C 128.784,100.585 128.451,98.9187 127.5,97.5C 123.805,93.4741 120.138,89.4741 116.5,85.5C 113.191,81.1853 109.857,76.852 106.5,72.5C 111.716,67.334 116.883,62.0007 122,56.5C 123.407,51.9281 125.74,47.9281 129,44.5C 132.573,50.0696 137.407,54.2363 143.5,57C 150.678,64.3613 159.011,69.8613 168.5,73.5 Z"/></g>
<g><path style="opacity:0.043" fill="#24120e" d="M 158.5,50.5 C 161.362,51.2471 163.362,52.9138 164.5,55.5C 162.122,54.3076 160.122,52.641 158.5,50.5 Z"/></g>
<g><path style="opacity:0.498" fill="#174019" d="M 180.5,47.5 C 180.741,49.8984 180.074,51.8984 178.5,53.5C 178.595,51.2143 179.262,49.2143 180.5,47.5 Z"/></g>
<g><path style="opacity:1" fill="#4d8d13" d="M 211.5,132.5 C 218.261,131.332 220.761,127.332 219,120.5C 218.184,119.177 217.017,118.511 215.5,118.5C 212.449,117.168 209.449,117.501 206.5,119.5C 203.482,119.665 200.482,119.498 197.5,119C 195.559,117.097 193.226,116.264 190.5,116.5C 188.967,114.755 186.967,113.755 184.5,113.5C 181.734,112.289 179.068,110.956 176.5,109.5C 174.064,108.129 171.397,107.129 168.5,106.5C 169.275,102.01 170.775,97.6766 173,93.5C 176.306,88.0293 179.806,82.696 183.5,77.5C 183.253,76.2867 182.586,75.62 181.5,75.5C 181.5,75.1667 181.5,74.8333 181.5,74.5C 184.893,72.927 186.226,70.2604 185.5,66.5C 186.473,67.7914 187.473,67.7914 188.5,66.5C 191.334,61.6749 193.334,56.5082 194.5,51C 200.662,48.7364 206.996,48.0697 213.5,49C 217.184,57.2466 221.518,65.08 226.5,72.5C 227.314,74.7662 227.814,77.0995 228,79.5C 229.202,104.278 228.202,128.945 225,153.5C 224.333,154.833 223.667,154.833 223,153.5C 220.22,145.896 216.386,138.896 211.5,132.5 Z"/></g>
<g><path style="opacity:1" fill="#db5a40" d="M 140.5,35.5 C 141.167,36.1667 141.833,36.8333 142.5,37.5C 143.065,40.8084 145.065,42.8084 148.5,43.5C 149.141,44.4822 149.807,45.4822 150.5,46.5C 153.423,47.4476 156.089,48.7809 158.5,50.5C 160.122,52.641 162.122,54.3076 164.5,55.5C 165.911,57.539 167.911,58.539 170.5,58.5C 171.206,60.8764 172.873,62.2097 175.5,62.5C 177.167,62.5 178.833,62.5 180.5,62.5C 182.749,63.0798 184.415,64.4131 185.5,66.5C 186.226,70.2604 184.893,72.927 181.5,74.5C 177.143,74.4135 172.81,74.0802 168.5,73.5C 159.011,69.8613 150.678,64.3613 143.5,57C 137.407,54.2363 132.573,50.0696 129,44.5C 125.74,47.9281 123.407,51.9281 122,56.5C 116.883,62.0007 111.716,67.334 106.5,72.5C 102.64,73.6441 98.6404,74.3107 94.5,74.5C 89.7008,72.2526 88.3675,68.5859 90.5,63.5C 91.7095,63.0679 92.7095,62.4013 93.5,61.5C 98.2181,61.1412 101.551,58.8079 103.5,54.5C 105.017,54.4894 106.184,53.8228 107,52.5C 108.705,50.4234 109.872,48.09 110.5,45.5C 112.346,43.9699 113.346,41.9699 113.5,39.5C 114.167,39.1667 114.833,38.8333 115.5,38.5C 122.047,36.4824 128.881,35.149 136,34.5C 137.592,34.6052 139.092,34.9386 140.5,35.5 Z"/></g>
<g><path style="opacity:0.129" fill="#27130f" d="M 164.5,55.5 C 166.819,55.9925 168.819,56.9925 170.5,58.5C 167.911,58.539 165.911,57.539 164.5,55.5 Z"/></g>
<g><path style="opacity:0.882" fill="#858a2e" d="M 72.5,59.5 C 65.1591,59.3337 57.8258,59.5003 50.5,60C 48.9221,61.0945 47.2554,61.9278 45.5,62.5C 45.8333,61.8333 46.1667,61.1667 46.5,60.5C 50.5344,58.0358 55.0344,57.0358 60,57.5C 64.4422,57.3259 68.6089,57.9926 72.5,59.5 Z"/></g>
<g><path style="opacity:0.569" fill="#4d521a" d="M 74.5,59.5 C 77.4951,59.2938 80.1617,59.9605 82.5,61.5C 79.5049,61.7062 76.8383,61.0395 74.5,59.5 Z"/></g>
<g><path style="opacity:0.922" fill="#652b20" d="M 103.5,54.5 C 101.551,58.8079 98.2181,61.1412 93.5,61.5C 96.9495,59.3118 100.283,56.9785 103.5,54.5 Z"/></g>
<g><path style="opacity:0.999" fill="#60a040" d="M 178.5,54.5 C 178.643,56.2624 178.309,57.9291 177.5,59.5C 178.993,60.1411 179.993,61.1411 180.5,62.5C 178.833,62.5 177.167,62.5 175.5,62.5C 175.5,61.5 175.5,60.5 175.5,59.5C 176.313,57.7392 177.313,56.0725 178.5,54.5 Z"/></g>
<g><path style="opacity:0.933" fill="#733d23" d="M 170.5,58.5 C 172.117,59.038 173.784,59.3713 175.5,59.5C 175.5,60.5 175.5,61.5 175.5,62.5C 172.873,62.2097 171.206,60.8764 170.5,58.5 Z"/></g>
<g><path style="opacity:0.424" fill="#393515" d="M 85.5,61.5 C 88.2716,62.3715 90.9382,62.3715 93.5,61.5C 92.7095,62.4013 91.7095,63.0679 90.5,63.5C 88.597,63.2041 86.9303,62.5375 85.5,61.5 Z"/></g>
<g><path style="opacity:0.086" fill="#0d1a0b" d="M 218.5,35.5 C 222.684,35.8444 225.851,37.8444 228,41.5C 231.901,50.9714 236.568,59.9714 242,68.5C 242.49,69.7932 242.657,71.1266 242.5,72.5C 241.687,70.7392 240.687,69.0725 239.5,67.5C 234.996,61.1592 231.496,54.1592 229,46.5C 226.916,43.9975 225.083,41.3308 223.5,38.5C 221.855,37.3037 220.189,36.3037 218.5,35.5 Z"/></g>
<g><path style="opacity:0.259" fill="#292b10" d="M 46.5,60.5 C 46.1667,61.1667 45.8333,61.8333 45.5,62.5C 42.8682,64.1134 40.2016,65.78 37.5,67.5C 35.4956,71.1664 32.8289,74.1664 29.5,76.5C 32.7729,68.6846 38.4395,63.3512 46.5,60.5 Z"/></g>
<g><path style="opacity:1" fill="#40dd4d" d="M 203.5,34.5 C 208.562,34.2743 213.562,34.6076 218.5,35.5C 220.189,36.3037 221.855,37.3037 223.5,38.5C 225.083,41.3308 226.916,43.9975 229,46.5C 231.496,54.1592 234.996,61.1592 239.5,67.5C 241.359,90.4406 242.026,113.441 241.5,136.5C 240.631,138.717 240.298,141.05 240.5,143.5C 239.286,150.307 238.453,157.307 238,164.5C 237.34,166.324 236.173,167.657 234.5,168.5C 233.833,168.5 233.5,168.167 233.5,167.5C 233.389,166.883 233.056,166.383 232.5,166C 229.833,165.333 227.167,165.333 224.5,166C 222.859,167.129 221.859,168.629 221.5,170.5C 221.5,171.167 221.167,171.5 220.5,171.5C 219.609,170.89 218.609,170.557 217.5,170.5C 214.737,164.141 211.071,158.475 206.5,153.5C 206.727,151.067 205.727,149.401 203.5,148.5C 203.443,147.391 203.11,146.391 202.5,145.5C 201.126,143.142 199.793,140.808 198.5,138.5C 198.5,136.167 198.5,133.833 198.5,131.5C 201.208,129.647 204.208,128.647 207.5,128.5C 209.833,128.833 211.167,130.167 211.5,132.5C 216.386,138.896 220.22,145.896 223,153.5C 223.667,154.833 224.333,154.833 225,153.5C 228.202,128.945 229.202,104.278 228,79.5C 227.814,77.0995 227.314,74.7662 226.5,72.5C 221.518,65.08 217.184,57.2466 213.5,49C 206.996,48.0697 200.662,48.7364 194.5,51C 193.334,56.5082 191.334,61.6749 188.5,66.5C 187.473,67.7914 186.473,67.7914 185.5,66.5C 184.415,64.4131 182.749,63.0798 180.5,62.5C 179.993,61.1411 178.993,60.1411 177.5,59.5C 178.309,57.9291 178.643,56.2624 178.5,54.5C 178.5,54.1667 178.5,53.8333 178.5,53.5C 180.074,51.8984 180.741,49.8984 180.5,47.5C 180.5,46.8333 180.833,46.5 181.5,46.5C 183.366,44.9995 184.699,42.9995 185.5,40.5C 187.848,40.4077 189.514,39.4077 190.5,37.5C 190.833,37.5 191.167,37.5 191.5,37.5C 194.152,37.5905 196.485,36.9238 198.5,35.5C 200.117,34.962 201.784,34.6287 203.5,34.5 Z"/></g>
<g><path style="opacity:1" fill="#808c13" d="M 114.5,103.5 C 110.958,103.187 107.625,103.521 104.5,104.5C 99.4889,104.334 94.4889,104.501 89.5,105C 81.351,107.787 73.0177,110.12 64.5,112C 60.2966,114.782 55.6299,116.116 50.5,116C 47.9586,117.848 46.9586,120.348 47.5,123.5C 42.2517,121.373 39.0851,123.04 38,128.5C 34.9534,131.545 32.2867,134.878 30,138.5C 29.3333,132.5 29.3333,126.5 30,120.5C 32.3655,114.398 33.6989,108.065 34,101.5C 37.9922,96.4928 40.6588,90.8261 42,84.5C 45.0269,79.8948 48.8602,76.0614 53.5,73C 66.4465,72.3096 79.1131,73.9762 91.5,78C 99.4308,86.4221 107.097,94.9221 114.5,103.5 Z"/></g>
<g><path style="opacity:1" fill="#ac8544" d="M 168.5,74.5 C 168.5,74.1667 168.5,73.8333 168.5,73.5C 172.81,74.0802 177.143,74.4135 181.5,74.5C 181.5,74.8333 181.5,75.1667 181.5,75.5C 179.924,76.075 178.258,76.4084 176.5,76.5C 173.664,76.2937 170.998,75.627 168.5,74.5 Z"/></g>
<g><path style="opacity:0.067" fill="#181707" d="M 29.5,76.5 C 29.2451,78.9674 28.2451,80.9674 26.5,82.5C 26.7549,80.0326 27.7549,78.0326 29.5,76.5 Z"/></g>
<g><path style="opacity:1" fill="#d4ba4f" d="M 106.5,72.5 C 109.857,76.852 113.191,81.1853 116.5,85.5C 114.301,83.8977 112.301,82.0643 110.5,80C 109.552,79.5172 108.552,79.3505 107.5,79.5C 107.822,77.2776 107.155,75.4443 105.5,74C 103.067,74.3607 100.567,74.8607 98,75.5C 96.6153,75.4857 95.4486,75.1524 94.5,74.5C 98.6404,74.3107 102.64,73.6441 106.5,72.5 Z"/></g>
<g><path style="opacity:0.019" fill="#010501" d="M 242.5,72.5 C 243.309,74.2922 243.809,76.2922 244,78.5C 244.829,98.0044 244.662,117.338 243.5,136.5C 243.83,117.326 243.497,98.326 242.5,79.5C 242.5,77.1667 242.5,74.8333 242.5,72.5 Z"/></g>
<g><path style="opacity:0.275" fill="#303030" d="M 1020.5,95.5 C 1020.5,96.1667 1020.5,96.8333 1020.5,97.5C 1006.19,83.1905 988.853,77.0239 968.5,79C 960.196,79.6597 952.196,81.4931 944.5,84.5C 944.5,84.1667 944.5,83.8333 944.5,83.5C 966.44,74.8901 988.107,75.7234 1009.5,86C 1013.61,88.7118 1017.28,91.8784 1020.5,95.5 Z"/></g>
<g><path style="opacity:1" fill="#679362" d="M 168.5,75.5 C 168.299,79.1302 166.632,81.7969 163.5,83.5C 165.172,80.7868 166.838,78.1202 168.5,75.5 Z"/></g>
<g><path style="opacity:0.239" fill="#0f3212" d="M 242.5,79.5 C 243.497,98.326 243.83,117.326 243.5,136.5C 242.85,138.435 242.517,140.435 242.5,142.5C 241.833,142.833 241.167,143.167 240.5,143.5C 240.298,141.05 240.631,138.717 241.5,136.5C 242.497,117.674 242.83,98.674 242.5,79.5 Z"/></g>
<g><path style="opacity:1" fill="#fcfcfc" d="M 597.5,98.5 C 608.335,107.672 616.001,119.005 620.5,132.5C 620.723,136.162 621.723,139.495 623.5,142.5C 625.177,155.765 625.843,169.098 625.5,182.5C 624.011,186.236 623.344,190.236 623.5,194.5C 621.926,196.102 621.259,198.102 621.5,200.5C 620.061,202.588 619.394,204.921 619.5,207.5C 613.71,219.548 606.044,230.382 596.5,240C 586.456,247.689 575.456,253.189 563.5,256.5C 550.167,257.833 536.833,257.833 523.5,256.5C 520.495,254.723 517.162,253.723 513.5,253.5C 507.195,251.014 501.195,248.014 495.5,244.5C 494.089,242.086 492.089,240.419 489.5,239.5C 485.879,234.707 482.046,230.04 478,225.5C 471.046,215.463 466.546,204.463 464.5,192.5C 463.634,178.52 463.301,164.52 463.5,150.5C 466.777,123.245 480.111,102.578 503.5,88.5C 510.019,85.2326 516.686,82.5659 523.5,80.5C 548.391,76.2405 571.391,80.7405 592.5,94C 594.037,95.7073 595.704,97.2073 597.5,98.5 Z M 574.5,195.5 C 567.12,209.526 555.453,215.693 539.5,214C 534.095,212.977 529.095,210.977 524.5,208C 507.945,188.842 504.279,167.342 513.5,143.5C 525.004,122.388 541.337,117.555 562.5,129C 576.836,142.808 582.336,159.641 579,179.5C 578.117,185.036 576.617,190.37 574.5,195.5 Z"/></g>
<g><path style="opacity:1" fill="#fbfbfb" d="M 715.5,79.5 C 731.926,80.2012 746.926,84.8679 760.5,93.5C 762.278,97.5653 762.945,101.899 762.5,106.5C 760.623,111.925 758.456,117.259 756,122.5C 752.411,129.044 746.911,132.044 739.5,131.5C 725.374,122.533 710.041,119.7 693.5,123C 688.308,127.071 688.308,131.238 693.5,135.5C 702.104,140.079 711.104,143.913 720.5,147C 733.418,152.372 744.918,159.872 755,169.5C 757.827,173.155 759.993,177.155 761.5,181.5C 761.259,183.898 761.926,185.898 763.5,187.5C 763.5,187.833 763.5,188.167 763.5,188.5C 764.358,196.132 764.691,203.799 764.5,211.5C 764.167,213.5 763.833,215.5 763.5,217.5C 762.883,217.611 762.383,217.944 762,218.5C 761.261,221.546 760.428,224.546 759.5,227.5C 749.202,244.996 733.869,254.996 713.5,257.5C 703.773,258.805 694.107,258.805 684.5,257.5C 680.79,255.864 676.79,255.198 672.5,255.5C 670.485,254.076 668.152,253.41 665.5,253.5C 661.399,252.523 657.732,250.689 654.5,248C 653.207,247.51 651.873,247.343 650.5,247.5C 650.027,246.094 649.027,245.427 647.5,245.5C 647.027,244.094 646.027,243.427 644.5,243.5C 641.748,240.916 639.581,237.916 638,234.5C 637.333,232.167 637.333,229.833 638,227.5C 639.094,225.922 639.928,224.255 640.5,222.5C 640.833,221.167 641.167,219.833 641.5,218.5C 643.25,217.341 644.25,215.674 644.5,213.5C 646.69,210.312 649.024,207.145 651.5,204C 655.522,201.397 659.855,200.897 664.5,202.5C 671.86,208.012 679.86,212.179 688.5,215C 695.5,215.667 702.5,215.667 709.5,215C 717.241,212.961 720.407,208.128 719,200.5C 718.578,198.574 717.411,197.574 715.5,197.5C 713.151,193.306 709.485,191.306 704.5,191.5C 700.635,187.907 695.968,185.907 690.5,185.5C 687.514,182.556 683.847,180.889 679.5,180.5C 676.55,177.192 672.884,175.192 668.5,174.5C 668.027,173.094 667.027,172.427 665.5,172.5C 664.738,170.738 663.404,169.738 661.5,169.5C 647.183,154.708 641.85,137.041 645.5,116.5C 647.549,112.693 649.216,108.693 650.5,104.5C 661.267,90.9447 675.267,82.7781 692.5,80C 700.159,79.5003 707.826,79.3336 715.5,79.5 Z"/></g>
<g><path style="opacity:1" fill="#fcfcfc" d="M 1020.5,97.5 C 1022.68,99.8584 1024.34,102.525 1025.5,105.5C 1030.38,119.965 1030.72,134.632 1026.5,149.5C 1024.07,153.776 1021.4,157.943 1018.5,162C 1020.61,165.118 1023.11,167.952 1026,170.5C 1027.78,173.059 1029.28,175.726 1030.5,178.5C 1031.02,182.533 1032.36,186.2 1034.5,189.5C 1034.5,197.833 1034.5,206.167 1034.5,214.5C 1027.01,239.482 1010.35,253.982 984.5,258C 965.558,259.91 947.558,256.744 930.5,248.5C 928.747,246.777 926.747,245.277 924.5,244C 923.117,242.729 922.117,241.229 921.5,239.5C 920.701,236.57 920.368,233.57 920.5,230.5C 921.642,227.62 922.642,224.62 923.5,221.5C 926.771,216.752 929.771,211.918 932.5,207C 940.984,203.827 948.318,205.494 954.5,212C 956.909,213.707 959.575,214.54 962.5,214.5C 962.918,215.222 963.584,215.722 964.5,216C 967.5,216.167 970.5,216.333 973.5,216.5C 976.913,216.483 979.913,215.816 982.5,214.5C 990.762,210.562 993.262,204.229 990,195.5C 987.49,192.335 984.324,190.335 980.5,189.5C 977.345,187.102 973.679,185.936 969.5,186C 961.833,185.667 954.167,185.333 946.5,185C 944.655,183.322 942.988,181.489 941.5,179.5C 940.389,170.548 940.223,161.548 941,152.5C 943.372,150.297 945.539,147.963 947.5,145.5C 954.841,145.666 962.174,145.5 969.5,145C 976.496,143.509 982.163,140.009 986.5,134.5C 987.634,132.034 987.801,129.367 987,126.5C 986.617,125.944 986.117,125.611 985.5,125.5C 983.117,123.642 980.45,122.308 977.5,121.5C 971.272,119.853 965.272,120.52 959.5,123.5C 956.296,124.383 953.629,126.05 951.5,128.5C 946.636,130.67 941.636,131.003 936.5,129.5C 934.055,127.07 932.055,124.404 930.5,121.5C 930.245,119.033 929.245,117.033 927.5,115.5C 927.443,114.391 927.11,113.391 926.5,112.5C 924.057,106.725 924.057,101.058 926.5,95.5C 931.49,90.3311 937.49,86.6644 944.5,84.5C 952.196,81.4931 960.196,79.6597 968.5,79C 988.853,77.0239 1006.19,83.1905 1020.5,97.5 Z"/></g>
<g><path style="opacity:1" fill="#fcfcfc" d="M 409.5,92.5 C 422.065,100.395 431.399,111.061 437.5,124.5C 438.36,129.207 440.027,133.541 442.5,137.5C 442.41,140.152 443.076,142.485 444.5,144.5C 444.5,144.833 444.5,145.167 444.5,145.5C 445.992,162.205 445.659,178.872 443.5,195.5C 434.291,230.035 411.958,250.368 376.5,256.5C 356.824,256.585 337.157,256.252 317.5,255.5C 311.516,254.347 308.016,250.681 307,244.5C 306.5,193.168 306.333,141.834 306.5,90.5C 307.97,88.8487 309.303,87.0153 310.5,85C 312.432,83.5415 314.432,82.3748 316.5,81.5C 335.825,80.5457 355.159,80.379 374.5,81C 387.006,82.5373 398.673,86.3706 409.5,92.5 Z M 353.5,123.5 C 373.831,121.737 387.997,130.07 396,148.5C 400.759,163.282 400.425,177.948 395,192.5C 391.336,202.163 384.503,208.33 374.5,211C 367.557,212.283 360.557,213.116 353.5,213.5C 353.5,183.5 353.5,153.5 353.5,123.5 Z"/></g>
<g><path style="opacity:0.58" fill="#696969" d="M 893.5,81.5 C 893.5,81.8333 893.5,82.1667 893.5,82.5C 861.833,82.5 830.167,82.5 798.5,82.5C 798.5,82.1667 798.5,81.8333 798.5,81.5C 830.167,80.1667 861.833,80.1667 893.5,81.5 Z"/></g>
<g><path style="opacity:0.004" fill="#373737" d="M 893.5,82.5 C 893.5,82.1667 893.5,81.8333 893.5,81.5C 899.33,81.7454 902.663,84.7454 903.5,90.5C 903.826,98.6841 903.492,106.684 902.5,114.5C 902.666,105.827 902.5,97.1603 902,88.5C 900.242,86.2345 898.075,84.5678 895.5,83.5C 895.158,82.6618 894.492,82.3284 893.5,82.5 Z"/></g>
<g><path style="opacity:0.106" fill="#151605" d="M 26.5,82.5 C 26.5979,84.5529 25.9313,86.2196 24.5,87.5C 24.1201,85.302 24.7868,83.6354 26.5,82.5 Z"/></g>
<g><path style="opacity:0.22" fill="#3d3d3d" d="M 409.5,91.5 C 409.5,91.8333 409.5,92.1667 409.5,92.5C 398.673,86.3706 387.006,82.5373 374.5,81C 355.159,80.379 335.825,80.5457 316.5,81.5C 336.648,78.9008 356.981,78.4008 377.5,80C 389.179,81.39 399.846,85.2234 409.5,91.5 Z"/></g>
<g><path style="opacity:1" fill="#fdfdfd" d="M 798.5,82.5 C 830.167,82.5 861.833,82.5 893.5,82.5C 894.492,82.3284 895.158,82.6618 895.5,83.5C 897.077,85.5837 898.91,87.5837 901,89.5C 901.5,98.4938 901.666,107.494 901.5,116.5C 899.863,118.475 898.196,120.475 896.5,122.5C 895.167,122.833 893.833,123.167 892.5,123.5C 872.66,123.17 852.993,123.503 833.5,124.5C 832.173,131.235 832.173,138.068 833.5,145C 850.83,145.5 868.163,145.667 885.5,145.5C 888.838,146.423 891.338,148.423 893,151.5C 893.667,160.167 893.667,168.833 893,177.5C 891.285,180.717 888.785,183.05 885.5,184.5C 868.163,184.333 850.83,184.5 833.5,185C 832.349,194.422 832.182,203.922 833,213.5C 853.424,214.493 873.924,214.827 894.5,214.5C 896.674,214.75 898.341,215.75 899.5,217.5C 899.461,218.756 899.961,219.756 901,220.5C 901.5,229.827 901.666,239.161 901.5,248.5C 899.628,251.529 896.961,253.695 893.5,255C 861.835,255.5 830.168,255.667 798.5,255.5C 797.833,255.5 797.167,255.5 796.5,255.5C 793.81,253.807 791.81,251.473 790.5,248.5C 789.347,196.195 789.18,143.862 790,91.5C 791.243,88.4241 793.077,85.7574 795.5,83.5C 796.391,82.8902 797.391,82.5569 798.5,82.5 Z"/></g>
<g><path style="opacity:0.102" fill="#212121" d="M 316.5,81.5 C 314.432,82.3748 312.432,83.5415 310.5,85C 309.303,87.0153 307.97,88.8487 306.5,90.5C 307.337,84.7454 310.67,81.7454 316.5,81.5 Z"/></g>
<g><path style="opacity:0.549" fill="#4c4c4c" d="M 523.5,80.5 C 516.686,82.5659 510.019,85.2326 503.5,88.5C 503.5,88.1667 503.5,87.8333 503.5,87.5C 509.537,83.5974 516.204,81.2641 523.5,80.5 Z"/></g>
<g><path style="opacity:0.031" fill="#141505" d="M 24.5,87.5 C 24.5,88.5 24.5,89.5 24.5,90.5C 23.8333,90.8333 23.1667,91.1667 22.5,91.5C 22.2291,89.6203 22.8958,88.287 24.5,87.5 Z"/></g>
<g><path style="opacity:1" fill="#44dd4e" d="M 168.5,74.5 C 170.998,75.627 173.664,76.2937 176.5,76.5C 178.258,76.4084 179.924,76.075 181.5,75.5C 182.586,75.62 183.253,76.2867 183.5,77.5C 179.806,82.696 176.306,88.0293 173,93.5C 170.775,97.6766 169.275,102.01 168.5,106.5C 166.003,108.871 163.003,109.871 159.5,109.5C 158.167,108.833 157.167,107.833 156.5,106.5C 156.336,103.813 156.503,101.146 157,98.5C 158.413,96.3476 159.246,94.0143 159.5,91.5C 161.202,89.1595 162.535,86.4928 163.5,83.5C 166.632,81.7969 168.299,79.1302 168.5,75.5C 168.5,75.1667 168.5,74.8333 168.5,74.5 Z"/></g>
<g><path style="opacity:1" fill="#64b063" d="M 163.5,83.5 C 162.535,86.4928 161.202,89.1595 159.5,91.5C 159.655,88.1317 160.988,85.465 163.5,83.5 Z"/></g>
<g><path style="opacity:0.145" fill="#343434" d="M 597.5,96.5 C 597.5,97.1667 597.5,97.8333 597.5,98.5C 595.704,97.2073 594.037,95.7073 592.5,94C 571.391,80.7405 548.391,76.2405 523.5,80.5C 545.263,75.4786 566.263,77.9786 586.5,88C 590.597,90.3696 594.264,93.2029 597.5,96.5 Z"/></g>
<g><path style="opacity:0.806" fill="#c4c4c4" d="M 895.5,83.5 C 898.075,84.5678 900.242,86.2345 902,88.5C 902.5,97.1603 902.666,105.827 902.5,114.5C 902.672,115.492 902.338,116.158 901.5,116.5C 901.666,107.494 901.5,98.4938 901,89.5C 898.91,87.5837 897.077,85.5837 895.5,83.5 Z"/></g>
<g><path style="opacity:0.094" fill="#171717" d="M 306.5,90.5 C 306.333,141.834 306.5,193.168 307,244.5C 308.016,250.681 311.516,254.347 317.5,255.5C 320.833,256.167 324.167,256.833 327.5,257.5C 319.263,259.033 312.43,256.699 307,250.5C 306.667,249.167 306.333,247.833 306,246.5C 305.168,194.332 305.335,142.332 306.5,90.5 Z"/></g>
<g><path style="opacity:0.165" fill="#1d1d1d" d="M 798.5,81.5 C 798.5,81.8333 798.5,82.1667 798.5,82.5C 797.391,82.5569 796.391,82.8902 795.5,83.5C 792.572,84.5914 790.406,86.5914 789,89.5C 788.333,141.833 788.333,194.167 789,246.5C 789.278,247.416 789.778,248.082 790.5,248.5C 791.81,251.473 793.81,253.807 796.5,255.5C 796.167,255.5 795.833,255.5 795.5,255.5C 791.088,253.582 788.254,250.249 787,245.5C 786.333,194.167 786.333,142.833 787,91.5C 788.551,85.4435 792.385,82.1102 798.5,81.5 Z"/></g>
<g><path style="opacity:0.553" fill="#8c8c8c" d="M 795.5,83.5 C 793.077,85.7574 791.243,88.4241 790,91.5C 789.18,143.862 789.347,196.195 790.5,248.5C 789.778,248.082 789.278,247.416 789,246.5C 788.333,194.167 788.333,141.833 789,89.5C 790.406,86.5914 792.572,84.5914 795.5,83.5 Z"/></g>
<g><path style="opacity:1" fill="#6aaa5e" d="M 159.5,91.5 C 159.246,94.0143 158.413,96.3476 157,98.5C 156.503,101.146 156.336,103.813 156.5,106.5C 155.833,106.167 155.167,105.833 154.5,105.5C 154.5,104.833 154.5,104.167 154.5,103.5C 154.668,98.7752 156.334,94.7752 159.5,91.5 Z"/></g>
<g><path style="opacity:1" fill="#a5ae31" d="M 24.5,90.5 C 23.4377,96.1004 21.771,101.434 19.5,106.5C 19.3677,103.43 19.701,100.43 20.5,97.5C 22.0739,95.8984 22.7406,93.8984 22.5,91.5C 23.1667,91.1667 23.8333,90.8333 24.5,90.5 Z"/></g>
<g><path style="opacity:0.235" fill="#393939" d="M 715.5,78.5 C 715.5,78.8333 715.5,79.1667 715.5,79.5C 707.826,79.3336 700.159,79.5003 692.5,80C 675.267,82.7781 661.267,90.9447 650.5,104.5C 655.372,95.7972 662.372,89.2972 671.5,85C 685.618,78.9026 700.285,76.7359 715.5,78.5 Z"/></g>
<g><path style="opacity:0.161" fill="#20220b" d="M 22.5,91.5 C 22.7406,93.8984 22.0739,95.8984 20.5,97.5C 20.2594,95.1016 20.9261,93.1016 22.5,91.5 Z"/></g>
<g><path style="opacity:0.757" fill="#b4b4b4" d="M 760.5,93.5 C 761.458,93.9528 762.292,94.6195 763,95.5C 763.81,99.3575 763.643,103.024 762.5,106.5C 762.945,101.899 762.278,97.5653 760.5,93.5 Z"/></g>
<g><path style="opacity:0.059" fill="#1c1c1c" d="M 944.5,83.5 C 944.5,83.8333 944.5,84.1667 944.5,84.5C 937.49,86.6644 931.49,90.3311 926.5,95.5C 924.012,97.0556 923.012,99.3889 923.5,102.5C 923.607,105.567 924.107,108.567 925,111.5C 925.383,112.056 925.883,112.389 926.5,112.5C 927.11,113.391 927.443,114.391 927.5,115.5C 927.755,117.967 928.755,119.967 930.5,121.5C 930.646,125.636 932.646,128.303 936.5,129.5C 936.833,130.167 937.167,130.833 937.5,131.5C 934.737,131.256 932.571,129.923 931,127.5C 928.333,122.167 925.667,116.833 923,111.5C 919.603,103.092 921.436,96.2588 928.5,91C 933.474,87.6792 938.807,85.1792 944.5,83.5 Z"/></g>
<g><path style="opacity:1" fill="#d1db3e" d="M 72.5,59.5 C 73.1667,59.5 73.8333,59.5 74.5,59.5C 76.8383,61.0395 79.5049,61.7062 82.5,61.5C 83.5,61.5 84.5,61.5 85.5,61.5C 86.9303,62.5375 88.597,63.2041 90.5,63.5C 88.3675,68.5859 89.7008,72.2526 94.5,74.5C 95.4486,75.1524 96.6153,75.4857 98,75.5C 100.567,74.8607 103.067,74.3607 105.5,74C 107.155,75.4443 107.822,77.2776 107.5,79.5C 108.552,79.3505 109.552,79.5172 110.5,80C 112.301,82.0643 114.301,83.8977 116.5,85.5C 120.138,89.4741 123.805,93.4741 127.5,97.5C 128.505,105.33 125.172,108.496 117.5,107C 116.186,106.015 115.186,104.848 114.5,103.5C 107.097,94.9221 99.4308,86.4221 91.5,78C 79.1131,73.9762 66.4465,72.3096 53.5,73C 48.8602,76.0614 45.0269,79.8948 42,84.5C 40.6588,90.8261 37.9922,96.4928 34,101.5C 33.6989,108.065 32.3655,114.398 30,120.5C 29.3333,126.5 29.3333,132.5 30,138.5C 32.2867,134.878 34.9534,131.545 38,128.5C 39.0851,123.04 42.2517,121.373 47.5,123.5C 48.8333,124.5 50.1667,125.5 51.5,126.5C 51.6621,128.527 51.4955,130.527 51,132.5C 49.9055,134.078 49.0722,135.745 48.5,137.5C 48.5,137.833 48.5,138.167 48.5,138.5C 47.5,138.833 46.8333,139.5 46.5,140.5C 41.9622,146.294 37.6289,152.294 33.5,158.5C 33.1667,158.5 32.8333,158.5 32.5,158.5C 31.8333,158.167 31.1667,157.833 30.5,157.5C 27.3895,151.665 22.7228,149.999 16.5,152.5C 15.5054,141.679 15.1721,130.679 15.5,119.5C 16.5415,115.082 17.8748,110.749 19.5,106.5C 21.771,101.434 23.4377,96.1004 24.5,90.5C 24.5,89.5 24.5,88.5 24.5,87.5C 25.9313,86.2196 26.5979,84.5529 26.5,82.5C 28.2451,80.9674 29.2451,78.9674 29.5,76.5C 32.8289,74.1664 35.4956,71.1664 37.5,67.5C 40.2016,65.78 42.8682,64.1134 45.5,62.5C 47.2554,61.9278 48.9221,61.0945 50.5,60C 57.8258,59.5003 65.1591,59.3337 72.5,59.5 Z"/></g>
<g><path style="opacity:0.812" fill="#b3b3b3" d="M 926.5,95.5 C 924.057,101.058 924.057,106.725 926.5,112.5C 925.883,112.389 925.383,112.056 925,111.5C 924.107,108.567 923.607,105.567 923.5,102.5C 923.012,99.3889 924.012,97.0556 926.5,95.5 Z"/></g>
<g><path style="opacity:0.243" fill="#27290e" d="M 20.5,97.5 C 19.701,100.43 19.3677,103.43 19.5,106.5C 17.8748,110.749 16.5415,115.082 15.5,119.5C 15.7135,113.741 16.5469,108.074 18,102.5C 18.0995,100.347 18.9328,98.6808 20.5,97.5 Z"/></g>
<g><path style="opacity:1" fill="#cf3b4f" d="M 128.5,102.5 C 137.208,102.255 145.874,102.589 154.5,103.5C 154.5,104.167 154.5,104.833 154.5,105.5C 145.517,105.198 136.85,104.198 128.5,102.5 Z"/></g>
<g><path style="opacity:0.239" fill="#333333" d="M 650.5,104.5 C 649.216,108.693 647.549,112.693 645.5,116.5C 646.017,111.931 647.683,107.931 650.5,104.5 Z"/></g>
<g><path style="opacity:1" fill="#c55b33" d="M 104.5,104.5 C 100.018,105.326 95.3514,105.826 90.5,106C 89.8333,107.333 88.8333,108.333 87.5,109C 77.7337,110.398 68.4003,113.064 59.5,117C 56.5,117.333 53.5,117.667 50.5,118C 49.4258,118.739 48.7591,119.739 48.5,121C 49.741,122.731 50.741,124.564 51.5,126.5C 50.1667,125.5 48.8333,124.5 47.5,123.5C 46.9586,120.348 47.9586,117.848 50.5,116C 55.6299,116.116 60.2966,114.782 64.5,112C 73.0177,110.12 81.351,107.787 89.5,105C 94.4889,104.501 99.4889,104.334 104.5,104.5 Z"/></g>
<g><path style="opacity:1" fill="#b76137" d="M 168.5,106.5 C 171.397,107.129 174.064,108.129 176.5,109.5C 170.654,110.133 164.987,110.133 159.5,109.5C 163.003,109.871 166.003,108.871 168.5,106.5 Z"/></g>
<g><path style="opacity:0.055" fill="#2d2d2d" d="M 715.5,79.5 C 715.5,79.1667 715.5,78.8333 715.5,78.5C 730.562,79.0155 744.895,82.5155 758.5,89C 764.373,92.9389 766.54,98.4389 765,105.5C 761.942,113.283 758.608,120.95 755,128.5C 750.294,132.413 745.128,133.413 739.5,131.5C 746.911,132.044 752.411,129.044 756,122.5C 758.456,117.259 760.623,111.925 762.5,106.5C 763.643,103.024 763.81,99.3575 763,95.5C 762.292,94.6195 761.458,93.9528 760.5,93.5C 746.926,84.8679 731.926,80.2012 715.5,79.5 Z"/></g>
<g><path style="opacity:1" fill="#8b6c26" d="M 184.5,113.5 C 186.967,113.755 188.967,114.755 190.5,116.5C 188.033,116.245 186.033,115.245 184.5,113.5 Z"/></g>
<g><path style="opacity:1" fill="#e6b2b0" d="M 119.5,117.5 C 111.025,118.725 102.358,119.392 93.5,119.5C 94.9516,118.698 96.6183,118.198 98.5,118C 105.492,117.5 112.492,117.334 119.5,117.5 Z"/></g>
<g><path style="opacity:0.714" fill="#2d9f38" d="M 239.5,67.5 C 240.687,69.0725 241.687,70.7392 242.5,72.5C 242.5,74.8333 242.5,77.1667 242.5,79.5C 242.83,98.674 242.497,117.674 241.5,136.5C 242.026,113.441 241.359,90.4406 239.5,67.5 Z"/></g>
<g><path style="opacity:1" fill="#fdfafb" d="M 119.5,116.5 C 133.249,116.102 146.916,116.935 160.5,119C 166.692,120.76 172.692,123.093 178.5,126C 182.081,127.58 185.414,129.58 188.5,132C 189.793,132.49 191.127,132.657 192.5,132.5C 192.768,134.099 192.434,135.432 191.5,136.5C 190.084,142.318 188.917,148.318 188,154.5C 187.617,155.056 187.117,155.389 186.5,155.5C 184.217,152.044 181.717,148.71 179,145.5C 177.353,139.028 173.853,133.862 168.5,130C 165.338,129.398 162.338,129.898 159.5,131.5C 157.88,134.404 156.547,137.404 155.5,140.5C 153.674,142.147 152.34,144.147 151.5,146.5C 148.764,148.554 146.431,151.054 144.5,154C 142.323,155.202 139.989,155.702 137.5,155.5C 132.922,156.843 131.422,159.843 133,164.5C 135.288,169.311 138.788,170.645 143.5,168.5C 147.775,169.25 151.109,167.917 153.5,164.5C 157.167,162.833 159.833,160.167 161.5,156.5C 162.373,154.114 163.873,152.114 166,150.5C 171.817,156.467 175.817,163.467 178,171.5C 180.642,174.029 183.808,175.029 187.5,174.5C 186.196,188.795 185.363,203.128 185,217.5C 183.03,220.968 180.864,224.301 178.5,227.5C 173.29,232.54 167.623,237.04 161.5,241C 144.74,249.64 127.407,256.806 109.5,262.5C 95.5561,260.69 83.2228,255.357 72.5,246.5C 71.4058,244.641 70.5725,242.641 70,240.5C 68.9887,239.663 67.8221,239.33 66.5,239.5C 65.5003,228.172 64.5003,216.839 63.5,205.5C 63.5,194.5 63.5,183.5 63.5,172.5C 65.099,172.768 66.4324,172.434 67.5,171.5C 69.4835,171.617 71.1502,170.95 72.5,169.5C 77.1777,163.823 82.511,158.823 88.5,154.5C 90.5503,160.676 93.8836,166.009 98.5,170.5C 102.981,171.648 107.648,171.815 112.5,171C 113.056,170.617 113.389,170.117 113.5,169.5C 116.259,165.582 115.925,161.749 112.5,158C 109.518,157.502 106.518,157.335 103.5,157.5C 102.1,149.914 101.267,142.247 101,134.5C 97.1702,129.71 92.6702,129.21 87.5,133C 80.6492,141.68 73.3159,149.846 65.5,157.5C 64.1734,153.217 63.5067,148.551 63.5,143.5C 63.5248,138.421 63.8582,133.421 64.5,128.5C 66.0269,128.573 67.0269,127.906 67.5,126.5C 70.1873,126.664 72.854,126.497 75.5,126C 76.4158,125.722 77.0825,125.222 77.5,124.5C 82.6746,122.242 88.0079,120.575 93.5,119.5C 102.358,119.392 111.025,118.725 119.5,117.5C 119.5,117.167 119.5,116.833 119.5,116.5 Z"/></g>
<g><path style="opacity:1" fill="#6b7e20" d="M 190.5,116.5 C 193.226,116.264 195.559,117.097 197.5,119C 200.482,119.498 203.482,119.665 206.5,119.5C 206.167,120.167 205.833,120.833 205.5,121.5C 199.561,122.351 194.561,120.684 190.5,116.5 Z"/></g>
<g><path style="opacity:1" fill="#b55831" d="M 215.5,118.5 C 212.204,119.424 208.871,120.424 205.5,121.5C 205.833,120.833 206.167,120.167 206.5,119.5C 209.449,117.501 212.449,117.168 215.5,118.5 Z"/></g>
<g><path style="opacity:0.341" fill="#757575" d="M 901.5,116.5 C 901.288,119.712 899.621,121.712 896.5,122.5C 898.196,120.475 899.863,118.475 901.5,116.5 Z"/></g>
<g><path style="opacity:1" fill="#da4740" d="M 127.5,97.5 C 128.451,98.9187 128.784,100.585 128.5,102.5C 136.85,104.198 145.517,105.198 154.5,105.5C 155.167,105.833 155.833,106.167 156.5,106.5C 157.167,107.833 158.167,108.833 159.5,109.5C 164.987,110.133 170.654,110.133 176.5,109.5C 179.068,110.956 181.734,112.289 184.5,113.5C 186.033,115.245 188.033,116.245 190.5,116.5C 194.561,120.684 199.561,122.351 205.5,121.5C 208.871,120.424 212.204,119.424 215.5,118.5C 217.017,118.511 218.184,119.177 219,120.5C 220.761,127.332 218.261,131.332 211.5,132.5C 211.167,130.167 209.833,128.833 207.5,128.5C 205.712,127.378 203.712,127.211 201.5,128C 199.574,128.422 198.574,129.589 198.5,131.5C 198.5,133.833 198.5,136.167 198.5,138.5C 198.149,141.812 199.482,144.145 202.5,145.5C 203.11,146.391 203.443,147.391 203.5,148.5C 203.737,149.791 203.404,150.791 202.5,151.5C 202.657,150.127 202.49,148.793 202,147.5C 199.881,146.349 198.047,144.849 196.5,143C 196.868,139.622 196.868,136.122 196.5,132.5C 195.167,132.5 193.833,132.5 192.5,132.5C 191.127,132.657 189.793,132.49 188.5,132C 185.414,129.58 182.081,127.58 178.5,126C 172.692,123.093 166.692,120.76 160.5,119C 146.916,116.935 133.249,116.102 119.5,116.5C 128.324,115.67 137.324,115.17 146.5,115C 145.109,113.98 143.609,113.147 142,112.5C 141.691,111.234 141.191,110.067 140.5,109C 140.833,108.667 141.167,108.333 141.5,108C 134.339,108.089 127.172,108.589 120,109.5C 117.182,109.174 115.015,107.841 113.5,105.5C 110.572,104.516 107.572,104.183 104.5,104.5C 107.625,103.521 110.958,103.187 114.5,103.5C 115.186,104.848 116.186,106.015 117.5,107C 125.172,108.496 128.505,105.33 127.5,97.5 Z"/></g>
<g><path style="opacity:0.702" fill="#b6b6b6" d="M 552.5,122.5 C 546.146,121.266 539.812,121.266 533.5,122.5C 533.611,121.883 533.944,121.383 534.5,121C 540.167,120.333 545.833,120.333 551.5,121C 552.056,121.383 552.389,121.883 552.5,122.5 Z"/></g>
<g><path style="opacity:0.38" fill="#747474" d="M 927.5,115.5 C 929.245,117.033 930.245,119.033 930.5,121.5C 928.755,119.967 927.755,117.967 927.5,115.5 Z"/></g>
<g><path style="opacity:0.89" fill="#dadada" d="M 351.5,122.5 C 351.169,153.338 351.502,184.005 352.5,214.5C 356.5,214.5 360.5,214.5 364.5,214.5C 360.03,215.486 355.363,215.819 350.5,215.5C 350.169,184.329 350.502,153.329 351.5,122.5 Z"/></g>
<g><path style="opacity:0.184" fill="#6c6c6c" d="M 977.5,121.5 C 973.818,121.335 970.152,121.501 966.5,122C 965.263,122.232 964.263,122.732 963.5,123.5C 962.167,123.5 960.833,123.5 959.5,123.5C 965.272,120.52 971.272,119.853 977.5,121.5 Z"/></g>
<g><path style="opacity:0.494" fill="#858585" d="M 377.5,125.5 C 369.361,123.129 361.027,122.129 352.5,122.5C 352.5,153.167 352.5,183.833 352.5,214.5C 351.502,184.005 351.169,153.338 351.5,122.5C 359.799,121.039 368.133,121.539 376.5,124C 377.056,124.383 377.389,124.883 377.5,125.5 Z"/></g>
<g><path style="opacity:0.651" fill="#9b9b9b" d="M 892.5,123.5 C 873.341,124.497 854.007,124.83 834.5,124.5C 834.5,130.833 834.5,137.167 834.5,143.5C 833.51,137.355 833.177,131.022 833.5,124.5C 852.993,123.503 872.66,123.17 892.5,123.5 Z"/></g>
<g><path style="opacity:0.122" fill="#2d2d2d" d="M 959.5,123.5 C 960.833,123.5 962.167,123.5 963.5,123.5C 959.24,125.3 955.24,127.633 951.5,130.5C 951.5,129.833 951.5,129.167 951.5,128.5C 953.629,126.05 956.296,124.383 959.5,123.5 Z"/></g>
<g><path style="opacity:0.95" fill="#b7b7b7" d="M 1025.5,105.5 C 1027.84,107.965 1029.34,110.965 1030,114.5C 1031.52,122.102 1031.86,129.768 1031,137.5C 1030.16,141.86 1028.66,145.86 1026.5,149.5C 1030.72,134.632 1030.38,119.965 1025.5,105.5 Z"/></g>
<g><path style="opacity:1" fill="#ebb7ba" d="M 77.5,124.5 C 77.0825,125.222 76.4158,125.722 75.5,126C 72.854,126.497 70.1873,126.664 67.5,126.5C 70.5443,124.989 73.8776,124.322 77.5,124.5 Z"/></g>
<g><path style="opacity:0.243" fill="#686868" d="M 930.5,121.5 C 932.055,124.404 934.055,127.07 936.5,129.5C 932.646,128.303 930.646,125.636 930.5,121.5 Z"/></g>
<g><path style="opacity:0.918" fill="#a7a7a7" d="M 437.5,124.5 C 440.134,128.395 441.801,132.728 442.5,137.5C 440.027,133.541 438.36,129.207 437.5,124.5 Z"/></g>
<g><path style="opacity:0.122" fill="#2f2f2f" d="M 552.5,122.5 C 567.224,128.232 576.224,138.899 579.5,154.5C 581.49,168.099 580.49,181.432 576.5,194.5C 576.068,195.71 575.401,196.71 574.5,197.5C 574.5,196.833 574.5,196.167 574.5,195.5C 576.617,190.37 578.117,185.036 579,179.5C 582.336,159.641 576.836,142.808 562.5,129C 541.337,117.555 525.004,122.388 513.5,143.5C 512.833,143.833 512.167,144.167 511.5,144.5C 512.15,140.86 513.65,137.527 516,134.5C 520.411,128.229 526.244,124.229 533.5,122.5C 539.812,121.266 546.146,121.266 552.5,122.5 Z"/></g>
<g><path style="opacity:1" fill="#82a74c" d="M 207.5,128.5 C 204.208,128.647 201.208,129.647 198.5,131.5C 198.574,129.589 199.574,128.422 201.5,128C 203.712,127.211 205.712,127.378 207.5,128.5 Z"/></g>
<g><path style="opacity:0.408" fill="#808080" d="M 985.5,125.5 C 986.117,125.611 986.617,125.944 987,126.5C 987.801,129.367 987.634,132.034 986.5,134.5C 986.632,131.43 986.299,128.43 985.5,125.5 Z"/></g>
<g><path style="opacity:0.081" fill="#24230f" d="M 15.5,119.5 C 15.1721,130.679 15.5054,141.679 16.5,152.5C 16.5,152.833 16.5,153.167 16.5,153.5C 14.6854,154.63 12.6854,155.296 10.5,155.5C 12.3226,154.507 13.6559,153.007 14.5,151C 13.1279,140.32 13.4612,129.82 15.5,119.5 Z"/></g>
<g><path style="opacity:1" fill="#e9baba" d="M 64.5,128.5 C 63.8582,133.421 63.5248,138.421 63.5,143.5C 63.5067,148.551 64.1734,153.217 65.5,157.5C 64.791,158.404 63.791,158.737 62.5,158.5C 61.859,148.111 62.5257,138.111 64.5,128.5 Z"/></g>
<g><path style="opacity:0.247" fill="#6c6c6c" d="M 951.5,128.5 C 951.5,129.167 951.5,129.833 951.5,130.5C 946.881,131.314 942.214,131.647 937.5,131.5C 937.167,130.833 936.833,130.167 936.5,129.5C 941.636,131.003 946.636,130.67 951.5,128.5 Z"/></g>
<g><path style="opacity:0.163" fill="#1c1c1c" d="M 951.5,130.5 C 949.193,132.047 946.527,132.713 943.5,132.5C 941.304,132.495 939.304,132.162 937.5,131.5C 942.214,131.647 946.881,131.314 951.5,130.5 Z"/></g>
<g><path style="opacity:0.733" fill="#858585" d="M 620.5,132.5 C 622.277,135.505 623.277,138.838 623.5,142.5C 621.723,139.495 620.723,136.162 620.5,132.5 Z"/></g>
<g><path style="opacity:0.027" fill="#232323" d="M 739.5,131.5 C 733.865,129.353 728.198,127.187 722.5,125C 712.657,121.377 702.991,121.711 693.5,126C 691.675,127.466 691.175,129.299 692,131.5C 695.081,134.293 698.581,136.46 702.5,138C 715.67,142.586 728.337,148.253 740.5,155C 746.258,158.754 751.425,163.254 756,168.5C 759.571,172.975 762.071,177.975 763.5,183.5C 762.833,182.833 762.167,182.167 761.5,181.5C 759.993,177.155 757.827,173.155 755,169.5C 744.918,159.872 733.418,152.372 720.5,147C 711.104,143.913 702.104,140.079 693.5,135.5C 688.308,131.238 688.308,127.071 693.5,123C 710.041,119.7 725.374,122.533 739.5,131.5 Z"/></g>
<g><path style="opacity:0.043" fill="#090303" d="M 46.5,140.5 C 47.1667,161.167 47.8333,181.833 48.5,202.5C 48.5,203.833 48.5,205.167 48.5,206.5C 47.7321,205.737 47.2321,204.737 47,203.5C 46.5,183.169 46.3334,162.836 46.5,142.5C 46.5,141.833 46.5,141.167 46.5,140.5 Z"/></g>
<g><path style="opacity:1" fill="#a77442" d="M 198.5,138.5 C 199.793,140.808 201.126,143.142 202.5,145.5C 199.482,144.145 198.149,141.812 198.5,138.5 Z"/></g>
<g><path style="opacity:0.29" fill="#3d1614" d="M 48.5,138.5 C 48.5,159.833 48.5,181.167 48.5,202.5C 47.8333,181.833 47.1667,161.167 46.5,140.5C 46.8333,139.5 47.5,138.833 48.5,138.5 Z"/></g>
<g><path style="opacity:0.549" fill="#7d7d7d" d="M 442.5,137.5 C 443.924,139.515 444.59,141.848 444.5,144.5C 443.076,142.485 442.41,140.152 442.5,137.5 Z"/></g>
<g><path style="opacity:0.855" fill="#d4d4d4" d="M 833.5,124.5 C 833.177,131.022 833.51,137.355 834.5,143.5C 851.5,144.167 868.5,144.833 885.5,145.5C 868.163,145.667 850.83,145.5 833.5,145C 832.173,138.068 832.173,131.235 833.5,124.5 Z"/></g>
<g><path style="opacity:0.059" fill="#1e1e1e" d="M 1020.5,95.5 C 1029.22,104.639 1033.22,115.639 1032.5,128.5C 1033.15,141.377 1029.15,152.543 1020.5,162C 1026.75,167.667 1031.08,174.5 1033.5,182.5C 1032.5,181.167 1031.5,179.833 1030.5,178.5C 1029.28,175.726 1027.78,173.059 1026,170.5C 1023.11,167.952 1020.61,165.118 1018.5,162C 1021.4,157.943 1024.07,153.776 1026.5,149.5C 1028.66,145.86 1030.16,141.86 1031,137.5C 1031.86,129.768 1031.52,122.102 1030,114.5C 1029.34,110.965 1027.84,107.965 1025.5,105.5C 1024.34,102.525 1022.68,99.8584 1020.5,97.5C 1020.5,96.8333 1020.5,96.1667 1020.5,95.5 Z"/></g>
<g><path style="opacity:0.061" fill="#141414" d="M 409.5,92.5 C 409.5,92.1667 409.5,91.8333 409.5,91.5C 431.245,104.611 443.745,123.945 447,149.5C 448.531,158.974 448.697,168.308 447.5,177.5C 447.823,171.31 447.49,165.31 446.5,159.5C 446.771,154.566 446.104,149.9 444.5,145.5C 444.5,145.167 444.5,144.833 444.5,144.5C 444.59,141.848 443.924,139.515 442.5,137.5C 441.801,132.728 440.134,128.395 437.5,124.5C 431.399,111.061 422.065,100.395 409.5,92.5 Z"/></g>
<g><path style="opacity:0.106" fill="#333612" d="M 46.5,140.5 C 46.5,141.167 46.5,141.833 46.5,142.5C 43.2345,147.584 39.7345,152.584 36,157.5C 35.3292,158.252 34.4959,158.586 33.5,158.5C 37.6289,152.294 41.9622,146.294 46.5,140.5 Z"/></g>
<g><path style="opacity:1" fill="#b22322" d="M 16.5,153.5 C 21.8277,153.06 26.4944,154.393 30.5,157.5C 31.1667,157.833 31.8333,158.167 32.5,158.5C 32.8142,161.622 33.8142,164.455 35.5,167C 35.3333,168.167 35.1667,169.333 35,170.5C 33.6244,171.705 32.4577,173.038 31.5,174.5C 25.4801,175.839 19.4801,177.172 13.5,178.5C 9.40821,177.013 7.24155,174.013 7,169.5C 6.33333,166.5 6.33333,163.5 7,160.5C 8.64944,159.115 9.8161,157.449 10.5,155.5C 12.6854,155.296 14.6854,154.63 16.5,153.5 Z"/></g>
<g><path style="opacity:0.009" fill="#131313" d="M 597.5,96.5 C 613.355,109.892 623.189,126.892 627,147.5C 629.707,165.729 628.707,183.729 624,201.5C 622.488,206.567 620.321,211.233 617.5,215.5C 617.963,212.779 618.629,210.112 619.5,207.5C 619.394,204.921 620.061,202.588 621.5,200.5C 623.074,198.898 623.741,196.898 623.5,194.5C 625.25,190.817 625.917,186.817 625.5,182.5C 626.658,172.675 626.825,162.675 626,152.5C 625.465,148.962 624.632,145.628 623.5,142.5C 623.277,138.838 622.277,135.505 620.5,132.5C 616.001,119.005 608.335,107.672 597.5,98.5C 597.5,97.8333 597.5,97.1667 597.5,96.5 Z"/></g>
<g><path style="opacity:0.055" fill="#242424" d="M 977.5,121.5 C 980.45,122.308 983.117,123.642 985.5,125.5C 986.299,128.43 986.632,131.43 986.5,134.5C 982.163,140.009 976.496,143.509 969.5,145C 962.174,145.5 954.841,145.666 947.5,145.5C 945.539,147.963 943.372,150.297 941,152.5C 940.223,161.548 940.389,170.548 941.5,179.5C 942.988,181.489 944.655,183.322 946.5,185C 954.167,185.333 961.833,185.667 969.5,186C 973.679,185.936 977.345,187.102 980.5,189.5C 968.997,187.066 957.331,185.899 945.5,186C 941.667,184.833 939.167,182.333 938,178.5C 937.333,169.833 937.333,161.167 938,152.5C 939.598,147.901 942.765,145.068 947.5,144C 956.227,143.877 964.894,143.21 973.5,142C 979.905,140.638 983.905,136.805 985.5,130.5C 983.236,124.585 978.903,121.918 972.5,122.5C 969.483,122.768 966.483,123.102 963.5,123.5C 964.263,122.732 965.263,122.232 966.5,122C 970.152,121.501 973.818,121.335 977.5,121.5 Z"/></g>
<g><path style="opacity:1" fill="#bb5427" d="M 30.5,157.5 C 26.4944,154.393 21.8277,153.06 16.5,153.5C 16.5,153.167 16.5,152.833 16.5,152.5C 22.7228,149.999 27.3895,151.665 30.5,157.5 Z"/></g>
<g><path style="opacity:0.749" fill="#afafaf" d="M 947.5,145.5 C 945.539,147.963 943.372,150.297 941,152.5C 940.223,161.548 940.389,170.548 941.5,179.5C 940.883,179.389 940.383,179.056 940,178.5C 939.333,169.5 939.333,160.5 940,151.5C 942.106,148.882 944.606,146.882 947.5,145.5 Z"/></g>
<g><path style="opacity:0.969" fill="#226727" d="M 206.5,153.5 C 211.071,158.475 214.737,164.141 217.5,170.5C 215.376,169.969 213.876,168.635 213,166.5C 210.295,162.423 208.128,158.09 206.5,153.5 Z"/></g>
<g><path style="opacity:0.263" fill="#363636" d="M 645.5,116.5 C 641.85,137.041 647.183,154.708 661.5,169.5C 656.556,166.651 652.722,162.651 650,157.5C 643.413,144.246 641.913,130.58 645.5,116.5 Z"/></g>
<g><path style="opacity:0.141" fill="#180403" d="M 10.5,155.5 C 9.8161,157.449 8.64944,159.115 7,160.5C 6.33333,163.5 6.33333,166.5 7,169.5C 7.24155,174.013 9.40821,177.013 13.5,178.5C 13.5,178.833 13.5,179.167 13.5,179.5C 10.0125,178.857 7.5125,176.857 6,173.5C 5.33333,168.833 5.33333,164.167 6,159.5C 7.0692,157.593 8.5692,156.259 10.5,155.5 Z"/></g>
<g><path style="opacity:0.968" fill="#d7d7d7" d="M 463.5,150.5 C 463.301,164.52 463.634,178.52 464.5,192.5C 462.41,184.269 461.41,175.769 461.5,167C 461.311,161.248 461.978,155.748 463.5,150.5 Z"/></g>
<g><path style="opacity:0.737" fill="#9e322f" d="M 48.5,137.5 C 49.238,161.344 49.9046,185.344 50.5,209.5C 49.8333,208.5 49.1667,207.5 48.5,206.5C 48.5,205.167 48.5,203.833 48.5,202.5C 48.5,181.167 48.5,159.833 48.5,138.5C 48.5,138.167 48.5,137.833 48.5,137.5 Z"/></g>
<g><path style="opacity:0.778" fill="#a4a4a4" d="M 444.5,145.5 C 446.104,149.9 446.771,154.566 446.5,159.5C 446.666,166.841 446.5,174.174 446,181.5C 445.884,186.434 445.051,191.1 443.5,195.5C 445.659,178.872 445.992,162.205 444.5,145.5 Z"/></g>
<g><path style="opacity:0.396" fill="#390f0d" d="M 32.5,158.5 C 32.8333,158.5 33.1667,158.5 33.5,158.5C 36.3609,162.702 37.1942,167.369 36,172.5C 34.8904,174.037 33.3904,174.703 31.5,174.5C 32.4577,173.038 33.6244,171.705 35,170.5C 35.1667,169.333 35.3333,168.167 35.5,167C 33.8142,164.455 32.8142,161.622 32.5,158.5 Z"/></g>
<g><path style="opacity:1" fill="#7d863a" d="M 233.5,167.5 C 228.69,165.52 224.69,166.52 221.5,170.5C 221.859,168.629 222.859,167.129 224.5,166C 227.167,165.333 229.833,165.333 232.5,166C 233.056,166.383 233.389,166.883 233.5,167.5 Z"/></g>
<g><path style="opacity:0.035" fill="#1c1c1c" d="M 377.5,125.5 C 393.31,134.011 401.31,147.344 401.5,165.5C 402.283,178.633 399.117,190.633 392,201.5C 389.228,204.783 386.061,207.45 382.5,209.5C 379.455,210.279 376.789,211.613 374.5,213.5C 371.061,213.253 367.728,213.586 364.5,214.5C 360.5,214.5 356.5,214.5 352.5,214.5C 352.5,183.833 352.5,153.167 352.5,122.5C 361.027,122.129 369.361,123.129 377.5,125.5 Z M 353.5,123.5 C 353.5,153.5 353.5,183.5 353.5,213.5C 360.557,213.116 367.557,212.283 374.5,211C 384.503,208.33 391.336,202.163 395,192.5C 400.425,177.948 400.759,163.282 396,148.5C 387.997,130.07 373.831,121.737 353.5,123.5 Z"/></g>
<g><path style="opacity:0.654" fill="#909090" d="M 623.5,142.5 C 624.632,145.628 625.465,148.962 626,152.5C 626.825,162.675 626.658,172.675 625.5,182.5C 625.843,169.098 625.177,155.765 623.5,142.5 Z"/></g>
<g><path style="opacity:0.923" fill="#d7d7d7" d="M 579.5,154.5 C 581.045,155.23 581.878,156.563 582,158.5C 583.276,169.735 582.276,180.735 579,191.5C 578.623,192.942 577.79,193.942 576.5,194.5C 580.49,181.432 581.49,168.099 579.5,154.5 Z"/></g>
<g><path style="opacity:0.023" fill="#120804" d="M 203.5,148.5 C 205.727,149.401 206.727,151.067 206.5,153.5C 205.883,153.389 205.383,153.056 205,152.5C 204.456,164.343 203.622,176.009 202.5,187.5C 202.5,176.833 202.5,166.167 202.5,155.5C 202.5,154.167 202.5,152.833 202.5,151.5C 203.404,150.791 203.737,149.791 203.5,148.5 Z"/></g>
<g><path style="opacity:0.247" fill="#2d2d2d" d="M 661.5,169.5 C 663.404,169.738 664.738,170.738 665.5,172.5C 663.596,172.262 662.262,171.262 661.5,169.5 Z"/></g>
<g><path style="opacity:0.549" fill="#381c11" d="M 217.5,170.5 C 218.609,170.557 219.609,170.89 220.5,171.5C 219.789,173.201 218.455,174.201 216.5,174.5C 216.577,173.25 217.244,172.417 218.5,172C 217.944,171.617 217.611,171.117 217.5,170.5 Z"/></g>
<g><path style="opacity:1" fill="#b12323" d="M 233.5,167.5 C 233.5,168.167 233.833,168.5 234.5,168.5C 237.49,170.99 240.323,173.657 243,176.5C 243.881,181.358 243.381,186.024 241.5,190.5C 238.964,191.037 236.964,192.37 235.5,194.5C 230.5,195.833 225.5,195.833 220.5,194.5C 219.522,192.188 217.855,190.522 215.5,189.5C 215.413,184.463 215.746,179.463 216.5,174.5C 218.455,174.201 219.789,173.201 220.5,171.5C 221.167,171.5 221.5,171.167 221.5,170.5C 224.69,166.52 228.69,165.52 233.5,167.5 Z"/></g>
<g><path style="opacity:0.569" fill="#898989" d="M 508.5,153.5 C 507.642,161.132 507.309,168.799 507.5,176.5C 506.346,170.013 506.179,163.346 507,156.5C 507.232,155.263 507.732,154.263 508.5,153.5 Z"/></g>
<g><path style="opacity:0.157" fill="#262626" d="M 665.5,172.5 C 667.027,172.427 668.027,173.094 668.5,174.5C 666.973,174.573 665.973,173.906 665.5,172.5 Z"/></g>
<g><path style="opacity:0.059" fill="#18150a" d="M 242.5,142.5 C 241.528,149.809 240.694,157.142 240,164.5C 239.365,165.966 238.531,167.3 237.5,168.5C 244.978,173.772 247.145,180.772 244,189.5C 243.329,190.252 242.496,190.586 241.5,190.5C 243.381,186.024 243.881,181.358 243,176.5C 240.323,173.657 237.49,170.99 234.5,168.5C 236.173,167.657 237.34,166.324 238,164.5C 238.453,157.307 239.286,150.307 240.5,143.5C 241.167,143.167 241.833,142.833 242.5,142.5 Z"/></g>
<g><path style="opacity:0.659" fill="#575757" d="M 668.5,174.5 C 672.884,175.192 676.55,177.192 679.5,180.5C 675.388,179.278 671.721,177.278 668.5,174.5 Z"/></g>
<g><path style="opacity:0.478" fill="#491210" d="M 31.5,174.5 C 28.0573,176.43 24.3906,177.93 20.5,179C 18.1902,179.497 15.8568,179.663 13.5,179.5C 13.5,179.167 13.5,178.833 13.5,178.5C 19.4801,177.172 25.4801,175.839 31.5,174.5 Z"/></g>
<g><path style="opacity:0.875" fill="#5f1616" d="M 216.5,174.5 C 215.746,179.463 215.413,184.463 215.5,189.5C 212.568,184.262 212.901,179.262 216.5,174.5 Z"/></g>
<g><path style="opacity:0.013" fill="#222222" d="M 503.5,87.5 C 503.5,87.8333 503.5,88.1667 503.5,88.5C 480.111,102.578 466.777,123.245 463.5,150.5C 461.978,155.748 461.311,161.248 461.5,167C 461.41,175.769 462.41,184.269 464.5,192.5C 466.546,204.463 471.046,215.463 478,225.5C 482.046,230.04 485.879,234.707 489.5,239.5C 473.847,226.219 464.347,209.219 461,188.5C 456.594,162.736 460.594,138.402 473,115.5C 480.503,103.16 490.669,93.8267 503.5,87.5 Z"/></g>
<g><path style="opacity:0.835" fill="#909090" d="M 1030.5,178.5 C 1031.5,179.833 1032.5,181.167 1033.5,182.5C 1033.99,184.806 1034.33,187.139 1034.5,189.5C 1032.36,186.2 1031.02,182.533 1030.5,178.5 Z"/></g>
<g><path style="opacity:0.141" fill="#3b3b3b" d="M 679.5,180.5 C 683.847,180.889 687.514,182.556 690.5,185.5C 686.418,184.624 682.751,182.957 679.5,180.5 Z"/></g>
<g><path style="opacity:0.486" fill="#414141" d="M 690.5,185.5 C 695.968,185.907 700.635,187.907 704.5,191.5C 699.533,190.012 694.866,188.012 690.5,185.5 Z"/></g>
<g><path style="opacity:0.039" fill="#121212" d="M 1033.5,182.5 C 1035.16,184.438 1035.83,186.772 1035.5,189.5C 1035.17,189.5 1034.83,189.5 1034.5,189.5C 1034.33,187.139 1033.99,184.806 1033.5,182.5 Z"/></g>
<g><path style="opacity:0.69" fill="#949494" d="M 761.5,181.5 C 762.167,182.167 762.833,182.833 763.5,183.5C 763.5,184.833 763.5,186.167 763.5,187.5C 761.926,185.898 761.259,183.898 761.5,181.5 Z"/></g>
<g><path style="opacity:0.133" fill="#2a2a2a" d="M 903.5,90.5 C 904.657,98.9901 904.824,107.657 904,116.5C 902.5,120.667 899.667,123.5 895.5,125C 875.503,125.5 855.503,125.667 835.5,125.5C 835.5,131.167 835.5,136.833 835.5,142.5C 852.903,142.042 870.236,142.542 887.5,144C 890.333,145.5 892.5,147.667 894,150.5C 894.667,160.167 894.667,169.833 894,179.5C 892.108,183.058 889.275,185.558 885.5,187C 868.837,187.5 852.17,187.667 835.5,187.5C 835.5,195.5 835.5,203.5 835.5,211.5C 855.169,211.333 874.836,211.5 894.5,212C 898.319,213.32 900.985,215.82 902.5,219.5C 901.5,218.833 900.5,218.167 899.5,217.5C 898.341,215.75 896.674,214.75 894.5,214.5C 874.674,213.503 854.674,213.17 834.5,213.5C 834.5,204.5 834.5,195.5 834.5,186.5C 851.17,186.667 867.837,186.5 884.5,186C 885.056,185.617 885.389,185.117 885.5,184.5C 888.785,183.05 891.285,180.717 893,177.5C 893.667,168.833 893.667,160.167 893,151.5C 891.338,148.423 888.838,146.423 885.5,145.5C 868.5,144.833 851.5,144.167 834.5,143.5C 834.5,137.167 834.5,130.833 834.5,124.5C 854.007,124.83 873.341,124.497 892.5,123.5C 893.833,123.167 895.167,122.833 896.5,122.5C 899.621,121.712 901.288,119.712 901.5,116.5C 902.338,116.158 902.672,115.492 902.5,114.5C 903.492,106.684 903.826,98.6841 903.5,90.5 Z"/></g>
<g><path style="opacity:0.737" fill="#431210" d="M 215.5,189.5 C 217.855,190.522 219.522,192.188 220.5,194.5C 219.761,194.631 219.094,194.464 218.5,194C 217.252,192.6 216.252,191.1 215.5,189.5 Z"/></g>
<g><path style="opacity:0.141" fill="#666666" d="M 625.5,182.5 C 625.917,186.817 625.25,190.817 623.5,194.5C 623.344,190.236 624.011,186.236 625.5,182.5 Z"/></g>
<g><path style="opacity:0.282" fill="#290c08" d="M 241.5,190.5 C 240.198,192.822 238.198,194.155 235.5,194.5C 236.964,192.37 238.964,191.037 241.5,190.5 Z"/></g>
<g><path style="opacity:0.62" fill="#515151" d="M 704.5,191.5 C 709.485,191.306 713.151,193.306 715.5,197.5C 711.665,195.75 707.999,193.75 704.5,191.5 Z"/></g>
<g><path style="opacity:0.063" fill="#1c1c1c" d="M 513.5,143.5 C 504.279,167.342 507.945,188.842 524.5,208C 529.095,210.977 534.095,212.977 539.5,214C 555.453,215.693 567.12,209.526 574.5,195.5C 574.5,196.167 574.5,196.833 574.5,197.5C 570.33,205.674 563.997,211.341 555.5,214.5C 548.863,215.276 542.196,215.609 535.5,215.5C 528.215,213.73 522.381,209.73 518,203.5C 512.53,195.303 509.03,186.303 507.5,176.5C 507.309,168.799 507.642,161.132 508.5,153.5C 509.047,150.298 510.047,147.298 511.5,144.5C 512.167,144.167 512.833,143.833 513.5,143.5 Z"/></g>
<g><path style="opacity:0.439" fill="#7e7e7e" d="M 623.5,194.5 C 623.741,196.898 623.074,198.898 621.5,200.5C 621.259,198.102 621.926,196.102 623.5,194.5 Z"/></g>
<g><path style="opacity:0.634" fill="#979797" d="M 763.5,188.5 C 764.268,189.263 764.768,190.263 765,191.5C 765.821,198.346 765.654,205.013 764.5,211.5C 764.691,203.799 764.358,196.132 763.5,188.5 Z"/></g>
<g><path style="opacity:0.745" fill="#989898" d="M 1034.5,189.5 C 1034.83,189.5 1035.17,189.5 1035.5,189.5C 1035.74,193.835 1036.07,198.169 1036.5,202.5C 1036.46,206.74 1035.79,210.74 1034.5,214.5C 1034.5,206.167 1034.5,197.833 1034.5,189.5 Z"/></g>
<g><path style="opacity:0.122" fill="#282828" d="M 715.5,197.5 C 717.411,197.574 718.578,198.574 719,200.5C 720.407,208.128 717.241,212.961 709.5,215C 702.5,215.667 695.5,215.667 688.5,215C 679.86,212.179 671.86,208.012 664.5,202.5C 659.855,200.897 655.522,201.397 651.5,204C 649.024,207.145 646.69,210.312 644.5,213.5C 647.3,202.104 654.3,197.938 665.5,201C 671.556,205.696 678.223,209.363 685.5,212C 695.874,215.783 705.874,215.116 715.5,210C 719.435,205.837 719.435,201.67 715.5,197.5 Z"/></g>
<g><path style="opacity:0.211" fill="#250d0b" d="M 48.5,206.5 C 49.1667,207.5 49.8333,208.5 50.5,209.5C 50.8333,218.833 51.1667,228.167 51.5,237.5C 49.0602,227.448 48.0602,217.115 48.5,206.5 Z"/></g>
<g><path style="opacity:0.776" fill="#989898" d="M 382.5,209.5 C 380.469,211.755 377.802,213.088 374.5,213.5C 376.789,211.613 379.455,210.279 382.5,209.5 Z"/></g>
<g><path style="opacity:0.913" fill="#c7c7c7" d="M 885.5,184.5 C 885.389,185.117 885.056,185.617 884.5,186C 867.837,186.5 851.17,186.667 834.5,186.5C 834.5,195.5 834.5,204.5 834.5,213.5C 854.674,213.17 874.674,213.503 894.5,214.5C 873.924,214.827 853.424,214.493 833,213.5C 832.182,203.922 832.349,194.422 833.5,185C 850.83,184.5 868.163,184.333 885.5,184.5 Z"/></g>
<g><path style="opacity:0.451" fill="#8c8c8c" d="M 555.5,214.5 C 555.082,215.222 554.416,215.722 553.5,216C 547.319,216.819 541.319,216.653 535.5,215.5C 542.196,215.609 548.863,215.276 555.5,214.5 Z"/></g>
<g><path style="opacity:0.114" fill="#222222" d="M 644.5,213.5 C 644.25,215.674 643.25,217.341 641.5,218.5C 641.75,216.326 642.75,214.659 644.5,213.5 Z"/></g>
<g><path style="opacity:0.455" fill="#919191" d="M 962.5,214.5 C 969.167,215.833 975.833,215.833 982.5,214.5C 979.913,215.816 976.913,216.483 973.5,216.5C 970.5,216.333 967.5,216.167 964.5,216C 963.584,215.722 962.918,215.222 962.5,214.5 Z"/></g>
<g><path style="opacity:0.051" fill="#292929" d="M 980.5,189.5 C 984.324,190.335 987.49,192.335 990,195.5C 993.262,204.229 990.762,210.562 982.5,214.5C 975.833,215.833 969.167,215.833 962.5,214.5C 959.575,214.54 956.909,213.707 954.5,212C 948.318,205.494 940.984,203.827 932.5,207C 929.771,211.918 926.771,216.752 923.5,221.5C 922.642,224.62 921.642,227.62 920.5,230.5C 919.366,232.966 919.199,235.633 920,238.5C 920.383,239.056 920.883,239.389 921.5,239.5C 922.117,241.229 923.117,242.729 924.5,244C 926.747,245.277 928.747,246.777 930.5,248.5C 919,245.162 915.166,237.828 919,226.5C 922,220.833 925,215.167 928,209.5C 932.884,203.78 939.05,201.947 946.5,204C 956.741,212.75 968.408,215.75 981.5,213C 989.154,209.037 990.987,203.204 987,195.5C 984.937,193.266 982.771,191.266 980.5,189.5 Z"/></g>
<g><path style="opacity:0.118" fill="#222222" d="M 763.5,183.5 C 772.664,214.019 763.33,237.185 735.5,253C 716.179,260.856 696.513,262.356 676.5,257.5C 679.167,257.5 681.833,257.5 684.5,257.5C 694.107,258.805 703.773,258.805 713.5,257.5C 733.869,254.996 749.202,244.996 759.5,227.5C 761.785,224.665 763.118,221.332 763.5,217.5C 763.833,215.5 764.167,213.5 764.5,211.5C 765.654,205.013 765.821,198.346 765,191.5C 764.768,190.263 764.268,189.263 763.5,188.5C 763.5,188.167 763.5,187.833 763.5,187.5C 763.5,186.167 763.5,184.833 763.5,183.5 Z"/></g>
<g><path style="opacity:0.106" fill="#212121" d="M 641.5,218.5 C 641.167,219.833 640.833,221.167 640.5,222.5C 639.833,222.833 639.167,223.167 638.5,223.5C 638.75,221.326 639.75,219.659 641.5,218.5 Z"/></g>
<g><path style="opacity:0.667" fill="#a1a1a1" d="M 763.5,217.5 C 763.118,221.332 761.785,224.665 759.5,227.5C 760.428,224.546 761.261,221.546 762,218.5C 762.383,217.944 762.883,217.611 763.5,217.5 Z"/></g>
<g><path style="opacity:0.807" fill="#a3a3a3" d="M 899.5,217.5 C 900.5,218.167 901.5,218.833 902.5,219.5C 903.833,229.167 903.833,238.833 902.5,248.5C 902.167,248.5 901.833,248.5 901.5,248.5C 901.666,239.161 901.5,229.827 901,220.5C 899.961,219.756 899.461,218.756 899.5,217.5 Z"/></g>
<g><path style="opacity:0.098" fill="#171717" d="M 902.5,219.5 C 903.222,219.918 903.722,220.584 904,221.5C 904.667,229.833 904.667,238.167 904,246.5C 903.768,247.737 903.268,248.737 902.5,249.5C 902.5,249.167 902.5,248.833 902.5,248.5C 903.833,238.833 903.833,229.167 902.5,219.5 Z"/></g>
<g><path style="opacity:1" fill="#dd4442" d="M 104.5,104.5 C 107.572,104.183 110.572,104.516 113.5,105.5C 115.015,107.841 117.182,109.174 120,109.5C 127.172,108.589 134.339,108.089 141.5,108C 141.167,108.333 140.833,108.667 140.5,109C 141.191,110.067 141.691,111.234 142,112.5C 143.609,113.147 145.109,113.98 146.5,115C 137.324,115.17 128.324,115.67 119.5,116.5C 119.5,116.833 119.5,117.167 119.5,117.5C 112.492,117.334 105.492,117.5 98.5,118C 96.6183,118.198 94.9516,118.698 93.5,119.5C 88.0079,120.575 82.6746,122.242 77.5,124.5C 73.8776,124.322 70.5443,124.989 67.5,126.5C 67.0269,127.906 66.0269,128.573 64.5,128.5C 62.5257,138.111 61.859,148.111 62.5,158.5C 63.791,158.737 64.791,158.404 65.5,157.5C 73.3159,149.846 80.6492,141.68 87.5,133C 92.6702,129.21 97.1702,129.71 101,134.5C 101.267,142.247 102.1,149.914 103.5,157.5C 106.518,157.335 109.518,157.502 112.5,158C 115.925,161.749 116.259,165.582 113.5,169.5C 108.562,170.392 103.562,170.726 98.5,170.5C 93.8836,166.009 90.5503,160.676 88.5,154.5C 82.511,158.823 77.1777,163.823 72.5,169.5C 71.1502,170.95 69.4835,171.617 67.5,171.5C 65.8333,171.5 64.1667,171.5 62.5,171.5C 61.8338,177.157 61.5005,182.99 61.5,189C 61.5539,200.874 62.2206,212.707 63.5,224.5C 63.3333,228.167 63.1667,231.833 63,235.5C 61.7453,236.211 60.5786,237.044 59.5,238C 61.5767,238.192 63.5767,238.692 65.5,239.5C 66.6405,240.425 66.6405,241.259 65.5,242C 66.5634,243.188 67.8967,243.688 69.5,243.5C 69.5,244.5 69.5,245.5 69.5,246.5C 70.5,246.5 71.5,246.5 72.5,246.5C 83.2228,255.357 95.5561,260.69 109.5,262.5C 127.407,256.806 144.74,249.64 161.5,241C 167.623,237.04 173.29,232.54 178.5,227.5C 180.864,224.301 183.03,220.968 185,217.5C 185.363,203.128 186.196,188.795 187.5,174.5C 183.808,175.029 180.642,174.029 178,171.5C 175.817,163.467 171.817,156.467 166,150.5C 163.873,152.114 162.373,154.114 161.5,156.5C 158.527,158.806 155.86,161.473 153.5,164.5C 151.109,167.917 147.775,169.25 143.5,168.5C 133.983,167.863 131.983,163.53 137.5,155.5C 139.989,155.702 142.323,155.202 144.5,154C 146.431,151.054 148.764,148.554 151.5,146.5C 153.822,145.198 155.155,143.198 155.5,140.5C 156.547,137.404 157.88,134.404 159.5,131.5C 162.338,129.898 165.338,129.398 168.5,130C 173.853,133.862 177.353,139.028 179,145.5C 181.717,148.71 184.217,152.044 186.5,155.5C 186.775,157.842 187.608,157.842 189,155.5C 191.001,149.322 191.834,142.988 191.5,136.5C 192.434,135.432 192.768,134.099 192.5,132.5C 193.833,132.5 195.167,132.5 196.5,132.5C 196.868,136.122 196.868,139.622 196.5,143C 198.047,144.849 199.881,146.349 202,147.5C 202.49,148.793 202.657,150.127 202.5,151.5C 202.5,152.833 202.5,154.167 202.5,155.5C 201.688,176.369 200.521,197.369 199,218.5C 196.334,225.165 193.167,231.499 189.5,237.5C 184.239,240.758 179.572,244.758 175.5,249.5C 170.008,251.427 165.008,254.093 160.5,257.5C 157.911,257.461 155.911,258.461 154.5,260.5C 152.95,261.441 151.284,262.107 149.5,262.5C 147.62,262.229 146.287,262.896 145.5,264.5C 142.248,266.588 138.582,267.921 134.5,268.5C 132.847,268.66 131.514,269.326 130.5,270.5C 128.064,271.871 125.397,272.871 122.5,273.5C 120.62,273.229 119.287,273.896 118.5,275.5C 117.609,276.11 116.609,276.443 115.5,276.5C 111.176,276.073 106.842,275.739 102.5,275.5C 102.167,275.5 101.833,275.5 101.5,275.5C 97.5956,274.508 93.5956,273.508 89.5,272.5C 89.1667,272.5 88.8333,272.5 88.5,272.5C 87.4863,271.326 86.153,270.66 84.5,270.5C 82.5853,270.784 80.9187,270.451 79.5,269.5C 78.7377,267.738 77.4044,266.738 75.5,266.5C 74.5084,266.672 73.8417,266.338 73.5,265.5C 73.5,264.167 72.8333,263.5 71.5,263.5C 70.5084,263.672 69.8417,263.338 69.5,262.5C 68.2878,259.893 66.2878,258.226 63.5,257.5C 63.0432,255.227 61.7099,253.894 59.5,253.5C 58.1667,253.5 57.5,252.833 57.5,251.5C 55.4893,246.719 53.4893,242.052 51.5,237.5C 51.1667,228.167 50.8333,218.833 50.5,209.5C 49.9046,185.344 49.238,161.344 48.5,137.5C 49.0722,135.745 49.9055,134.078 51,132.5C 51.4955,130.527 51.6621,128.527 51.5,126.5C 50.741,124.564 49.741,122.731 48.5,121C 48.7591,119.739 49.4258,118.739 50.5,118C 53.5,117.667 56.5,117.333 59.5,117C 68.4003,113.064 77.7337,110.398 87.5,109C 88.8333,108.333 89.8333,107.333 90.5,106C 95.3514,105.826 100.018,105.326 104.5,104.5 Z"/></g>
<g><path style="opacity:1" fill="#d262d5" d="M 90.5,218.5 C 89.8536,222.753 91.5203,225.586 95.5,227C 116.497,227.5 137.497,227.667 158.5,227.5C 136.671,228.663 114.671,228.83 92.5,228C 91.3333,227.5 90.5,226.667 90,225.5C 89.2042,222.961 89.3709,220.628 90.5,218.5 Z"/></g>
<g><path style="opacity:1" fill="#d446de" d="M 158.5,227.5 C 137.497,227.667 116.497,227.5 95.5,227C 91.5203,225.586 89.8536,222.753 90.5,218.5C 90.7214,217.265 91.3881,216.265 92.5,215.5C 114.826,214.334 137.159,214.167 159.5,215C 163.213,216.691 164.379,219.525 163,223.5C 161.951,225.384 160.451,226.718 158.5,227.5 Z"/></g>
<g><path style="opacity:1" fill="#626fcd" d="M 104.5,204.5 C 109.833,204.5 115.167,204.5 120.5,204.5C 120.389,205.117 120.056,205.617 119.5,206C 114.225,206.901 109.225,206.401 104.5,204.5 Z"/></g>
<g><path style="opacity:1" fill="#768bd7" d="M 100.5,187.5 C 100.59,190.152 99.9238,192.485 98.5,194.5C 98.4095,191.848 99.0762,189.515 100.5,187.5 Z"/></g>
<g><path style="opacity:1" fill="#455dde" d="M 120.5,204.5 C 115.167,204.5 109.833,204.5 104.5,204.5C 100.115,202.751 98.1151,199.418 98.5,194.5C 99.9238,192.485 100.59,190.152 100.5,187.5C 103.06,182.204 107.394,179.371 113.5,179C 133.205,174.946 138.539,181.779 129.5,199.5C 127.203,202.471 124.203,204.138 120.5,204.5 Z"/></g>
<g><path style="opacity:1" fill="#e7b4b3" d="M 62.5,171.5 C 64.1667,171.5 65.8333,171.5 67.5,171.5C 66.4324,172.434 65.099,172.768 63.5,172.5C 63.5,183.5 63.5,194.5 63.5,205.5C 62.5052,194.346 62.1719,183.012 62.5,171.5 Z"/></g>
<g><path style="opacity:1" fill="#e59392" d="M 113.5,169.5 C 113.389,170.117 113.056,170.617 112.5,171C 107.648,171.815 102.981,171.648 98.5,170.5C 103.562,170.726 108.562,170.392 113.5,169.5 Z"/></g>
<g><path style="opacity:1" fill="#d96969" d="M 137.5,155.5 C 131.983,163.53 133.983,167.863 143.5,168.5C 138.788,170.645 135.288,169.311 133,164.5C 131.422,159.843 132.922,156.843 137.5,155.5 Z"/></g>
<g><path style="opacity:1" fill="#e8b4b3" d="M 161.5,156.5 C 159.833,160.167 157.167,162.833 153.5,164.5C 155.86,161.473 158.527,158.806 161.5,156.5 Z"/></g>
<g><path style="opacity:1" fill="#dc8281" d="M 191.5,136.5 C 191.834,142.988 191.001,149.322 189,155.5C 187.608,157.842 186.775,157.842 186.5,155.5C 187.117,155.389 187.617,155.056 188,154.5C 188.917,148.318 190.084,142.318 191.5,136.5 Z"/></g>
<g><path style="opacity:1" fill="#de8b86" d="M 155.5,140.5 C 155.155,143.198 153.822,145.198 151.5,146.5C 152.34,144.147 153.674,142.147 155.5,140.5 Z"/></g>
<g><path style="opacity:0.333" fill="#4b4b4b" d="M 640.5,222.5 C 639.928,224.255 639.094,225.922 638,227.5C 637.333,229.833 637.333,232.167 638,234.5C 639.581,237.916 641.748,240.916 644.5,243.5C 637.491,240.016 634.991,234.349 637,226.5C 637.232,225.263 637.732,224.263 638.5,223.5C 639.167,223.167 639.833,222.833 640.5,222.5 Z"/></g>
<g><path style="opacity:0.071" fill="#292929" d="M 1035.5,189.5 C 1040.89,226.647 1025.23,249.814 988.5,259C 971.738,261.582 955.405,259.915 939.5,254C 936.102,252.643 933.102,250.81 930.5,248.5C 947.558,256.744 965.558,259.91 984.5,258C 1010.35,253.982 1027.01,239.482 1034.5,214.5C 1035.79,210.74 1036.46,206.74 1036.5,202.5C 1036.07,198.169 1035.74,193.835 1035.5,189.5 Z"/></g>
<g><path style="opacity:0.008" fill="#2e110f" d="M 202.5,155.5 C 202.5,166.167 202.5,176.833 202.5,187.5C 202.082,199.212 201.249,210.878 200,222.5C 198.025,226.632 195.858,230.632 193.5,234.5C 192.717,236.288 191.384,237.288 189.5,237.5C 193.167,231.499 196.334,225.165 199,218.5C 200.521,197.369 201.688,176.369 202.5,155.5 Z"/></g>
<g><path style="opacity:0.537" fill="#8f8f8f" d="M 920.5,230.5 C 920.368,233.57 920.701,236.57 921.5,239.5C 920.883,239.389 920.383,239.056 920,238.5C 919.199,235.633 919.366,232.966 920.5,230.5 Z"/></g>
<g><path style="opacity:1" fill="#dc5655" d="M 62.5,171.5 C 62.1719,183.012 62.5052,194.346 63.5,205.5C 64.5003,216.839 65.5003,228.172 66.5,239.5C 67.8221,239.33 68.9887,239.663 70,240.5C 70.5725,242.641 71.4058,244.641 72.5,246.5C 71.5,246.5 70.5,246.5 69.5,246.5C 69.5,245.5 69.5,244.5 69.5,243.5C 67.8967,243.688 66.5634,243.188 65.5,242C 66.6405,241.259 66.6405,240.425 65.5,239.5C 63.5767,238.692 61.5767,238.192 59.5,238C 60.5786,237.044 61.7453,236.211 63,235.5C 63.1667,231.833 63.3333,228.167 63.5,224.5C 62.2206,212.707 61.5539,200.874 61.5,189C 61.5005,182.99 61.8338,177.157 62.5,171.5 Z"/></g>
<g><path style="opacity:0.031" fill="#292929" d="M 446.5,159.5 C 447.49,165.31 447.823,171.31 447.5,177.5C 445.543,215.946 426.543,241.78 390.5,255C 385.937,256.475 381.27,257.308 376.5,257.5C 376.5,257.167 376.5,256.833 376.5,256.5C 411.958,250.368 434.291,230.035 443.5,195.5C 445.051,191.1 445.884,186.434 446,181.5C 446.5,174.174 446.666,166.841 446.5,159.5 Z"/></g>
<g><path style="opacity:0.286" fill="#331311" d="M 51.5,237.5 C 53.4893,242.052 55.4893,246.719 57.5,251.5C 53.7715,247.67 51.7715,243.003 51.5,237.5 Z"/></g>
<g><path style="opacity:0.161" fill="#313131" d="M 619.5,207.5 C 618.629,210.112 617.963,212.779 617.5,215.5C 609.911,229.835 599.245,241.335 585.5,250C 580.227,253.257 574.561,255.423 568.5,256.5C 566.833,256.5 565.167,256.5 563.5,256.5C 575.456,253.189 586.456,247.689 596.5,240C 606.044,230.382 613.71,219.548 619.5,207.5 Z"/></g>
<g><path style="opacity:0.118" fill="#242424" d="M 489.5,239.5 C 492.089,240.419 494.089,242.086 495.5,244.5C 492.911,243.581 490.911,241.914 489.5,239.5 Z"/></g>
<g><path style="opacity:0.027" fill="#210e0c" d="M 189.5,237.5 C 186.782,240.724 183.782,243.891 180.5,247C 178.922,248.094 177.255,248.928 175.5,249.5C 179.572,244.758 184.239,240.758 189.5,237.5 Z"/></g>
<g><path style="opacity:0.275" fill="#3b3b3b" d="M 644.5,243.5 C 646.027,243.427 647.027,244.094 647.5,245.5C 645.973,245.573 644.973,244.906 644.5,243.5 Z"/></g>
<g><path style="opacity:0.204" fill="#323232" d="M 647.5,245.5 C 649.027,245.427 650.027,246.094 650.5,247.5C 648.973,247.573 647.973,246.906 647.5,245.5 Z"/></g>
<g><path style="opacity:0.071" fill="#313131" d="M 650.5,247.5 C 651.873,247.343 653.207,247.51 654.5,248C 657.732,250.689 661.399,252.523 665.5,253.5C 666.5,254.167 667.5,254.833 668.5,255.5C 661.719,254.44 655.719,251.773 650.5,247.5 Z"/></g>
<g><path style="opacity:0.024" fill="#281110" d="M 175.5,249.5 C 174.426,250.885 173.093,252.051 171.5,253C 168.059,255.054 164.392,256.554 160.5,257.5C 165.008,254.093 170.008,251.427 175.5,249.5 Z"/></g>
<g><path style="opacity:0.82" fill="#979797" d="M 513.5,253.5 C 517.162,253.723 520.495,254.723 523.5,256.5C 519.838,256.277 516.505,255.277 513.5,253.5 Z"/></g>
<g><path style="opacity:0.792" fill="#999999" d="M 665.5,253.5 C 668.152,253.41 670.485,254.076 672.5,255.5C 671.167,255.5 669.833,255.5 668.5,255.5C 667.5,254.833 666.5,254.167 665.5,253.5 Z"/></g>
<g><path style="opacity:0.184" fill="#290f0c" d="M 59.5,253.5 C 61.7099,253.894 63.0432,255.227 63.5,257.5C 61.2901,257.106 59.9568,255.773 59.5,253.5 Z"/></g>
<g><path style="opacity:0.008" fill="#131313" d="M 495.5,244.5 C 501.195,248.014 507.195,251.014 513.5,253.5C 516.505,255.277 519.838,256.277 523.5,256.5C 524.833,257.167 526.167,257.833 527.5,258.5C 515.322,257.073 504.655,252.406 495.5,244.5 Z"/></g>
<g><path style="opacity:0.255" fill="#3c3c3c" d="M 901.5,248.5 C 901.833,248.5 902.167,248.5 902.5,248.5C 902.5,248.833 902.5,249.167 902.5,249.5C 900.837,253.504 897.837,255.837 893.5,256.5C 861.662,256.832 829.996,256.498 798.5,255.5C 830.168,255.667 861.835,255.5 893.5,255C 896.961,253.695 899.628,251.529 901.5,248.5 Z"/></g>
<g><path style="opacity:0.751" fill="#a5a5a5" d="M 317.5,255.5 C 337.157,256.252 356.824,256.585 376.5,256.5C 376.5,256.833 376.5,257.167 376.5,257.5C 360.167,257.5 343.833,257.5 327.5,257.5C 324.167,256.833 320.833,256.167 317.5,255.5 Z"/></g>
<g><path style="opacity:0.015" fill="#0c0c0c" d="M 668.5,255.5 C 669.833,255.5 671.167,255.5 672.5,255.5C 673.833,256.167 675.167,256.833 676.5,257.5C 673.505,257.706 670.838,257.04 668.5,255.5 Z"/></g>
<g><path style="opacity:0.827" fill="#b2b2b2" d="M 672.5,255.5 C 676.79,255.198 680.79,255.864 684.5,257.5C 681.833,257.5 679.167,257.5 676.5,257.5C 675.167,256.833 673.833,256.167 672.5,255.5 Z"/></g>
<g><path style="opacity:0.012" fill="#030303" d="M 795.5,255.5 C 795.833,255.5 796.167,255.5 796.5,255.5C 797.167,255.5 797.833,255.5 798.5,255.5C 829.996,256.498 861.662,256.832 893.5,256.5C 861.669,257.664 829.669,257.831 797.5,257C 796.584,256.722 795.918,256.222 795.5,255.5 Z"/></g>
<g><path style="opacity:0.133" fill="#220e0d" d="M 160.5,257.5 C 158.819,259.008 156.819,260.008 154.5,260.5C 155.911,258.461 157.911,257.461 160.5,257.5 Z"/></g>
<g><path style="opacity:0.771" fill="#aaaaaa" d="M 523.5,256.5 C 536.833,257.833 550.167,257.833 563.5,256.5C 561.708,257.309 559.708,257.809 557.5,258C 547.506,258.5 537.506,258.666 527.5,258.5C 526.167,257.833 524.833,257.167 523.5,256.5 Z"/></g>
<g><path style="opacity:0.008" fill="#121212" d="M 327.5,257.5 C 343.833,257.5 360.167,257.5 376.5,257.5C 360.171,260.09 343.838,260.09 327.5,257.5 Z"/></g>
<g><path style="opacity:0.013" fill="#131313" d="M 563.5,256.5 C 565.167,256.5 566.833,256.5 568.5,256.5C 554.998,260.8 541.331,261.467 527.5,258.5C 537.506,258.666 547.506,258.5 557.5,258C 559.708,257.809 561.708,257.309 563.5,256.5 Z"/></g>
<g><path style="opacity:0.114" fill="#250f0d" d="M 63.5,257.5 C 66.2878,258.226 68.2878,259.893 69.5,262.5C 67.1217,261.308 65.1217,259.641 63.5,257.5 Z"/></g>
<g><path style="opacity:0.004" fill="#230d0a" d="M 149.5,262.5 C 148.486,263.674 147.153,264.34 145.5,264.5C 146.287,262.896 147.62,262.229 149.5,262.5 Z"/></g>
<g><path style="opacity:0.231" fill="#321210" d="M 71.5,263.5 C 72.8333,263.5 73.5,264.167 73.5,265.5C 72.1667,265.5 71.5,264.833 71.5,263.5 Z"/></g>
<g><path style="opacity:0.129" fill="#1f0a08" d="M 75.5,266.5 C 77.4044,266.738 78.7377,267.738 79.5,269.5C 77.5956,269.262 76.2623,268.262 75.5,266.5 Z"/></g>
<g><path style="opacity:0.043" fill="#240e0b" d="M 134.5,268.5 C 133.713,270.104 132.38,270.771 130.5,270.5C 131.514,269.326 132.847,268.66 134.5,268.5 Z"/></g>
<g><path style="opacity:0.161" fill="#321211" d="M 84.5,270.5 C 86.153,270.66 87.4863,271.326 88.5,272.5C 86.6203,272.771 85.287,272.104 84.5,270.5 Z"/></g>
<g><path style="opacity:0.957" fill="#581c1c" d="M 89.5,272.5 C 93.5956,273.508 97.5956,274.508 101.5,275.5C 96.9681,276.114 92.9681,275.114 89.5,272.5 Z"/></g>
<g><path style="opacity:0.047" fill="#371412" d="M 122.5,273.5 C 121.486,274.674 120.153,275.34 118.5,275.5C 119.287,273.896 120.62,273.229 122.5,273.5 Z"/></g>
<g><path style="opacity:0.297" fill="#461818" d="M 102.5,275.5 C 106.842,275.739 111.176,276.073 115.5,276.5C 111.106,277.59 106.773,277.256 102.5,275.5 Z"/></g>
</svg>
