<?xml version="1.0" encoding="UTF-8"?>
<!-- Generator: visioncortex VTracer 0.6.2 -->
<svg version="1.1" xmlns="http://www.w3.org/2000/svg" width="1280" height="720">
<path d="M0 0 C0 0.66 0 1.32 0 2 C0.91523438 2.13277344 1.83046875 2.26554687 2.7734375 2.40234375 C3.96195313 2.57894531 5.15046875 2.75554687 6.375 2.9375 C7.55835938 3.11152344 8.74171875 3.28554687 9.9609375 3.46484375 C13 4 13 4 15 5 C16.49579604 5.20092783 17.99696724 5.36336066 19.5 5.5 C23.77777778 5.88888889 23.77777778 5.88888889 26 7 C27.99551782 7.35919321 29.99548879 7.69496569 32 8 C32 8.66 32 9.32 32 10 C32.7425 10.061875 33.485 10.12375 34.25 10.1875 C38.80826298 11.53425952 40.46102141 15.19153212 43 19 C43.52562592 23.55542464 43.19144494 27.42826918 40.75390625 31.421875 C36.80441132 34.97554082 31.05725002 35.82338547 26 37 C28.92668555 44.06720382 31.04426441 47.71899265 38 51 C38.66 51.99 39.32 52.98 40 54 C42.56282742 54.72965366 42.56282742 54.72965366 45 55 C45 55.66 45 56.32 45 57 C45.56203125 57.268125 46.1240625 57.53625 46.703125 57.8125 C49.15550646 59.0803979 51.43927683 60.48972342 53.75 62 C54.94882812 62.7734375 54.94882812 62.7734375 56.171875 63.5625 C56.77515625 64.036875 57.3784375 64.51125 58 65 C58 65.66 58 66.32 58 67 C58.99 67.33 59.98 67.66 61 68 C61.99 69.485 61.99 69.485 63 71 C64.94832935 72.00168531 64.94832935 72.00168531 67.125 72.6875 C67.84945313 72.93886719 68.57390625 73.19023437 69.3203125 73.44921875 C69.87460937 73.63097656 70.42890625 73.81273437 71 74 C71 74.66 71 75.32 71 76 C72.051875 76.144375 73.10375 76.28875 74.1875 76.4375 C77.15460549 76.87526966 80.06794366 77.37804866 83 78 C84.70961461 73.9723944 85.94432621 69.89856986 87.125 65.6875 C87.47820312 64.43324219 87.83140625 63.17898437 88.1953125 61.88671875 C88.46085937 60.93410156 88.72640625 59.98148438 89 59 C89.66 59 90.32 59 91 59 C91.12761719 58.42636719 91.25523437 57.85273438 91.38671875 57.26171875 C92.00779494 54.97125307 92.80205816 52.95817928 93.8125 50.8125 C94.12832031 50.11769531 94.44414062 49.42289063 94.76953125 48.70703125 C96.3400766 46.52821119 97.42771193 46.5003075 100 46 C100.66 45.34 101.32 44.68 102 44 C103.64991582 43.29289322 105.31562256 42.62056011 107 42 C107 41.34 107 40.68 107 40 C111.8821898 37.88878279 116.10428903 37.85730305 121.31640625 38.02734375 C124.00796766 37.99991882 126.38437245 37.61015543 129 37 C129 36.34 129 35.68 129 35 C132.10489399 35.10991566 135.20857994 35.24053415 138.3125 35.375 C139.19357422 35.4059375 140.07464844 35.436875 140.98242188 35.46875 C141.82998047 35.50742188 142.67753906 35.54609375 143.55078125 35.5859375 C144.33106689 35.6173584 145.11135254 35.6487793 145.9152832 35.68115234 C148 36 148 36 151 38 C152.32 38 153.64 38 155 38 C155 38.66 155 39.32 155 40 C155.721875 40.226875 156.44375 40.45375 157.1875 40.6875 C166.00593332 44.80276888 170.28720441 54.77736829 173.5 63.4375 C174.09361328 65.07138672 174.09361328 65.07138672 174.69921875 66.73828125 C176.38871635 70.97470918 178.55177639 74.83349443 180.86328125 78.7578125 C182 81 182 81 182 84 C182.61488281 84.24621094 183.22976563 84.49242187 183.86328125 84.74609375 C187.67025934 86.98017047 188.69091643 90.94121457 190 95 C190.55221109 98.0303154 190.80423762 100.91674247 191 104 C191.33 104 191.66 104 192 104 C192.91295704 109.44045553 193.14827121 114.68157951 193.14526367 120.19238281 C193.15030159 121.53268051 193.15030159 121.53268051 193.15544128 122.90005493 C193.16489104 125.83442599 193.16689081 128.76873971 193.16796875 131.703125 C193.17118348 133.74859643 193.17454772 135.79406763 193.17805481 137.83953857 C193.18402965 142.11633844 193.1858962 146.39311813 193.18530273 150.66992188 C193.18520074 156.15678741 193.1988982 161.64352462 193.21607494 167.13035965 C193.22717212 171.34931029 193.22922271 175.56822955 193.22869301 179.7871933 C193.22987483 181.81104732 193.23430788 183.83490211 193.24202538 185.85874176 C193.2517871 188.68098602 193.24896331 191.50294681 193.24291992 194.32519531 C193.24853943 195.16368011 193.25415894 196.00216492 193.25994873 196.86605835 C193.2386589 200.76472975 193.21270292 202.68094563 191 206 C190.55314993 207.98223551 190.55314993 207.98223551 190.37744141 210.17675781 C190.29039948 211.01482971 190.20335754 211.85290161 190.11367798 212.71636963 C190.02717987 213.6194989 189.94068176 214.52262817 189.8515625 215.453125 C189.64886159 217.37113862 189.44572267 219.28910598 189.2421875 221.20703125 C188.93133455 224.22583502 188.62549487 227.24497393 188.328125 230.26513672 C188.03747266 233.18361132 187.72694495 236.09946156 187.4140625 239.015625 C187.33161285 239.91065735 187.24916321 240.8056897 187.16421509 241.72784424 C186.69622367 245.99273101 186.09788644 249.24178662 183.84912109 252.93652344 C183.23891113 253.9474707 182.62870117 254.95841797 182 256 C182.33 256.99 182.66 257.98 183 259 C183.66 259.165 184.32 259.33 185 259.5 C185.66 259.665 186.32 259.83 187 260 C187.33 260.99 187.66 261.98 188 263 C189.2065625 264.1446875 189.2065625 264.1446875 190.4375 265.3125 C195.2266273 270.33524327 195.44781051 275.68264871 195.3203125 282.3671875 C194.83773121 286.3337703 193.74123267 288.10647663 191 291 C188.875 291.625 188.875 291.625 187 292 C186.71125 292.639375 186.4225 293.27875 186.125 293.9375 C185 296 185 296 182.625 297.109375 C177.6743758 298.32569215 172.95386422 298.32918484 167.875 298.3125 C166.88628906 298.32861328 165.89757812 298.34472656 164.87890625 298.36132812 C163.92628906 298.36197266 162.97367187 298.36261719 161.9921875 298.36328125 C160.69837158 298.36775269 160.69837158 298.36775269 159.37841797 298.37231445 C156.49798829 297.92141574 155.10024846 296.99362607 153 295 C153 294.34 153 293.68 153 293 C152.401875 292.79375 151.80375 292.5875 151.1875 292.375 C147.97970932 290.35867443 147.31296925 288.56377369 146 285 C144.31378525 277.21932337 145.09127023 271.89330251 149 265 C149.33 264.34 149.66 263.68 150 263 C152.0625 262.375 152.0625 262.375 154 262 C152.824375 260.9171875 152.824375 260.9171875 151.625 259.8125 C149.15587562 257.16700959 148.06739722 255.39626389 147 252 C146.34 252 145.68 252 145 252 C144.56300781 251.19949219 144.56300781 251.19949219 144.1171875 250.3828125 C141.81284816 246.19442213 139.44487186 242.07049172 136.9375 238 C134.20037398 233.48763204 132.02928626 228.86362269 130 224 C128.26807064 231.3473272 127.61937952 238.43137527 127.40234375 245.96484375 C127.34355797 247.63577843 127.34355797 247.63577843 127.28358459 249.34046936 C127.16049134 252.87260108 127.04836724 256.40496524 126.9375 259.9375 C126.82126445 263.46637251 126.70262201 266.99513818 126.58070374 270.52381897 C126.50574108 272.70976076 126.43425021 274.89582555 126.3669281 277.08201599 C125.72897853 296.27102147 125.72897853 296.27102147 124 298 C123.86539605 299.87196044 123.79627742 301.74868478 123.75390625 303.625 C123.72264648 304.79893311 123.69138672 305.97286621 123.65917969 307.18237305 C123.62727539 308.44218994 123.59537109 309.70200684 123.5625 311 C122.55767565 342.26230081 122.55767565 342.26230081 116 352 C114.96554696 353.90935034 113.94521852 355.82640566 112.9375 357.75 C109.41724583 364.16666582 105.48964556 368.57423314 99.953125 373.30078125 C98.34721234 374.69792526 96.8176523 376.1823477 95.3125 377.6875 C92.10965243 380.89034757 89.33102344 383.55632552 85 385 C84.34 385.99 83.68 386.98 83 388 C81.3359375 388.9921875 81.3359375 388.9921875 79.375 389.875 C76.39724135 391.27503119 73.67996351 392.80738286 70.9375 394.625 C68.36360245 396.27929144 66.63879324 397.10033521 63.625 397.9375 C59.39799083 399.17645096 56.24295734 401.18005354 52.5234375 403.4921875 C48.8227601 405.70342818 44.96852342 407.33539139 41 409 C39.82179688 409.52078125 38.64359375 410.0415625 37.4296875 410.578125 C36.16156377 411.13565654 34.89333447 411.69294802 33.625 412.25 C32.44164062 412.77078125 31.25828125 413.2915625 30.0390625 413.828125 C27 415 27 415 24 415 C24 415.66 24 416.32 24 417 C23.35933594 417.17015625 22.71867188 417.3403125 22.05859375 417.515625 C21.19363281 417.75796875 20.32867187 418.0003125 19.4375 418.25 C18.59058594 418.48203125 17.74367187 418.7140625 16.87109375 418.953125 C13.99244867 420.00275341 11.54516151 421.41769742 8.91625977 422.97460938 C5.52302881 424.7903273 1.8957764 425.92246642 -1.75 427.125 C-3.24609885 427.62369962 -4.74094993 428.12616208 -6.234375 428.6328125 C-6.88631836 428.84824707 -7.53826172 429.06368164 -8.20996094 429.28564453 C-10.29085285 430.04455137 -10.29085285 430.04455137 -13 432 C-17.43336807 433.33400445 -21.76023714 432.91642928 -26.3125 432.5625 C-27.05306641 432.51029297 -27.79363281 432.45808594 -28.55664062 432.40429688 C-30.37152709 432.27549848 -32.18583325 432.13856738 -34 432 C-34 431.34 -34 430.68 -34 430 C-34.94359375 429.97421875 -35.8871875 429.9484375 -36.859375 429.921875 C-46.51097341 429.49549917 -55.74068498 428.50621002 -64 423 C-65.9525503 422.54440493 -67.9052352 422.0893534 -69.859375 421.640625 C-73.25999015 420.62292266 -75.99856101 418.87589937 -79 417 C-79 416.34 -79 415.68 -79 415 C-80.98 414.34 -82.96 413.68 -85 413 C-85 412.34 -85 411.68 -85 411 C-86.175625 410.62875 -86.175625 410.62875 -87.375 410.25 C-90.46493987 408.77860006 -90.53659227 407.92681545 -92 405 C-93.6476038 404.28752268 -95.31763529 403.62599617 -97 403 C-106.23076923 396.30769231 -106.23076923 396.30769231 -108 391 C-108.66 390.67 -109.32 390.34 -110 390 C-110 388.35 -110 386.7 -110 385 C-110.8971875 384.938125 -110.8971875 384.938125 -111.8125 384.875 C-114 384 -114 384 -115.625 381.3125 C-118.61089744 374.11920161 -119.35152096 368.03621553 -119.65625 360.265625 C-119.66236498 356.91816953 -119.66236498 356.91816953 -122 355 C-122.30599063 352.43083343 -122.51087087 349.95241616 -122.625 347.375 C-122.66367188 346.66859375 -122.70234375 345.9621875 -122.7421875 345.234375 C-122.83647724 343.49001476 -122.91932891 341.74504309 -123 340 C-123.33 340 -123.66 340 -124 340 C-123.98952637 339.31373535 -123.97905273 338.6274707 -123.96826172 337.92041016 C-123.92678126 334.82197711 -123.90069931 331.72360239 -123.875 328.625 C-123.85824219 327.54476563 -123.84148437 326.46453125 -123.82421875 325.3515625 C-123.81777344 324.3203125 -123.81132813 323.2890625 -123.8046875 322.2265625 C-123.79421387 321.27346191 -123.78374023 320.32036133 -123.77294922 319.33837891 C-123.76868133 316.8076787 -123.76868133 316.8076787 -126 315 C-126.26991906 312.31160615 -126.08737357 309.70858064 -126 307 C-126.33 307 -126.66 307 -127 307 C-127 274.99 -127 242.98 -127 210 C-129.817089 211.4085445 -130.3992166 213.25579989 -132 216 C-133.00913808 217.59081284 -134.03086568 219.17368284 -135.0625 220.75 C-135.56910156 221.52859375 -136.07570312 222.3071875 -136.59765625 223.109375 C-138 225 -138 225 -140 226 C-140.33 226.99 -140.66 227.98 -141 229 C-141.45375 229.433125 -141.9075 229.86625 -142.375 230.3125 C-144.23448973 232.05823489 -144.23448973 232.05823489 -145.4375 235.125 C-147 238 -147 238 -149.1875 238.875 C-149.785625 238.91625 -150.38375 238.9575 -151 239 C-150.5978125 239.804375 -150.5978125 239.804375 -150.1875 240.625 C-149.795625 241.40875 -149.40375 242.1925 -149 243 C-148.46375 243.845625 -147.9275 244.69125 -147.375 245.5625 C-145.43250527 250.41873682 -145.17385794 254.83857915 -146 260 C-148.67483016 263.97171752 -151.20871194 265.40248294 -155.8359375 266.47265625 C-158.67452889 267.16437076 -161.41508365 268.07923399 -164.1875 269 C-165.19167969 269.33 -166.19585937 269.66 -167.23046875 270 C-169.93928649 270.91067593 -169.93928649 270.91067593 -172.12890625 272.09765625 C-175.36347557 273.6575425 -178.54582524 273.60992635 -182 273 C-185.03161109 271.73290176 -187.58327241 270.23501875 -190 268 C-190.875 265.25 -190.875 265.25 -191 263 C-191.66 262.67 -192.32 262.34 -193 262 C-193.495 252.1 -193.495 252.1 -194 242 C-193.34 242 -192.68 242 -192 242 C-190.59585169 240.53798428 -190.59585169 240.53798428 -189.1875 238.6875 C-186.73157877 235.7211795 -184.53537478 233.66948253 -181 232 C-180.34 232 -179.68 232 -179 232 C-179.00523682 230.95473145 -179.01047363 229.90946289 -179.01586914 228.83251953 C-179.17545866 193.78377761 -179.17545866 193.78377761 -178.625 178.3125 C-178.59414307 177.32588379 -178.56328613 176.33926758 -178.53149414 175.32275391 C-178.14845912 166.07735562 -176.58994569 157.06971158 -174.5 148.0625 C-174.2628125 147.02222656 -174.025625 145.98195313 -173.78125 144.91015625 C-173.0430191 142.16024615 -172.11759002 139.61573871 -171 137 C-170.34 137 -169.68 137 -169 137 C-168.87882812 136.39671875 -168.75765625 135.7934375 -168.6328125 135.171875 C-168.46523437 134.37265625 -168.29765625 133.5734375 -168.125 132.75 C-167.96257812 131.96109375 -167.80015625 131.1721875 -167.6328125 130.359375 C-167.00849925 128.03168856 -166.15161458 126.10968048 -165 124 C-164.34 124 -163.68 124 -163 124 C-162.87882812 123.39671875 -162.75765625 122.7934375 -162.6328125 122.171875 C-162.46523437 121.37265625 -162.29765625 120.5734375 -162.125 119.75 C-161.96257812 118.96109375 -161.80015625 118.1721875 -161.6328125 117.359375 C-160.79234898 114.22579496 -159.84447316 111.77691531 -157.4375 109.5625 C-155.79857469 108.07803889 -155.79857469 108.07803889 -155.69140625 105.80078125 C-154.78031071 102.11007221 -152.81057856 99.55745919 -150.5 96.625 C-150.05366211 96.05426758 -149.60732422 95.48353516 -149.14746094 94.89550781 C-143.85478197 88.32360891 -138.67961442 82.9644016 -130 82 C-126.65247442 80.18621008 -126.65247442 80.18621008 -124 78 C-124 77.34 -124 76.68 -124 76 C-119.19490042 75.80785677 -114.38956217 75.62911692 -109.58349609 75.46289062 C-107.94794282 75.40442 -106.31251713 75.34226081 -104.67724609 75.27636719 C-102.32933786 75.1823939 -99.98129322 75.10161009 -97.6328125 75.0234375 C-96.89942657 74.99124115 -96.16604065 74.9590448 -95.41043091 74.9258728 C-93.60757645 74.87243572 -91.80217635 74.92719807 -90 75 C-89.34 75.66 -88.68 76.32 -88 77 C-85.73882026 77.13968678 -83.55013222 76.9959937 -81.2890625 76.875 C-78.68019994 77.01746348 -77.29135349 77.79005899 -75 79 C-73.366289 79.40643542 -71.71840261 79.75887533 -70.0625 80.0625 C-69.22847656 80.21847656 -68.39445312 80.37445313 -67.53515625 80.53515625 C-66.28025391 80.76525391 -66.28025391 80.76525391 -65 81 C-63.79150391 81.33837891 -63.79150391 81.33837891 -62.55859375 81.68359375 C-56.87457407 82.38650305 -51.30260731 78.87244233 -46.25 76.5 C-45.57839844 76.19191406 -44.90679687 75.88382812 -44.21484375 75.56640625 C-41.42790354 74.26508948 -39.19204226 73.19204226 -37 71 C-36.319375 70.690625 -35.63875 70.38125 -34.9375 70.0625 C-32.65434116 69.09596458 -32.65434116 69.09596458 -32 66 C-31.01 65.67 -30.02 65.34 -29 65 C-28.31011941 63.44776867 -27.63392617 61.88831505 -27.01953125 60.3046875 C-25.23452073 56.26960625 -22.87981139 52.55349047 -20.62109375 48.76953125 C-19.31792438 46.54315273 -18.11493683 44.32417181 -17 42 C-17.54269531 41.76925781 -18.08539063 41.53851563 -18.64453125 41.30078125 C-23.14463507 39.24938257 -26.1707451 37.84214534 -28 33 C-29.63849653 25.2518554 -29.63849653 25.2518554 -28.0078125 22.0546875 C-26.71842546 19.42593718 -26.90216542 17.59407808 -27.0625 14.6875 C-27.13140769 9.52631411 -26.82233684 6.37006995 -24 2 C-17.48641725 -2.48713478 -7.34905724 -2.44968575 0 0 Z M-17 0 C-17 0.33 -17 0.66 -17 1 C-15.35 1 -13.7 1 -12 1 C-12 0.67 -12 0.34 -12 0 C-13.65 0 -15.3 0 -17 0 Z M113 39 C113 39.33 113 39.66 113 40 C114.65 40 116.3 40 118 40 C118 39.67 118 39.34 118 39 C116.35 39 114.7 39 113 39 Z M-52 80 C-52.99 81.485 -52.99 81.485 -54 83 C-52.35 82.34 -50.7 81.68 -49 81 C-49.99 80.67 -50.98 80.34 -52 80 Z M-59 83 C-59 83.33 -59 83.66 -59 84 C-57.35 84 -55.7 84 -54 84 C-54 83.67 -54 83.34 -54 83 C-55.65 83 -57.3 83 -59 83 Z M-149 97 C-148 99 -148 99 -148 99 Z M-165 126 C-164 128 -164 128 -164 128 Z M-172 143 C-172 144.65 -172 146.3 -172 148 C-171.67 148 -171.34 148 -171 148 C-171 146.35 -171 144.7 -171 143 C-171.33 143 -171.66 143 -172 143 Z M-175 155 C-175 156.65 -175 158.3 -175 160 C-174.67 160 -174.34 160 -174 160 C-174 158.35 -174 156.7 -174 155 C-174.33 155 -174.66 155 -175 155 Z M-177 164 C-176 166 -176 166 -176 166 Z " fill="#D5433D" transform="translate(235,122)"/>
<path d="M0 0 C3.10788099 -0.0022164 6.21542195 -0.02057017 9.32324219 -0.03930664 C29.18242887 -0.09513042 51.03438497 0.71680212 67.58105469 13.18530273 C69.08072468 13.84023883 70.60423274 14.44242958 72.14355469 14.99780273 C77.92158352 17.22537367 83.23055333 20.0823474 88.58105469 23.18530273 C89.23847656 23.55913086 89.89589844 23.93295898 90.57324219 24.31811523 C92.8582125 25.70659002 94.37119688 26.76558713 95.58105469 29.18530273 C95.58105469 31.18530273 95.58105469 31.18530273 94.64575195 32.92773438 C93.32780871 35.72228177 92.97353274 38.24713128 92.54589844 41.30639648 C92.37638672 42.48911133 92.206875 43.67182617 92.03222656 44.89038086 C91.86271484 46.12208008 91.69320312 47.3537793 91.51855469 48.62280273 C91.17452522 51.05914527 90.82951079 53.49534898 90.48339844 55.93139648 C90.33378662 57.01090576 90.1841748 58.09041504 90.0300293 59.20263672 C89.62612097 61.88591461 89.1394427 64.53042435 88.58105469 67.18530273 C81.58105469 58.97840618 81.58105469 58.97840618 81.58105469 54.18530273 C81.00355469 54.1659668 80.42605469 54.14663086 79.83105469 54.12670898 C76.26634395 52.63522411 75.20841561 49.42918057 73.58105469 46.12280273 C73.22857666 45.43758545 72.87609863 44.75236816 72.51293945 44.04638672 C70.77206338 40.6465724 69.12574421 37.21265287 67.51855469 33.74780273 C64.746219 28.11688091 60.50120405 22.58664846 54.58105469 20.18530273 C51.99689221 19.85155996 51.99689221 19.85155996 49.58105469 20.18530273 C48.92105469 20.84530273 48.26105469 21.50530273 47.58105469 22.18530273 C44.95605469 22.81030273 44.95605469 22.81030273 42.58105469 23.18530273 C42.43410156 23.71897461 42.28714844 24.25264648 42.13574219 24.80249023 C40.19717956 31.24208334 37.21687109 36.55503586 33.58105469 42.18530273 C32.98357422 43.14049805 32.98357422 43.14049805 32.37402344 44.11499023 C29.86466629 48.04349693 29.86466629 48.04349693 27.58105469 49.18530273 C26.83855469 50.45374023 26.83855469 50.45374023 26.08105469 51.74780273 C25.33855469 52.95436523 25.33855469 52.95436523 24.58105469 54.18530273 C23.92105469 54.18530273 23.26105469 54.18530273 22.58105469 54.18530273 C22.20980469 55.05155273 22.20980469 55.05155273 21.83105469 55.93530273 C20.26719987 58.7502414 19.22020513 60.27191866 16.58105469 62.18530273 C14.07058793 62.62959496 11.60055838 62.8174603 9.05761719 62.98999023 C5.91349658 63.23794927 3.40954239 63.77105888 0.58105469 65.18530273 C-1.62535794 68.86265711 -2.11055641 72.9449553 -2.41894531 77.18530273 C-1.59997652 80.13359037 -0.70329647 80.97974159 1.78027344 82.77514648 C8.39512225 86.10563522 18.13012738 84.75717541 25.22949219 83.13842773 C32.13861268 80.33805332 36.75168577 74.33964563 40.58105469 68.18530273 C42.22535298 66.49656395 43.89489686 64.83224759 45.58105469 63.18530273 C47.947803 60.54736451 50.26863284 57.87091081 52.58105469 55.18530273 C55.32892447 56.55923762 55.63389621 58.16159222 56.89355469 60.93530273 C58.95370984 65.20665081 61.1783232 67.86763953 64.58105469 71.18530273 C67.51267297 75.58273016 69.61092058 79.98916598 71.08105469 85.06030273 C72.01678132 88.02774522 72.41024401 89.02913297 74.76855469 91.18530273 C78.39421381 92.47442598 81.75189073 92.80238634 85.58105469 93.18530273 C87.15101274 94.75526079 86.71081425 96.31237192 86.71386719 98.48999023 C86.71515625 99.38459961 86.71644531 100.27920898 86.71777344 101.20092773 C86.71390625 102.14452148 86.71003906 103.08811523 86.70605469 104.06030273 C86.70992187 104.96522461 86.71378906 105.87014648 86.71777344 106.80249023 C86.7099148 112.33496771 86.37938097 117.74937746 85.83056641 123.25219727 C85.35140493 128.88492327 85.24577007 134.53617516 85.08105469 140.18530273 C84.37912526 164.25888233 84.37912526 164.25888233 81.58105469 169.18530273 C80.92105469 169.18530273 80.26105469 169.18530273 79.58105469 169.18530273 C79.48179687 169.91620117 79.38253906 170.64709961 79.28027344 171.40014648 C77.49759906 178.50096677 71.60872929 183.51628341 65.58105469 187.18530273 C63.89288536 188.83018567 62.22752154 190.49867816 60.58105469 192.18530273 C56.51227021 196.06367611 52.57928361 198.89405723 47.47558594 201.25561523 C45.34577512 202.24158939 45.34577512 202.24158939 42.70605469 204.18530273 C39.2702214 206.38423604 35.86383714 207.74105732 32.06933594 209.19702148 C29.94070185 210.04246014 27.93000424 210.95517606 25.89355469 211.99780273 C17.11260681 216.48623857 8.4510043 220.87519648 -1.09472656 223.44702148 C-4.57147773 224.55140127 -7.68743581 226.24159356 -10.91503906 227.92358398 C-14.97453176 229.96916299 -19.17090836 231.57942124 -23.41894531 233.18530273 C-24.1240625 233.48694336 -24.82917969 233.78858398 -25.55566406 234.09936523 C-37.63846078 238.87888187 -54.43360481 236.81942605 -66.40332031 231.97827148 C-68.02731413 231.14357901 -69.63486116 230.27568704 -71.21972656 229.36889648 C-73.49187971 228.1460503 -75.62886227 227.44916209 -78.10644531 226.74780273 C-82.17475646 225.48719928 -84.71062094 223.55638809 -87.79394531 220.66577148 C-89.5860763 218.95853516 -89.5860763 218.95853516 -92.60644531 217.06030273 C-95.25165664 215.29682852 -97.21883636 213.45874865 -99.41894531 211.18530273 C-100.07894531 210.77280273 -100.73894531 210.36030273 -101.41894531 209.93530273 C-104.01875412 207.66047003 -105.0301628 205.16288304 -106.39160156 202.02514648 C-107.41969308 199.85544575 -107.41969308 199.85544575 -110.41894531 198.18530273 C-111.87231188 193.82520304 -112.03358803 189.43777572 -112.41894531 184.87280273 C-112.50797119 183.85404053 -112.59699707 182.83527832 -112.6887207 181.78564453 C-113.35456539 173.83042376 -113.76349521 165.87931033 -113.90136719 157.89697266 C-114.04188465 153.21891222 -114.64174984 149.09884572 -115.92822266 144.59130859 C-117.49934653 138.46332498 -117.81064843 132.81354763 -117.71191406 126.51342773 C-117.70766922 125.46499695 -117.70342438 124.41656616 -117.6990509 123.33636475 C-117.68245436 120.035733 -117.6448394 116.73574533 -117.60644531 113.43530273 C-117.59137384 111.17749914 -117.57768979 108.91968584 -117.56542969 106.66186523 C-117.53261364 101.16946341 -117.48260917 95.67742911 -117.41894531 90.18530273 C-115.99001953 90.02094727 -115.99001953 90.02094727 -114.53222656 89.85327148 C-113.27796875 89.6947168 -112.02371094 89.53616211 -110.73144531 89.37280273 C-109.49007812 89.22198242 -108.24871094 89.07116211 -106.96972656 88.91577148 C-100.89128352 87.66531071 -98.06653491 85.04875553 -94.41894531 80.18530273 C-93.44044336 79.16425722 -92.43914105 78.16469064 -91.41894531 77.18530273 C-90.59394531 76.36030273 -89.76894531 75.53530273 -88.91894531 74.68530273 C-88.09394531 73.86030273 -87.26894531 73.03530273 -86.41894531 72.18530273 C-85.92394531 71.64905273 -85.42894531 71.11280273 -84.91894531 70.56030273 C-83.41894531 69.18530273 -83.41894531 69.18530273 -80.98144531 67.74780273 C-78.37267737 66.15709058 -76.49324881 64.41325834 -74.41894531 62.18530273 C-72.41894531 64.18530273 -72.41894531 64.18530273 -71.66894531 67.74780273 C-70.21454452 74.03493689 -66.55654187 78.9899333 -62.10644531 83.56030273 C-54.79185157 87.98308035 -46.91163956 89.39515583 -38.41894531 88.18530273 C-35.75361809 86.82827256 -33.90294642 85.83063755 -32.10644531 83.43530273 C-31.1212389 80.21099083 -31.11978835 77.53586069 -31.41894531 74.18530273 C-32.81851729 71.90045967 -32.81851729 71.90045967 -34.41894531 70.18530273 C-34.41894531 69.52530273 -34.41894531 68.86530273 -34.41894531 68.18530273 C-38.42254525 66.24807696 -42.0580391 65.82301071 -46.43066406 65.52905273 C-48.41894531 65.18530273 -48.41894531 65.18530273 -50.41894531 63.18530273 C-51.93867903 58.17912108 -52.42796816 52.94514298 -52.62597656 47.73608398 C-52.65618896 46.95491211 -52.68640137 46.17374023 -52.7175293 45.36889648 C-52.76732515 43.82379322 -52.80022786 42.27802432 -52.8137207 40.73217773 C-52.96428206 35.69198356 -54.06009753 32.20571046 -56.56591797 27.82080078 C-57.41894531 26.18530273 -57.41894531 26.18530273 -57.41894531 24.18530273 C-64.310113 22.74038048 -68.03805889 23.39947193 -74.25488281 26.66577148 C-76.53904666 28.26963383 -77.78415046 29.95299514 -79.41894531 32.18530273 C-80.07894531 32.18530273 -80.73894531 32.18530273 -81.41894531 32.18530273 C-81.6909375 32.7640918 -81.96292969 33.34288086 -82.24316406 33.93920898 C-85.55217173 40.26040304 -90.62627584 47.09933453 -96.91894531 50.56030273 C-99.86103399 52.47266038 -101.22291393 54.52613623 -103.15722656 57.40014648 C-104.97670464 59.97445448 -107.07183334 62.09193259 -109.41894531 64.18530273 C-110.07894531 64.18530273 -110.73894531 64.18530273 -111.41894531 64.18530273 C-111.74894531 65.17530273 -112.07894531 66.16530273 -112.41894531 67.18530273 C-114.48144531 68.37280273 -114.48144531 68.37280273 -116.41894531 69.18530273 C-117.35455167 66.37848367 -117.5501363 64.65010009 -117.56420898 61.74560547 C-117.57058884 60.85135361 -117.57696869 59.95710175 -117.58354187 59.03575134 C-117.58465469 58.07318924 -117.58576752 57.11062714 -117.58691406 56.11889648 C-117.59024246 55.12906265 -117.59357086 54.13922882 -117.59700012 53.11940002 C-117.60206275 51.02719589 -117.60440865 48.93498369 -117.60424805 46.84277344 C-117.60643907 43.6319462 -117.62461429 40.42146 -117.64355469 37.21069336 C-117.64648776 35.18009558 -117.64847313 33.14949616 -117.64941406 31.11889648 C-117.65659958 30.15431015 -117.6637851 29.18972382 -117.67118835 28.19590759 C-117.66811172 27.30480789 -117.6650351 26.41370819 -117.66186523 25.49560547 C-117.66329025 24.70967514 -117.66471527 23.92374481 -117.66618347 23.11399841 C-117.41894531 21.18530273 -117.41894531 21.18530273 -115.41894531 19.18530273 C-110.33133956 16.64149986 -105.2116285 15.29588962 -99.67675781 14.02905273 C-97.10433161 13.36281286 -94.65861729 12.6103016 -92.14941406 11.75170898 C-86.54064082 9.84562085 -80.82814362 8.42885119 -75.08496094 6.99194336 C-74.28123047 6.78633789 -73.4775 6.58073242 -72.64941406 6.36889648 C-71.93164795 6.1889917 -71.21388184 6.00908691 -70.47436523 5.82373047 C-68.37702658 5.23714884 -68.37702658 5.23714884 -66.40185547 4.14868164 C-49.22153519 -4.19822107 -18.69622235 -0.00148808 0 0 Z " fill="#FDFDFD" transform="translate(249.4189453125,292.814697265625)"/>
<path d="M0 0 C3.10489399 0.10991566 6.20857994 0.24053415 9.3125 0.375 C10.63411133 0.42140625 10.63411133 0.42140625 11.98242188 0.46875 C13.25375977 0.52675781 13.25375977 0.52675781 14.55078125 0.5859375 C15.33106689 0.6173584 16.11135254 0.6487793 16.9152832 0.68115234 C19 1 19 1 22 3 C23.32 3 24.64 3 26 3 C26 3.66 26 4.32 26 5 C27.0828125 5.3403125 27.0828125 5.3403125 28.1875 5.6875 C37.00593332 9.80276888 41.28720441 19.77736829 44.5 28.4375 C44.89574219 29.52675781 45.29148437 30.61601562 45.69921875 31.73828125 C47.38871635 35.97470918 49.55177639 39.83349443 51.86328125 43.7578125 C53 46 53 46 53 49 C53.61488281 49.24621094 54.22976563 49.49242187 54.86328125 49.74609375 C58.67025934 51.98017047 59.69091643 55.94121457 61 60 C61.55221109 63.0303154 61.80423762 65.91674247 62 69 C62.33 69 62.66 69 63 69 C63.91295704 74.44045553 64.14827121 79.68157951 64.14526367 85.19238281 C64.14862228 86.08591461 64.1519809 86.97944641 64.15544128 87.90005493 C64.16489104 90.83442599 64.16689081 93.76873971 64.16796875 96.703125 C64.17118348 98.74859643 64.17454772 100.79406763 64.17805481 102.83953857 C64.18402965 107.11633844 64.1858962 111.39311813 64.18530273 115.66992188 C64.18520074 121.15678741 64.1988982 126.64352462 64.21607494 132.13035965 C64.22717212 136.34931029 64.22922271 140.56822955 64.22869301 144.7871933 C64.22987483 146.81104732 64.23430788 148.83490211 64.24202538 150.85874176 C64.2517871 153.68098602 64.24896331 156.50294681 64.24291992 159.32519531 C64.24853943 160.16368011 64.25415894 161.00216492 64.25994873 161.86605835 C64.2386589 165.76472975 64.21270292 167.68094563 62 171 C61.55314993 172.98223551 61.55314993 172.98223551 61.37744141 175.17675781 C61.29039948 176.01482971 61.20335754 176.85290161 61.11367798 177.71636963 C60.98393082 179.07106354 60.98393082 179.07106354 60.8515625 180.453125 C60.64886159 182.37113862 60.44572267 184.28910598 60.2421875 186.20703125 C59.93133455 189.22583502 59.62549487 192.24497393 59.328125 195.26513672 C59.03747266 198.18361132 58.72694495 201.09946156 58.4140625 204.015625 C58.33161285 204.91065735 58.24916321 205.8056897 58.16421509 206.72784424 C57.69622367 210.99273101 57.09788644 214.24178662 54.84912109 217.93652344 C54.23891113 218.9474707 53.62870117 219.95841797 53 221 C53.33 221.99 53.66 222.98 54 224 C54.66 224.165 55.32 224.33 56 224.5 C56.66 224.665 57.32 224.83 58 225 C58.33 225.99 58.66 226.98 59 228 C60.2065625 229.1446875 60.2065625 229.1446875 61.4375 230.3125 C66.2266273 235.33524327 66.44781051 240.68264871 66.3203125 247.3671875 C65.83773121 251.3337703 64.74123267 253.10647663 62 256 C59.875 256.625 59.875 256.625 58 257 C57.71125 257.639375 57.4225 258.27875 57.125 258.9375 C56 261 56 261 53.625 262.109375 C48.6743758 263.32569215 43.95386422 263.32918484 38.875 263.3125 C37.88628906 263.32861328 36.89757812 263.34472656 35.87890625 263.36132812 C34.92628906 263.36197266 33.97367187 263.36261719 32.9921875 263.36328125 C31.69837158 263.36775269 31.69837158 263.36775269 30.37841797 263.37231445 C27.49798829 262.92141574 26.10024846 261.99362607 24 260 C24 259.34 24 258.68 24 258 C23.401875 257.79375 22.80375 257.5875 22.1875 257.375 C18.97970932 255.35867443 18.31296925 253.56377369 17 250 C15.31378525 242.21932337 16.09127023 236.89330251 20 230 C20.33 229.34 20.66 228.68 21 228 C23.0625 227.375 23.0625 227.375 25 227 C24.21625 226.278125 23.4325 225.55625 22.625 224.8125 C20.15587562 222.16700959 19.06739722 220.39626389 18 217 C17.34 217 16.68 217 16 217 C15.56300781 216.19949219 15.56300781 216.19949219 15.1171875 215.3828125 C12.90087572 211.35442191 10.63045323 207.39533912 8.1875 203.5 C4.98701382 198.23734489 2.46919039 192.71315104 -0.09545898 187.1237793 C-1.83299449 183.369409 -3.60722035 179.78441044 -5.875 176.3125 C-8.60393077 172.05857851 -10.15726795 168.96584937 -9.75 163.875 C-8.45783133 158.92168675 -8.45783133 158.92168675 -7 157 C-3.28477168 154.88741919 -0.72359409 154 3.5625 154 C7.8867876 155.25797457 9.79341294 156.86976025 13 160 C13.33 160.66 13.66 161.32 14 162 C18.39674114 161.49268371 20.83808109 158.88085945 24 156 C25.73498116 152.53003768 25.60794181 148.78492805 25 145 C22.72872666 141.97590636 22.72872666 141.97590636 20 140 C19.67 139.67 19.34 139.34 19 139 C13.53305723 138.31663215 11.01768184 138.68591894 6.625 142.0625 C3.32898294 144.43450544 1.27975314 145.47916618 -2.8125 145.25 C-12.34608216 143.56069037 -20.6686996 137.63092992 -28.91992188 132.83081055 C-33.80048301 130.02827967 -38.72988068 127.92978097 -44 126 C-46.56137919 124.95062438 -49.11908032 123.89274519 -51.67578125 122.83203125 C-54.75185625 121.7308481 -57.72433651 121 -61 121 C-61.7425 121.495 -62.485 121.99 -63.25 122.5 C-66.57083325 124.31136359 -68.26434537 124.53366495 -72 124 C-75.73531827 121.94923703 -79.10570569 119.9000177 -81 116 C-80.61497939 109.19796929 -78.79969674 103.02426936 -75.26171875 97.2109375 C-73.90353365 94.83095989 -72.7133525 92.38752032 -71.52319336 89.92016602 C-68.87906838 84.45152046 -66.1157918 79.43509999 -62.2890625 74.6875 C-60.47043527 72.30675163 -59.2253407 69.72297932 -58 67 C-56.50339844 67.23396484 -56.50339844 67.23396484 -54.9765625 67.47265625 C-44.22491403 69.18994861 -44.22491403 69.18994861 -33.91796875 66.9765625 C-31.25449559 64.19795361 -30.69111473 61.12416472 -30.5 57.4375 C-30.73318239 53.5899905 -31.45173837 51.00330835 -34 48 C-37.50221796 45.40576447 -41.7838198 45.42161802 -46 45 C-45.18720764 40.32644393 -43.62516467 36.13646047 -41.9375 31.71875 C-41.05170509 29.14994477 -40.46494566 26.67343752 -40 24 C-39.34 24 -38.68 24 -38 24 C-37.87238281 23.42636719 -37.74476563 22.85273438 -37.61328125 22.26171875 C-36.99220506 19.97125307 -36.19794184 17.95817928 -35.1875 15.8125 C-34.71376953 14.77029297 -34.71376953 14.77029297 -34.23046875 13.70703125 C-32.6599234 11.52821119 -31.57228807 11.5003075 -29 11 C-28.34 10.34 -27.68 9.68 -27 9 C-25.35008418 8.29289322 -23.68437744 7.62056011 -22 7 C-22 6.34 -22 5.68 -22 5 C-17.1178102 2.88878279 -12.89571097 2.85730305 -7.68359375 3.02734375 C-4.99203234 2.99991882 -2.61562755 2.61015543 0 2 C0 1.34 0 0.68 0 0 Z M-16 4 C-16 4.33 -16 4.66 -16 5 C-14.35 5 -12.7 5 -11 5 C-11 4.67 -11 4.34 -11 4 C-12.65 4 -14.3 4 -16 4 Z " fill="#498C16" transform="translate(364,157)"/>
<path d="M0 0 C0.85787109 -0.00386719 1.71574219 -0.00773437 2.59960938 -0.01171875 C3.41880859 -0.01042969 4.23800781 -0.00914062 5.08203125 -0.0078125 C5.82300049 -0.00668457 6.56396973 -0.00555664 7.32739258 -0.00439453 C9.1875 0.125 9.1875 0.125 11.1875 1.125 C13.18375451 1.48007608 15.18442866 1.81064939 17.1875 2.125 C36.57091673 5.58428234 52.82637534 16.08444181 64.1875 32.125 C70.40444352 42.06280747 72.43329169 52.42325571 72.625 64 C72.64731689 64.80880615 72.66963379 65.6176123 72.69262695 66.45092773 C72.672046 71.81365583 71.75154469 74.88545947 68.1875 79.125 C61.29477207 84.32971293 55.6137778 84.72847348 47.1875 84.125 C41.97693495 82.41972417 39.28914519 79.60515417 36.1875 75.125 C35.04791108 72.00612505 34.32998885 69.01337437 33.8046875 65.73828125 C32.60787576 58.63357156 30.75549564 53.087358 25.0703125 48.3671875 C14.4070862 40.9352419 2.82610952 40.10343896 -9.75 41.8125 C-16.8427875 43.09880374 -23.04043676 45.49153993 -28.3125 50.5 C-30.97704145 55.16294753 -32.27288408 58.37554048 -30.875 63.6875 C-26.73662196 71.74739785 -18.4362695 75.21930485 -10.26708984 77.98754883 C-7.53973781 78.83201896 -4.8039684 79.64008875 -2.0625 80.4375 C-0.02419354 81.04765799 2.01355584 81.65967971 4.05078125 82.2734375 C5.07381348 82.58120117 6.0968457 82.88896484 7.15087891 83.20605469 C30.82707227 90.370968 57.01078845 98.70661431 69.9375 121.609375 C76.57176782 134.96083898 77.55421371 152.8435257 73.1875 167.125 C66.81350884 183.65416351 54.04867955 194.30912119 38.25 201.5 C14.03042811 211.13976345 -14.81032651 210.31897633 -38.81298828 200.2890625 C-53.58828749 193.67511326 -65.58669836 183.25077773 -72.0625 168.1875 C-76.03146553 157.40047749 -76.34182759 146.49545447 -76.8125 135.125 C-76.1525 135.125 -75.4925 135.125 -74.8125 135.125 C-74.77125 134.403125 -74.73 133.68125 -74.6875 132.9375 C-73.48440994 129.07042481 -71.21032304 127.11735987 -67.8125 125.125 C-60.7001891 123.13355295 -51.92483149 123.56883425 -45.3125 126.875 C-40.17125626 131.50211936 -38.21908889 135.16866117 -37.3125 142 C-36.40811477 148.73830688 -34.96638325 154.20630116 -29.76953125 159.015625 C-16.76618964 167.25818033 -1.31136464 168.90277755 13.87890625 166.7421875 C16.43664931 166.19072234 16.43664931 166.19072234 19.1875 164.125 C21.1771995 163.73486284 23.17769869 163.39297351 25.1875 163.125 C25.1875 162.465 25.1875 161.805 25.1875 161.125 C26.90234375 159.6875 26.90234375 159.6875 29.125 158.125 C32.97883174 155.44144441 32.97883174 155.44144441 34.609375 151.171875 C35.36310479 145.8957665 35.3838879 142.66180863 32.1875 138.125 C21.50882243 128.44075515 7.33888236 125.16324554 -6.1875 121.1875 C-29.16236352 114.42844173 -53.5643302 106.36159998 -66.3046875 84.54296875 C-70.17275672 75.77467711 -71.33451962 67.20221433 -71.625 57.6875 C-71.67591797 56.62595703 -71.72683594 55.56441406 -71.77929688 54.47070312 C-72.08580238 46.24700449 -72.08580238 46.24700449 -69.8125 42.125 C-69.42959538 40.13389599 -69.08645385 38.13399487 -68.8125 36.125 C-68.1525 36.125 -67.4925 36.125 -66.8125 36.125 C-66.73 35.42375 -66.6475 34.7225 -66.5625 34 C-65.35105909 29.35614318 -63.29558024 26.04309729 -59.1875 23.5 C-58.40375 23.04625 -57.62 22.5925 -56.8125 22.125 C-56.50054688 21.49464844 -56.18859375 20.86429687 -55.8671875 20.21484375 C-51.67384631 11.90581584 -37.88969319 7.02023191 -29.68359375 3.95703125 C-27.06205485 3.19731998 -24.71220635 2.77966133 -22 2.5625 C-19.1093492 2.51932379 -19.1093492 2.51932379 -16.8125 1.125 C-11.19606953 0.06866473 -5.7026305 -0.0262996 0 0 Z " fill="#FDFDFD" transform="translate(871.8125,304.875)"/>
<path d="M0 0 C1.03439713 -0.00315216 2.06879425 -0.00630432 3.13453674 -0.009552 C4.2502153 -0.00752777 5.36589386 -0.00550354 6.51538086 -0.00341797 C7.66058701 -0.00437469 8.80579315 -0.00533142 9.98570251 -0.00631714 C12.40746109 -0.00699794 14.82922149 -0.00515062 17.25097656 -0.00097656 C20.96871005 0.00437795 24.68632299 -0.00092749 28.40405273 -0.00732422 C30.75366238 -0.00666352 33.10327194 -0.00538252 35.45288086 -0.00341797 C36.57058365 -0.0054422 37.68828644 -0.00746643 38.83985901 -0.009552 C39.87110397 -0.00639984 40.90234894 -0.00324768 41.96484375 0 C42.87512833 0.00079559 43.7854129 0.00159119 44.72328186 0.00241089 C46.91772461 0.12939453 46.91772461 0.12939453 48.91772461 1.12939453 C50.45106445 1.09845703 50.45106445 1.09845703 52.01538086 1.06689453 C69.3997862 1.34532345 87.21365093 10.84964738 99.91772461 22.12939453 C100.59963867 22.66951172 101.28155273 23.20962891 101.98413086 23.76611328 C118.03440247 36.73825061 127.53109569 57.96281454 129.91772461 78.12939453 C130.07827401 81.6813703 130.10522062 85.23038321 130.12084961 88.78564453 C130.12654968 89.80557495 130.13224976 90.82550537 130.13812256 91.87634277 C130.14753995 94.03132095 130.15409352 96.18631331 130.15795898 98.34130859 C130.16761132 101.59124875 130.1986445 104.84054139 130.23022461 108.09033203 C130.37550767 136.42664446 123.01949559 159.23624273 103.29272461 180.19189453 C86.2580241 196.78379702 64.46095695 203.6165995 41.01538086 203.56298828 C39.63968147 203.56756672 38.26398435 203.57287712 36.88829041 203.57887268 C34.03529428 203.5877112 31.18257959 203.58548226 28.32958984 203.57543945 C24.68930322 203.56386706 21.04997488 203.58433243 17.40981388 203.61335659 C14.58121184 203.6317508 11.7528393 203.63142144 8.92419243 203.62571907 C6.93511187 203.62549336 4.94605259 203.64231612 2.95704651 203.65953064 C-3.9195194 203.60646285 -8.54507166 203.36791273 -14.08227539 199.12939453 C-15.82446289 197.12939453 -15.82446289 197.12939453 -16.95727539 195.12939453 C-17.34657227 194.46939453 -17.73586914 193.80939453 -18.13696289 193.12939453 C-20.17411113 188.81939495 -20.2133846 184.87647789 -20.22944641 180.13446045 C-20.2331231 179.43023272 -20.23679979 178.72600499 -20.24058789 178.00043702 C-20.25160066 175.64074617 -20.25546446 173.28109939 -20.25927734 170.92138672 C-20.26554378 169.22936362 -20.27219074 167.53734189 -20.27919006 165.84532166 C-20.30021014 160.28898066 -20.31059001 154.73263945 -20.32055664 149.17626953 C-20.32460486 147.26214839 -20.3287218 145.3480274 -20.33290672 143.43390656 C-20.35195327 134.44135674 -20.36618587 125.44881511 -20.37451869 116.456249 C-20.3842918 106.08117986 -20.41061552 95.70632404 -20.45101959 85.33133006 C-20.48119071 77.30825901 -20.49598849 69.28524907 -20.49929971 61.26212239 C-20.50164889 56.47194147 -20.51059245 51.68198858 -20.53576088 46.89186859 C-20.55906429 42.38397874 -20.56326574 37.87646669 -20.5529995 33.36853218 C-20.55250459 31.71739253 -20.55881172 30.06623412 -20.57255554 28.4151516 C-20.69461221 12.8783964 -20.69461221 12.8783964 -16.08227539 6.12939453 C-14.04711914 4.28955078 -14.04711914 4.28955078 -12.01977539 3.19189453 C-11.34817383 2.81162109 -10.67657227 2.43134766 -9.98461914 2.03955078 C-6.51754986 0.38076815 -3.79261252 0.00331187 0 0 Z M19.91772461 41.12939453 C19.91772461 81.71939453 19.91772461 122.30939453 19.91772461 164.12939453 C37.49712578 164.58877997 37.49712578 164.58877997 54.91772461 163.12939453 C54.91772461 162.46939453 54.91772461 161.80939453 54.91772461 161.12939453 C56.01213867 160.93990234 56.01213867 160.93990234 57.12866211 160.74658203 C67.55780425 158.43873265 76.38731953 151.23095652 82.08178711 142.3046875 C86.34859602 135.11754458 86.34859602 135.11754458 87.91772461 127.12939453 C88.57772461 126.79939453 89.23772461 126.46939453 89.91772461 126.12939453 C91.05001215 121.42055919 91.09320212 116.69030406 91.12084961 111.87158203 C91.12654968 111.08727814 91.13224976 110.30297424 91.13812256 109.49490356 C91.1475325 107.83922659 91.15409053 106.18353123 91.15795898 104.52783203 C91.16761509 102.03269474 91.19865554 99.53839978 91.23022461 97.04345703 C91.34608039 79.61058913 88.05080644 65.64320716 75.73413086 52.68408203 C59.25816515 37.73917 42.76775274 41.12939453 19.91772461 41.12939453 Z " fill="#FDFDFD" transform="translate(470.082275390625,306.87060546875)"/>
<path d="M0 0 C1.86591797 0.51240234 1.86591797 0.51240234 3.76953125 1.03515625 C24.75127649 7.02922999 40.04213598 18.83160005 51.18359375 37.69140625 C55.38602288 45.34615351 58.18746135 53.04246034 60.25 61.5 C60.49508301 62.49531738 60.49508301 62.49531738 60.74511719 63.51074219 C63.38499668 75.15660718 63.18641276 87.13127834 63.18530273 99.00634766 C63.18747856 101.5994537 63.20566958 104.19212557 63.22460938 106.78515625 C63.32699889 136.93242294 57.95738411 163.66138572 36.85546875 186.30078125 C22.22986007 200.27515689 2.86790026 205.7228252 -17 206.25 C-40.17944365 205.59867679 -59.9163585 197.81367913 -76 181 C-91.37117512 163.10637562 -97.14750957 141.09007481 -97.44921875 117.97265625 C-97.47095657 116.78071152 -97.4926944 115.58876678 -97.51509094 114.36070251 C-97.558681 111.86415575 -97.59795137 109.3675301 -97.63305664 106.87084961 C-97.68770161 103.04839748 -97.75786959 99.22645356 -97.83007812 95.40429688 C-97.87070283 92.96876503 -97.91044768 90.53321831 -97.94921875 88.09765625 C-97.96997971 86.95804947 -97.99074066 85.81844269 -98.01213074 84.64430237 C-98.02577164 83.58227097 -98.03941254 82.52023956 -98.0534668 81.42602539 C-98.06741989 80.49625381 -98.08137299 79.56648224 -98.0957489 78.60853577 C-97.99876297 75.96629903 -97.53244053 73.58456701 -97 71 C-97 69.68 -97 68.36 -97 67 C-96.34 67 -95.68 67 -95 67 C-95.495 64.525 -95.495 64.525 -96 62 C-95.34 62 -94.68 62 -94 62 C-94.20625 61.443125 -94.4125 60.88625 -94.625 60.3125 C-95.12403366 57.23512576 -94.24964466 55.87418271 -93 53 C-92.57603162 51.46032535 -92.16026618 49.91838229 -91.75 48.375 C-88.8692347 38.68122477 -83.41978811 30.69542636 -77 23 C-76.23171875 22.01773437 -75.4634375 21.03546875 -74.671875 20.0234375 C-67.00864982 10.85790239 -53.74922453 3.42837534 -42.0078125 1.45703125 C-39.97144191 1.0935958 -39.97144191 1.0935958 -38.2421875 0.01171875 C-27.89374054 -4.65770244 -10.61761063 -3.06307751 0 0 Z M-46.125 49.0625 C-58.1720367 63.36981244 -58.52039981 81.41522644 -58.44604492 99.20288086 C-58.4375433 102.29674092 -58.46637601 105.3887433 -58.49804688 108.48242188 C-58.55471393 124.3557061 -57.70845634 139.77089466 -48 153 C-47.4225 153.9075 -46.845 154.815 -46.25 155.75 C-37.63671038 164.36328962 -27.14649267 166.51869023 -15.42285156 166.57446289 C-5.43658058 166.31202046 2.59094576 162.45228865 10 155.6875 C13.68151067 151.57725644 16.29927492 146.78270819 19 142 C19.99 140.515 19.99 140.515 21 139 C21.45394552 136.72087062 21.45394552 136.72087062 21.625 134.3125 C21.69976563 133.50425781 21.77453125 132.69601562 21.8515625 131.86328125 C21.92503906 130.94095703 21.92503906 130.94095703 22 130 C22.33 130 22.66 130 23 130 C22.505 126.04 22.505 126.04 22 122 C22.66 122 23.32 122 24 122 C24.05001081 116.68385131 24.08600398 111.36784418 24.10986328 106.05151367 C24.11982594 104.24875498 24.13340096 102.44601204 24.15087891 100.64331055 C24.3332436 81.32874363 23.75911171 62.02097028 10 47 C-5.55173125 33.86918123 -31.86232779 34.1900853 -46.125 49.0625 Z " fill="#FCFCFC" transform="translate(717,307)"/>
<path d="M0 0 C0.88157272 -0.0071553 1.76314545 -0.01431061 2.6714325 -0.02168274 C3.6361145 -0.02437164 4.60079651 -0.02706055 5.5947113 -0.02983093 C7.12209175 -0.03968773 7.12209175 -0.03968773 8.68032837 -0.04974365 C12.05730767 -0.06948669 15.4342424 -0.08114349 18.81126404 -0.09111023 C19.96548292 -0.09518576 21.11970181 -0.09926128 22.30889702 -0.10346031 C28.42174476 -0.12432848 34.53457001 -0.13862521 40.64744568 -0.147995 C46.94993344 -0.15904186 53.25206643 -0.19342014 59.55442905 -0.23316669 C64.40932859 -0.2593668 69.26414419 -0.26769003 74.1191082 -0.27127647 C76.44142481 -0.2761361 78.76373783 -0.28773215 81.08598518 -0.30631447 C84.3456861 -0.33077015 87.60447719 -0.32972841 90.86424255 -0.32279968 C91.81475494 -0.33560974 92.76526733 -0.3484198 93.74458313 -0.36161804 C100.727244 -0.30782274 107.94787505 0.87515689 113.37471867 5.62995434 C117.68806137 10.60306934 117.91448551 15.1531265 117.99485779 21.45967102 C118.02386169 22.20668274 118.0528656 22.95369446 118.08274841 23.7233429 C118.14323907 29.02325497 117.15022123 31.92487293 113.68235779 36.14717102 C108.1922016 41.22556549 103.86434008 41.29494021 96.6091156 41.26069641 C95.39391991 41.26091545 95.39391991 41.26091545 94.1541748 41.26113892 C91.48125006 41.26044326 88.80839533 41.25266708 86.13548279 41.24482727 C84.2803196 41.24296186 82.42515592 41.24153854 80.56999207 41.24053955 C75.69066504 41.23672407 70.81136786 41.22690204 65.93205261 41.21583557 C60.07582211 41.20380067 54.21958162 41.1992146 48.36334229 41.19338226 C39.46966005 41.18368979 30.57604325 41.16452643 21.68235779 41.14717102 C22.01235779 53.35717102 22.34235779 65.56717102 22.68235779 78.14717102 C27.48669373 78.10076477 32.29102966 78.05435852 37.24095154 78.00654602 C40.29891608 77.98608886 43.35679532 77.9668319 46.41477966 77.95185852 C51.26025588 77.92801961 56.10542749 77.89993 60.95066833 77.84541321 C64.86050805 77.80170044 68.77002076 77.7779808 72.68008614 77.76766205 C74.16593124 77.76031596 75.65176003 77.74597143 77.13746452 77.72425079 C87.07929239 77.58478816 94.88861168 78.05251288 102.68235779 84.70967102 C106.31786697 89.14044784 105.92942288 93.50239958 105.99485779 98.95967102 C106.03836365 100.15173157 106.03836365 100.15173157 106.08274841 101.36787415 C106.14105734 106.79060462 105.39636852 109.9281041 101.68235779 114.14717102 C97.07675353 117.82269715 94.06538694 118.64125313 88.20823669 118.60127258 C87.48559631 118.60185669 86.76295593 118.6024408 86.01841736 118.6030426 C83.64808316 118.6002729 81.27903267 118.56923634 78.90892029 118.53779602 C77.25840441 118.53032961 75.60787962 118.52463856 73.95735168 118.52064514 C69.62690984 118.5054202 65.2970102 118.46616604 60.96678162 118.42182922 C55.76388757 118.37358794 50.56081157 118.3553275 45.35775757 118.33201599 C37.4655813 118.2933125 29.57459317 118.21663813 21.68235779 118.14717102 C22.01235779 132.99717102 22.34235779 147.84717102 22.68235779 163.14717102 C31.07995544 163.09496399 31.07995544 163.09496399 39.64720154 163.04170227 C43.20645684 163.02636296 46.76567105 163.01192033 50.32493591 163.00068665 C55.96703112 162.98279441 61.60897943 162.96169038 67.2509613 162.92085266 C71.80268521 162.88811484 76.35425145 162.87028772 80.90608406 162.86253929 C82.63751772 162.85702157 84.36894333 162.8462471 86.10030937 162.82998085 C106.46345556 162.64637981 106.46345556 162.64637981 113.61985779 168.58467102 C117.73120793 173.6927121 118.07299762 177.5502413 118.11985779 183.95967102 C118.15272888 184.74148743 118.18559998 185.52330383 118.21946716 186.32881165 C118.26613591 191.40721982 117.35401911 194.54907329 114.34666443 198.64595032 C108.74338949 203.70015856 102.95917188 203.5828468 95.83103943 203.55122375 C94.74900742 203.55808701 93.6669754 203.56495026 92.55215454 203.57202148 C88.98214018 203.59029439 85.41256505 203.58645113 81.84251404 203.58076477 C79.35678972 203.58532628 76.87106667 203.59063176 74.38534546 203.59664917 C68.511238 203.60672442 62.63728656 203.60061901 56.76318592 203.58939558 C50.76042539 203.58017874 44.75807855 203.60485647 38.75536442 203.63113308 C33.62262619 203.64948992 28.49001494 203.64920359 23.35725212 203.64349556 C20.89850052 203.64334229 18.43974034 203.64939151 15.98101997 203.66178703 C12.54136685 203.6766849 9.10269341 203.66602754 5.66307068 203.64888 C4.14403641 203.66338196 4.14403641 203.66338196 2.59431458 203.67817688 C-3.58170756 203.61379284 -7.28974879 202.81360393 -12.31764221 199.14717102 C-16.57555286 193.65670729 -17.44231701 189.83855866 -17.4758606 182.99087524 C-17.48079857 182.2573561 -17.48573655 181.52383695 -17.49082416 180.76808995 C-17.50621454 178.30371368 -17.51456395 175.8393635 -17.52296448 173.37495422 C-17.53254179 171.610985 -17.54255179 169.84701808 -17.55296326 168.08305359 C-17.58003428 163.28794433 -17.60103195 158.4928252 -17.62096524 153.69768167 C-17.64281124 148.68881695 -17.67020671 143.67998272 -17.69702148 138.67114258 C-17.74696713 129.18332151 -17.79189902 119.69548354 -17.83504385 110.20762938 C-17.88440023 99.40726151 -17.93932428 88.60692421 -17.99472344 77.80658591 C-18.10857223 55.58680943 -18.21540497 33.36700376 -18.31764221 11.14717102 C-17.65764221 11.14717102 -16.99764221 11.14717102 -16.31764221 11.14717102 C-15.10024202 9.68512063 -15.10024202 9.68512063 -13.94264221 7.83467102 C-10.23115298 2.43117935 -6.66624923 0.03719427 0 0 Z " fill="#FDFDFD" transform="translate(986.3176422119141,306.8528289794922)"/>
<path d="M0 0 C11.69397411 9.63905475 17.85362661 22.42168945 20.9375 37 C22.54107514 56.24290166 19.1343654 71.28948817 7.25 86.75 C7.84167969 87.35585938 8.43335938 87.96171875 9.04296875 88.5859375 C14.38094845 94.24611173 18.34905085 99.52046924 21.25 106.75 C21.55679687 107.49378906 21.86359375 108.23757813 22.1796875 109.00390625 C27.70402049 124.55095765 25.86752011 142.81479018 19.66796875 157.77734375 C17.59948947 162.11374245 15.15940351 165.93611872 12.25 169.75 C11.83492187 170.34039062 11.41984375 170.93078125 10.9921875 171.5390625 C3.47665237 181.39476426 -8.23291538 187.08125127 -19.75 190.75 C-20.4203125 190.98332031 -21.090625 191.21664062 -21.78125 191.45703125 C-39.78263484 196.94429549 -62.16535317 193.4333288 -78.5 184.9375 C-93.50500346 176.24810032 -105.98124021 163.85175926 -110.75 146.75 C-110.255 145.76 -110.255 145.76 -109.75 144.75 C-110.41 144.75 -111.07 144.75 -111.75 144.75 C-113.83025999 137.22404423 -114.24040838 127.38825368 -111.84375 119.9296875 C-109.35391837 115.73208675 -106.18149242 112.84032661 -101.75 110.75 C-94.62254373 108.97122409 -88.45099736 109.86451715 -81.75 112.75 C-77.39564856 115.43672749 -75.78283348 118.11361776 -73.75 122.75 C-72.91699282 126.51664118 -72.30666204 130.28612925 -71.69140625 134.09375 C-70.24007764 139.73044536 -67.51553747 143.61008785 -62.8125 147 C-62.16410156 147.47953125 -61.51570313 147.9590625 -60.84765625 148.453125 C-55.0339314 152.04745768 -49.41803262 152.33497722 -42.75 152.75 C-41.99332031 152.83894531 -41.23664063 152.92789063 -40.45703125 153.01953125 C-33.3544747 153.57583349 -27.59100509 150.5916177 -21.75 146.75 C-19.78496402 144.7704082 -18.97811492 143.31787666 -17.75 140.75 C-17.3375 140.09 -16.925 139.43 -16.5 138.75 C-15.48110112 136.03293631 -15.62222204 133.6250041 -15.75 130.75 C-15.75 129.18527936 -15.60583979 127.62363697 -15.5 126.0625 C-15.54887416 121.500912 -16.56584832 119.16159109 -19.75 115.75 C-28.50099772 109.57986294 -38.72454188 108.88749157 -49.10546875 108.5546875 C-50.03770264 108.5227832 -50.96993652 108.49087891 -51.93041992 108.45800781 C-53.77515811 108.40369913 -55.62057962 108.36842663 -57.46606445 108.35449219 C-64.28859732 108.18256564 -68.08764443 106.48842287 -72.9375 101.5 C-76.97723805 95.37074227 -78.90545649 89.10640633 -77.75 81.75 C-75.71399954 75.56537493 -72.52974136 72.00755773 -66.93798828 68.66772461 C-64.25578555 67.54270786 -62.14770162 67.47860656 -59.2421875 67.44140625 C-58.17226562 67.41626953 -57.10234375 67.39113281 -56 67.36523438 C-53.77348999 67.33044516 -51.5469228 67.29911961 -49.3203125 67.27148438 C-39.15625436 67.02224611 -30.86754062 65.76057277 -23.3125 58.6015625 C-21.26058281 56.17004063 -20.35628981 53.85723529 -19.75 50.75 C-19.42 50.75 -19.09 50.75 -18.75 50.75 C-18.21022167 43.32804801 -19.69299617 37.37895939 -24.56640625 31.59375 C-29.75520751 27.21250815 -37.77715215 26.1906353 -44.4296875 26.46484375 C-51.79247365 27.36969794 -59.56659458 29.09923835 -64.75 34.75 C-67.85707336 39.50831675 -68.94172386 44.3693755 -69.75 49.9375 C-70.67454259 56.21004328 -72.36970628 59.83449736 -77.390625 63.875 C-81.30014628 66.05705839 -84.39110482 66.34832094 -88.75 66.25 C-89.77867188 66.27320313 -89.77867188 66.27320313 -90.828125 66.296875 C-95.93531604 66.25788881 -98.80725467 64.9065258 -102.75 61.75 C-106.18739487 58.21970256 -107.29420068 55.64984267 -107.75 50.75 C-108.41 50.75 -109.07 50.75 -109.75 50.75 C-110.77059967 34.34480525 -105.51805836 19.54488015 -94.9296875 7.05859375 C-85.17144552 -3.27674857 -71.81852024 -10.78800896 -57.75 -13.25 C-56.85667969 -13.41628906 -55.96335937 -13.58257812 -55.04296875 -13.75390625 C-35.6636285 -16.67345099 -15.85032833 -11.44447435 0 0 Z M-108.75 40.75 C-107.75 42.75 -107.75 42.75 -107.75 42.75 Z M-19.75 53.75 C-18.75 55.75 -18.75 55.75 -18.75 55.75 Z M-76.75 81.75 C-75.75 83.75 -75.75 83.75 -75.75 83.75 Z " fill="#FDFDFD" transform="translate(1226.75,319.25)"/>
<path d="M0 0 C3.0249353 0.46537466 6.04496437 0.90181877 9.08984375 1.21484375 C12.85820427 1.61483732 15.69476568 2.18745215 19 4 C24.04221766 5.87847325 27.77075572 6.07292834 32.984375 5.2890625 C35 5 35 5 38 5 C37.525625 5.598125 37.05125 6.19625 36.5625 6.8125 C33.85358898 10.60497543 33.527583 14.23458763 33.6015625 18.76953125 C33.87954931 21.34672077 33.87954931 21.34672077 36.4375 24.0625 C39.77565574 26.33528688 42.84976284 26.64570524 46.82421875 26.4453125 C50.07642712 25.77968996 52.3412955 23.91674045 55 22 C58.35631837 22.09871525 60.53393892 23.79815975 63 26 C63 26.66 63 27.32 63 28 C63.66 28 64.32 28 65 28 C66 29.66666667 67 31.33333333 68 33 C69.2065625 34.2065625 69.2065625 34.2065625 70.4375 35.4375 C73.89585722 38.89585722 76.44831853 42.34495558 78 47 C79.32203862 47.68879323 80.65700796 48.35301113 82 49 C83.703125 50.65625 83.703125 50.65625 85.25 52.5 C86.03117187 53.41265625 86.03117187 53.41265625 86.828125 54.34375 C88 56 88 56 88 58 C88.99 58.33 89.98 58.66 91 59 C93.75968971 62.67361292 94.9849044 66.10935981 95.0625 70.6875 C93.80342375 74.61285536 92.11107627 76.35558517 89 79 C88.67 79.33 88.34 79.66 88 80 C81.12518749 80.84427522 81.12518749 80.84427522 78.21435547 78.66015625 C77.62541504 78.11230469 77.03647461 77.56445312 76.4296875 77 C71.39626635 73.03884244 66.88222802 73.26986814 60.6875 73.5625 C59.69943359 73.58119141 58.71136719 73.59988281 57.69335938 73.61914062 C52.25771404 73.74974355 52.25771404 73.74974355 47 75 C45.29377207 75.15104313 43.58484293 75.27270171 41.875 75.375 C36.52650237 75.82599321 31.98127079 77.0607968 27 79 C25.64643113 79.52238494 24.29227712 80.04325663 22.9375 80.5625 C22.36902344 80.79066406 21.80054688 81.01882813 21.21484375 81.25390625 C16.31765412 82.90357683 11.22618709 83.94983815 6.1953125 85.11328125 C-1.97554273 87.02983271 -9.41894161 88.82254921 -16.765625 93.00390625 C-20.24457412 94.55483636 -23.68563172 94.65587445 -27.45703125 94.76171875 C-30.35628911 95.033385 -32.43049809 95.62633894 -35 97 C-36.37967524 100.53514293 -36.37967524 100.53514293 -37 104 C-35.824375 105.1446875 -35.824375 105.1446875 -34.625 106.3125 C-31.44548407 109.56771869 -29.69913281 111.64646826 -29.5625 116.1875 C-29.66717207 121.55194361 -31.91393357 124.77989711 -35 129 C-35.515625 129.86625 -36.03125 130.7325 -36.5625 131.625 C-38.28959464 134.47846071 -40.13747565 137.23282096 -42 140 C-42.75216797 141.16208984 -42.75216797 141.16208984 -43.51953125 142.34765625 C-44.04933594 143.16105469 -44.57914063 143.97445312 -45.125 144.8125 C-45.62257812 145.58207031 -46.12015625 146.35164062 -46.6328125 147.14453125 C-48 149 -48 149 -50 150 C-50.33 150.99 -50.66 151.98 -51 153 C-51.45375 153.433125 -51.9075 153.86625 -52.375 154.3125 C-54.23448973 156.05823489 -54.23448973 156.05823489 -55.4375 159.125 C-57 162 -57 162 -59.1875 162.875 C-59.785625 162.91625 -60.38375 162.9575 -61 163 C-60.5978125 163.804375 -60.5978125 163.804375 -60.1875 164.625 C-59.795625 165.40875 -59.40375 166.1925 -59 167 C-58.46375 167.845625 -57.9275 168.69125 -57.375 169.5625 C-55.43250527 174.41873682 -55.17385794 178.83857915 -56 184 C-58.67483016 187.97171752 -61.20871194 189.40248294 -65.8359375 190.47265625 C-68.67452889 191.16437076 -71.41508365 192.07923399 -74.1875 193 C-75.19167969 193.33 -76.19585937 193.66 -77.23046875 194 C-79.93928649 194.91067593 -79.93928649 194.91067593 -82.12890625 196.09765625 C-85.36347557 197.6575425 -88.54582524 197.60992635 -92 197 C-95.03161109 195.73290176 -97.58327241 194.23501875 -100 192 C-100.875 189.25 -100.875 189.25 -101 187 C-101.66 186.67 -102.32 186.34 -103 186 C-103.33 179.4 -103.66 172.8 -104 166 C-103.34 166 -102.68 166 -102 166 C-100.59585169 164.53798428 -100.59585169 164.53798428 -99.1875 162.6875 C-96.73157877 159.7211795 -94.53537478 157.66948253 -91 156 C-90.34 156 -89.68 156 -89 156 C-89.00523682 154.95473145 -89.01047363 153.90946289 -89.01586914 152.83251953 C-89.17545866 117.78377761 -89.17545866 117.78377761 -88.625 102.3125 C-88.59414307 101.32588379 -88.56328613 100.33926758 -88.53149414 99.32275391 C-88.14845912 90.07735562 -86.58994569 81.06971158 -84.5 72.0625 C-84.2628125 71.02222656 -84.025625 69.98195313 -83.78125 68.91015625 C-83.0430191 66.16024615 -82.11759002 63.61573871 -81 61 C-80.34 61 -79.68 61 -79 61 C-78.87882812 60.39671875 -78.75765625 59.7934375 -78.6328125 59.171875 C-78.46523437 58.37265625 -78.29765625 57.5734375 -78.125 56.75 C-77.88136719 55.56664062 -77.88136719 55.56664062 -77.6328125 54.359375 C-77.00849925 52.03168856 -76.15161458 50.10968048 -75 48 C-74.34 48 -73.68 48 -73 48 C-72.87882812 47.39671875 -72.75765625 46.7934375 -72.6328125 46.171875 C-72.46523437 45.37265625 -72.29765625 44.5734375 -72.125 43.75 C-71.88136719 42.56664062 -71.88136719 42.56664062 -71.6328125 41.359375 C-70.79234898 38.22579496 -69.84447316 35.77691531 -67.4375 33.5625 C-65.79857469 32.07803889 -65.79857469 32.07803889 -65.69140625 29.80078125 C-64.78031071 26.11007221 -62.81057856 23.55745919 -60.5 20.625 C-60.05366211 20.05426758 -59.60732422 19.48353516 -59.14746094 18.89550781 C-53.85478197 12.32360891 -48.67961442 6.9644016 -40 6 C-36.65247442 4.18621008 -36.65247442 4.18621008 -34 2 C-34 1.34 -34 0.68 -34 0 C-29.80103014 -0.168035 -25.60185961 -0.32854866 -21.40234375 -0.48217773 C-19.97453122 -0.53546157 -18.54679306 -0.59077975 -17.11914062 -0.64819336 C-15.06396518 -0.73048625 -13.00863107 -0.80539678 -10.953125 -0.87890625 C-9.71723633 -0.9260376 -8.48134766 -0.97316895 -7.20800781 -1.02172852 C-4.50457836 -1.00341762 -2.54919925 -0.77665416 0 0 Z M-59 21 C-58 23 -58 23 -58 23 Z M-75 50 C-74 52 -74 52 -74 52 Z M-82 67 C-82 68.65 -82 70.3 -82 72 C-81.67 72 -81.34 72 -81 72 C-81 70.35 -81 68.7 -81 67 C-81.33 67 -81.66 67 -82 67 Z M-85 79 C-85 80.65 -85 82.3 -85 84 C-84.67 84 -84.34 84 -84 84 C-84 82.35 -84 80.7 -84 79 C-84.33 79 -84.66 79 -85 79 Z M-87 88 C-86 90 -86 90 -86 90 Z " fill="#D5DF43" transform="translate(145,198)"/>
<path d="M0 0 C0 0.66 0 1.32 0 2 C1.37285156 2.19916016 1.37285156 2.19916016 2.7734375 2.40234375 C4.55621094 2.66724609 4.55621094 2.66724609 6.375 2.9375 C7.55835938 3.11152344 8.74171875 3.28554687 9.9609375 3.46484375 C13 4 13 4 15 5 C16.49579604 5.20092783 17.99696724 5.36336066 19.5 5.5 C23.77777778 5.88888889 23.77777778 5.88888889 26 7 C27.99551782 7.35919321 29.99548879 7.69496569 32 8 C32 8.66 32 9.32 32 10 C33.11375 10.0928125 33.11375 10.0928125 34.25 10.1875 C38.80826298 11.53425952 40.46102141 15.19153212 43 19 C43.52562592 23.55542464 43.19144494 27.42826918 40.75390625 31.421875 C36.80441132 34.97554082 31.05725002 35.82338547 26 37 C28.92668555 44.06720382 31.04426441 47.71899265 38 51 C38.66 51.99 39.32 52.98 40 54 C42.56282742 54.72965366 42.56282742 54.72965366 45 55 C45 55.66 45 56.32 45 57 C45.56203125 57.268125 46.1240625 57.53625 46.703125 57.8125 C49.15550646 59.0803979 51.43927683 60.48972342 53.75 62 C54.54921875 62.515625 55.3484375 63.03125 56.171875 63.5625 C56.77515625 64.036875 57.3784375 64.51125 58 65 C58 65.66 58 66.32 58 67 C59.485 67.495 59.485 67.495 61 68 C61.99 69.485 61.99 69.485 63 71 C64.94832935 72.00168531 64.94832935 72.00168531 67.125 72.6875 C67.84945312 72.93886719 68.57390625 73.19023437 69.3203125 73.44921875 C69.87460937 73.63097656 70.42890625 73.81273437 71 74 C71 74.66 71 75.32 71 76 C72.051875 76.144375 73.10375 76.28875 74.1875 76.4375 C77.15460549 76.87526966 80.06794366 77.37804866 83 78 C83 78.33 83 78.66 83 79 C83.66386719 79.08636719 84.32773437 79.17273438 85.01171875 79.26171875 C90.85889686 80.19214563 94.2139497 81.1147738 98 86 C99.77422264 89.54844528 99.60433738 93.13475885 99 97 C97.71190022 100.40603308 96.21733916 102.263399 93 104 C85.91383565 104.93383561 79.00061819 104.29641078 72 103 C62.37135489 117.00352391 62.37135489 117.00352391 54.80078125 132.16015625 C54 134 54 134 52.375 136.4375 C50.29141857 140.02241376 50.29141857 140.02241376 49 149 C34.81 148.67 20.62 148.34 6 148 C4.35 144.37 2.7 140.74 1 137 C-1.86537246 132.70194132 -4.43501984 129.33951986 -8.4375 126.125 C-12.89453058 122.52356011 -16.09516663 117.90908011 -19 113 C-19 112.34 -19 111.68 -19 111 C-19.61875 110.71125 -20.2375 110.4225 -20.875 110.125 C-23 109 -23 109 -25 107 C-25 106.01 -25 105.02 -25 104 C-25.66 104 -26.32 104 -27 104 C-28.1446875 102.7315625 -28.1446875 102.7315625 -29.3125 101.4375 C-31.71164353 98.71307904 -31.71164353 98.71307904 -34.5625 99 C-37.03419913 99.85595549 -37.03419913 99.85595549 -38.75 101.5625 C-42.37630225 103.87930421 -45.83827587 103.83793103 -50 103 C-53.07386776 101.5191586 -55.12560619 99.86122419 -57 97 C-58.05514162 92.60999473 -57.51357604 89.1494321 -55.6875 85.0625 C-54 83 -54 83 -51 81 C-51.33 80.34 -51.66 79.68 -52 79 C-51.08476562 78.59007812 -50.16953125 78.18015625 -49.2265625 77.7578125 C-48.03804687 77.21898437 -46.84953125 76.68015625 -45.625 76.125 C-44.44164062 75.59132813 -43.25828125 75.05765625 -42.0390625 74.5078125 C-38.97752957 73.1903011 -38.97752957 73.1903011 -37 71 C-36.319375 70.690625 -35.63875 70.38125 -34.9375 70.0625 C-32.65434116 69.09596458 -32.65434116 69.09596458 -32 66 C-30.515 65.505 -30.515 65.505 -29 65 C-28.31011941 63.44776867 -27.63392617 61.88831505 -27.01953125 60.3046875 C-25.23452073 56.26960625 -22.87981139 52.55349047 -20.62109375 48.76953125 C-19.31792438 46.54315273 -18.11493683 44.32417181 -17 42 C-17.54269531 41.76925781 -18.08539063 41.53851563 -18.64453125 41.30078125 C-23.14463507 39.24938257 -26.1707451 37.84214534 -28 33 C-29.63849653 25.2518554 -29.63849653 25.2518554 -28.0078125 22.0546875 C-26.71842546 19.42593718 -26.90216542 17.59407808 -27.0625 14.6875 C-27.13140769 9.52631411 -26.82233684 6.37006995 -24 2 C-17.48641725 -2.48713478 -7.34905724 -2.44968575 0 0 Z M-17 0 C-17 0.33 -17 0.66 -17 1 C-15.35 1 -13.7 1 -12 1 C-12 0.67 -12 0.34 -12 0 C-13.65 0 -15.3 0 -17 0 Z " fill="#D5433D" transform="translate(235,122)"/>
<path d="M0 0 C3.10489399 0.10991566 6.20857994 0.24053415 9.3125 0.375 C10.63411133 0.42140625 10.63411133 0.42140625 11.98242188 0.46875 C12.82998047 0.50742188 13.67753906 0.54609375 14.55078125 0.5859375 C15.72120972 0.63306885 15.72120972 0.63306885 16.9152832 0.68115234 C19 1 19 1 22 3 C23.32 3 24.64 3 26 3 C26 3.66 26 4.32 26 5 C27.0828125 5.3403125 27.0828125 5.3403125 28.1875 5.6875 C37.00593332 9.80276888 41.28720441 19.77736829 44.5 28.4375 C44.89574219 29.52675781 45.29148437 30.61601562 45.69921875 31.73828125 C47.38871635 35.97470918 49.55177639 39.83349443 51.86328125 43.7578125 C53 46 53 46 53 49 C53.61488281 49.24621094 54.22976563 49.49242187 54.86328125 49.74609375 C58.67025934 51.98017047 59.69091643 55.94121457 61 60 C61.55221109 63.0303154 61.80423762 65.91674247 62 69 C62.33 69 62.66 69 63 69 C63.91295704 74.44045553 64.14827121 79.68157951 64.14526367 85.19238281 C64.14862228 86.08591461 64.1519809 86.97944641 64.15544128 87.90005493 C64.16489104 90.83442599 64.16689081 93.76873971 64.16796875 96.703125 C64.17118348 98.74859643 64.17454772 100.79406763 64.17805481 102.83953857 C64.18402965 107.11633844 64.1858962 111.39311813 64.18530273 115.66992188 C64.18520074 121.15678741 64.1988982 126.64352462 64.21607494 132.13035965 C64.22717212 136.34931029 64.22922271 140.56822955 64.22869301 144.7871933 C64.22987483 146.81104732 64.23430788 148.83490211 64.24202538 150.85874176 C64.2517871 153.68098602 64.24896331 156.50294681 64.24291992 159.32519531 C64.24853943 160.16368011 64.25415894 161.00216492 64.25994873 161.86605835 C64.2386589 165.76472975 64.21270292 167.68094563 62 171 C61.55314993 172.98223551 61.55314993 172.98223551 61.37744141 175.17675781 C61.29039948 176.01482971 61.20335754 176.85290161 61.11367798 177.71636963 C60.98393082 179.07106354 60.98393082 179.07106354 60.8515625 180.453125 C60.64886159 182.37113862 60.44572267 184.28910598 60.2421875 186.20703125 C59.93133455 189.22583502 59.62549487 192.24497393 59.328125 195.26513672 C59.03747266 198.18361132 58.72694495 201.09946156 58.4140625 204.015625 C58.33161285 204.91065735 58.24916321 205.8056897 58.16421509 206.72784424 C57.69622367 210.99273101 57.09788644 214.24178662 54.84912109 217.93652344 C54.23891113 218.9474707 53.62870117 219.95841797 53 221 C53.33 221.99 53.66 222.98 54 224 C54.66 224.165 55.32 224.33 56 224.5 C56.66 224.665 57.32 224.83 58 225 C58.33 225.99 58.66 226.98 59 228 C59.804375 228.763125 60.60875 229.52625 61.4375 230.3125 C66.2266273 235.33524327 66.44781051 240.68264871 66.3203125 247.3671875 C65.83773121 251.3337703 64.74123267 253.10647663 62 256 C59.875 256.625 59.875 256.625 58 257 C57.71125 257.639375 57.4225 258.27875 57.125 258.9375 C56 261 56 261 53.625 262.109375 C48.6743758 263.32569215 43.95386422 263.32918484 38.875 263.3125 C37.88628906 263.32861328 36.89757812 263.34472656 35.87890625 263.36132812 C34.92628906 263.36197266 33.97367187 263.36261719 32.9921875 263.36328125 C31.69837158 263.36775269 31.69837158 263.36775269 30.37841797 263.37231445 C27.49798829 262.92141574 26.10024846 261.99362607 24 260 C24 259.34 24 258.68 24 258 C23.401875 257.79375 22.80375 257.5875 22.1875 257.375 C18.97970932 255.35867443 18.31296925 253.56377369 17 250 C15.31378525 242.21932337 16.09127023 236.89330251 20 230 C20.33 229.34 20.66 228.68 21 228 C23.0625 227.375 23.0625 227.375 25 227 C24.21625 226.278125 23.4325 225.55625 22.625 224.8125 C20.15587562 222.16700959 19.06739722 220.39626389 18 217 C17.34 217 16.68 217 16 217 C15.70867187 216.46632813 15.41734375 215.93265625 15.1171875 215.3828125 C12.90087572 211.35442191 10.63045323 207.39533912 8.1875 203.5 C4.98701382 198.23734489 2.46919039 192.71315104 -0.09545898 187.1237793 C-1.83299449 183.369409 -3.60722035 179.78441044 -5.875 176.3125 C-8.60393077 172.05857851 -10.15726795 168.96584937 -9.75 163.875 C-8.45783133 158.92168675 -8.45783133 158.92168675 -7 157 C-3.20578271 154.8425039 -0.69210876 153.98826934 3.6875 154.0625 C9.15451382 155.60976806 11.28160825 159.14950219 14 163.98632812 C14.495 164.8902832 14.495 164.8902832 15 165.8125 C15.495 166.69905273 15.495 166.69905273 16 167.60351562 C16.66895794 168.80162975 17.33503915 170.00135443 17.99829102 171.20263672 C18.98836329 172.97912029 20.00565152 174.73764927 21.02734375 176.49609375 C23.37804712 180.595183 25.41424314 184.83636917 27.44335938 189.1015625 C28.95556316 192.20039621 30.3366755 194.7657217 33 197 C34.32991859 194.34016283 34.41206118 191.96531598 34.71875 189.00390625 C34.84636719 187.80572266 34.97398437 186.60753906 35.10546875 185.37304688 C35.23566406 184.11556641 35.36585938 182.85808594 35.5 181.5625 C35.75737422 179.08431755 36.01765482 176.60643472 36.28125 174.12890625 C36.39533203 173.02619385 36.50941406 171.92348145 36.62695312 170.78735352 C37 168 37 168 38 165 C38.09655585 162.20768892 38.13640982 159.44054081 38.12939453 156.64819336 C38.13114685 155.79575043 38.13289917 154.9433075 38.13470459 154.06503296 C38.13911385 151.23994931 38.13618652 148.41492807 38.1328125 145.58984375 C38.13348624 143.62268563 38.13445685 141.65552759 38.13571167 139.68836975 C38.13718775 135.55827037 38.13503857 131.42819258 38.13037109 127.2980957 C38.12470005 122.02483092 38.12793665 116.75161732 38.13394356 111.47835445 C38.137574 107.41095094 38.13639876 103.34355936 38.13381577 99.27615547 C38.13315199 97.33345089 38.13395557 95.3907452 38.13629532 93.44804192 C38.13885976 90.71785537 38.1349272 87.987749 38.12939453 85.25756836 C38.13243088 84.07024361 38.13243088 84.07024361 38.13552856 82.8589325 C38.47547437 71.54891222 38.47547437 71.54891222 34.3125 61.5 C33.77238281 60.75878906 33.23226562 60.01757812 32.67578125 59.25390625 C32.12277344 58.51011719 31.56976563 57.76632813 31 57 C26.60837847 50.57626567 23.6768474 44.03976339 21.1796875 36.70874023 C19.66246981 32.35158844 18.01976984 28.57230019 15 25 C7.27490994 22.88337316 -3.63089367 25.30443426 -11 28 C-14.42896307 30.8662861 -16.52007788 33.35752897 -18 37.5625 C-18.31839844 38.42230469 -18.63679688 39.28210938 -18.96484375 40.16796875 C-19.30644531 41.10253906 -19.64804687 42.03710938 -20 43 C-20.84108057 45.13021341 -21.69543851 47.25522877 -22.5625 49.375 C-22.95566406 50.35210937 -23.34882813 51.32921875 -23.75390625 52.3359375 C-24.93367089 54.85819293 -26.24316601 56.85106104 -28 59 C-28 58.01 -28 57.02 -28 56 C-28.66 56 -29.32 56 -30 56 C-30.24234375 55.44570312 -30.4846875 54.89140625 -30.734375 54.3203125 C-31.06953125 53.59585938 -31.4046875 52.87140625 -31.75 52.125 C-32.07484375 51.40570313 -32.3996875 50.68640625 -32.734375 49.9453125 C-34.2649829 47.59271147 -35.38516941 46.96133478 -38 46 C-40.66353755 45.48479018 -43.29499131 45.27050087 -46 45 C-45.18720764 40.32644393 -43.62516467 36.13646047 -41.9375 31.71875 C-41.05170509 29.14994477 -40.46494566 26.67343752 -40 24 C-39.34 24 -38.68 24 -38 24 C-37.87238281 23.42636719 -37.74476563 22.85273438 -37.61328125 22.26171875 C-36.99220506 19.97125307 -36.19794184 17.95817928 -35.1875 15.8125 C-34.87167969 15.11769531 -34.55585938 14.42289063 -34.23046875 13.70703125 C-32.6599234 11.52821119 -31.57228807 11.5003075 -29 11 C-28.34 10.34 -27.68 9.68 -27 9 C-25.35008418 8.29289322 -23.68437744 7.62056011 -22 7 C-22 6.34 -22 5.68 -22 5 C-17.1178102 2.88878279 -12.89571097 2.85730305 -7.68359375 3.02734375 C-4.99203234 2.99991882 -2.61562755 2.61015543 0 2 C0 1.34 0 0.68 0 0 Z M-16 4 C-16 4.33 -16 4.66 -16 5 C-14.35 5 -12.7 5 -11 5 C-11 4.67 -11 4.34 -11 4 C-12.65 4 -14.3 4 -16 4 Z " fill="#41DE4E" transform="translate(364,157)"/>
<path d="M0 0 C3.32083448 0.89073023 6.66671873 1.52950635 10.046875 2.15625 C11.16054443 2.36483643 12.27421387 2.57342285 13.42163086 2.78833008 C15.66031961 3.2037321 17.90069931 3.61014407 20.14282227 4.0065918 C28.58316306 5.60722233 33.63585473 8.16620623 39.3359375 14.734375 C40.10421875 15.61351562 40.8725 16.49265625 41.6640625 17.3984375 C42.40140625 18.25179687 43.13875 19.10515625 43.8984375 19.984375 C44.53265625 20.69335938 45.166875 21.40234375 45.8203125 22.1328125 C48.67788813 25.33177991 51.34293716 28.5553342 53.8359375 32.046875 C56.46392347 35.65419087 59.44602341 38.3273882 62.96875 41.05078125 C65.63805841 43.72549312 67.1170431 46.65514679 68.8984375 49.984375 C68.24770264 49.97913818 67.59696777 49.97390137 66.92651367 49.96850586 C63.97966476 49.94772562 61.03283127 49.9347115 58.0859375 49.921875 C57.06177734 49.91349609 56.03761719 49.90511719 54.98242188 49.89648438 C53.99951172 49.89326172 53.01660156 49.89003906 52.00390625 49.88671875 C51.09793701 49.88148193 50.19196777 49.87624512 49.25854492 49.87084961 C46.74559711 49.88516519 46.74559711 49.88516519 43.8984375 50.984375 C42.19220957 51.13541813 40.48328043 51.25707671 38.7734375 51.359375 C33.42493987 51.81036821 28.87970829 53.0451718 23.8984375 54.984375 C22.54486863 55.50675994 21.19071462 56.02763163 19.8359375 56.546875 C19.26746094 56.77503906 18.69898438 57.00320313 18.11328125 57.23828125 C13.21609162 58.88795183 8.12462459 59.93421315 3.09375 61.09765625 C-5.07710523 63.01420771 -12.52050411 64.80692421 -19.8671875 68.98828125 C-23.34613662 70.53921136 -26.78719422 70.64024945 -30.55859375 70.74609375 C-33.43762565 71.01586479 -35.53974038 71.64503642 -38.1015625 72.984375 C-38.3696875 73.95375 -38.6378125 74.923125 -38.9140625 75.921875 C-40.1015625 78.984375 -40.1015625 78.984375 -41.8203125 80.0078125 C-45.49146795 81.39134496 -49.22167661 82.37814283 -53.1015625 82.984375 C-53.3284375 83.809375 -53.5553125 84.634375 -53.7890625 85.484375 C-55.35097307 89.64946986 -57.33006357 93.4844693 -60.1015625 96.984375 C-60.7615625 96.984375 -61.4215625 96.984375 -62.1015625 96.984375 C-62.3696875 97.726875 -62.6378125 98.469375 -62.9140625 99.234375 C-64.05406459 101.87437984 -65.31593599 103.75234186 -67.1015625 105.984375 C-67.7615625 106.974375 -68.4215625 107.964375 -69.1015625 108.984375 C-70.50176402 103.04659659 -70.03516533 97.28917898 -69.7890625 91.234375 C-69.75361328 90.09226562 -69.71816406 88.95015625 -69.68164062 87.7734375 C-69.37867885 79.90547496 -68.23879994 72.90954155 -66.0546875 65.37109375 C-65.06639268 61.85940683 -64.45292432 58.39348127 -63.8515625 54.796875 C-62.70030066 48.53217605 -60.61275427 43.33136063 -57.5703125 37.74609375 C-56.21188097 35.19180893 -55.16367976 32.6945442 -54.1640625 29.984375 C-49.58959889 18.19706422 -43.37613777 7.94075439 -32.1015625 1.984375 C-30.35007085 0.40192225 -30.35007085 0.40192225 -29.1015625 -1.015625 C-21.47745307 -4.82767971 -7.84565788 -2.13789135 0 0 Z " fill="#808D1A" transform="translate(148.1015625,222.015625)"/>
<path d="M0 0 C0.99 0 1.98 0 3 0 C6 5.75 6 5.75 6 8 C6.639375 8.268125 7.27875 8.53625 7.9375 8.8125 C10 10 10 10 11 13 C12.83605894 14.07212634 12.83605894 14.07212634 15 15 C16.40984421 15.89496803 17.80505626 16.81326216 19.1875 17.75 C21.52641285 19.33220575 23.86332729 20.91159283 26.234375 22.4453125 C32.0812541 26.23956383 37.88007842 30.25418543 43 35 C43 35.66 43 36.32 43 37 C43.79664063 37.22429687 44.59328125 37.44859375 45.4140625 37.6796875 C50.02076296 39.37583647 54.11719741 41.70070092 58.375 44.125 C59.20644531 44.59292969 60.03789062 45.06085938 60.89453125 45.54296875 C62.93234954 46.69070549 64.96735569 47.84313282 67 49 C66.46340945 53.5610197 64.63323234 56.28996372 62 60 C57.80211706 66.53459513 53.75799787 72.95601179 50.80078125 80.16015625 C50 82 50 82 48.375 84.4375 C46.29141857 88.02241376 46.29141857 88.02241376 45 97 C30.81 96.67 16.62 96.34 2 96 C0.35 92.37 -1.3 88.74 -3 85 C-5.86537246 80.70194132 -8.43501984 77.33951986 -12.4375 74.125 C-16.89453058 70.52356011 -20.09516663 65.90908011 -23 61 C-23 60.34 -23 59.68 -23 59 C-23.928125 58.566875 -23.928125 58.566875 -24.875 58.125 C-27 57 -27 57 -29 55 C-29 54.01 -29 53.02 -29 52 C-29.66 52 -30.32 52 -31 52 C-32.7143618 50.04072937 -34.38405168 48.04119788 -36 46 C-34.9171875 45.4121875 -34.9171875 45.4121875 -33.8125 44.8125 C-30.73821254 42.83129252 -28.55634396 40.61579382 -26 38 C-24.73329448 36.93258221 -23.46208078 35.87050163 -22.1875 34.8125 C-17.45563892 30.72467294 -13.78664724 25.94809786 -10 21 C-9.29488281 20.14148438 -8.58976562 19.28296875 -7.86328125 18.3984375 C-3.73760086 13.08781327 -2.0247302 6.33266679 0 0 Z " fill="#8B1567" transform="translate(239,174)"/>
<path d="M0 0 C0.96722992 -0.01815765 1.93445984 -0.03631531 2.93099976 -0.05502319 C3.704543 -0.07720413 4.47808624 -0.09938507 5.27507019 -0.12223816 C7.97632377 0.12738207 10.00403824 0.87787974 12.43173218 2.07705688 C15.72572129 6.73407597 16.38113646 11.53376094 15.43173218 17.07705688 C13.6377955 19.94735557 12.44909941 21.56837327 9.43173218 23.07705688 C-1.31168417 24.8825175 -12.57539145 24.27935829 -23.43154907 24.31533813 C-24.993873 24.32145143 -24.993873 24.32145143 -26.58775902 24.32768822 C-32.08654957 24.348429 -37.58531595 24.36278972 -43.08413696 24.3722229 C-48.75455788 24.38334557 -54.42459271 24.41784659 -60.09487629 24.4573946 C-64.46921014 24.48351551 -68.84345047 24.49191003 -73.21785545 24.49550438 C-75.30902951 24.50037116 -77.40019937 24.51198771 -79.49129677 24.53054237 C-82.41090722 24.55486802 -85.32949545 24.55398237 -88.24917603 24.54702759 C-89.10799377 24.55983765 -89.96681152 24.57264771 -90.85165405 24.58584595 C-96.23878152 24.53909334 -99.28070794 23.64046075 -103.56826782 20.07705688 C-105.70623883 17.38135431 -105.57151163 16.13652666 -105.38076782 12.63955688 C-104.28817809 7.84897112 -103.23920873 5.13283516 -99.01448059 2.4634552 C-94.71966441 0.73566695 -91.19752152 0.63668012 -86.61636353 0.64468384 C-85.29556038 0.62939636 -85.29556038 0.62939636 -83.94807434 0.61380005 C-81.04666741 0.58369382 -78.1455917 0.57440066 -75.24404907 0.56533813 C-73.21630273 0.54847423 -71.18856674 0.5303217 -69.1608429 0.51094055 C-63.82384511 0.46344364 -58.48688908 0.43365339 -53.14974976 0.40750122 C-47.7481528 0.37785038 -42.34670699 0.3311396 -36.94522095 0.28604126 C-27.31758369 0.20854292 -17.68997366 0.1369359 -8.06207275 0.10308838 C-5.37278562 0.09237398 -2.68903414 0.0580698 0 0 Z " fill="#CF43DC" transform="translate(281.5682678222656,450.9229431152344)"/>
<path d="M0 0 C4.10746367 4.79687895 4.71060137 8.62513397 4.625 14.6875 C4.61460693 15.87690186 4.61460693 15.87690186 4.60400391 17.09033203 C4.34525922 24.11074715 2.5323663 29.51345133 -2 35 C-4.9375 37.4375 -4.9375 37.4375 -8 39 C-9.25256372 39.72475385 -10.50253673 40.45400193 -11.75 41.1875 C-17.23025095 44.2437938 -20.90922789 44.18327733 -27.125 44.1875 C-28.05054688 44.19974609 -28.97609375 44.21199219 -29.9296875 44.22460938 C-38.36600063 44.24248292 -45.25258598 43.57773797 -51.5859375 37.5625 C-54.10576216 34.77816336 -55.00967681 32.70634423 -54.98828125 28.93359375 C-54.59642667 23.78723699 -53.28677344 19.66149971 -51 15 C-50.54625 13.948125 -50.0925 12.89625 -49.625 11.8125 C-45.86262613 5.30069908 -38.92955708 2.28030774 -32 0 C-7.39551138 -5.13700192 -7.39551138 -5.13700192 0 0 Z " fill="#405CDC" transform="translate(245,394)"/>
<path d="M0 0 C3.125 1.375 3.125 1.375 5 3 C5 3.66 5 4.32 5 5 C6.32 5.33 7.64 5.66 9 6 C9 6.66 9 7.32 9 8 C9.9590625 8.1546875 9.9590625 8.1546875 10.9375 8.3125 C11.618125 8.539375 12.29875 8.76625 13 9 C13.495 10.485 13.495 10.485 14 12 C15.2065625 13.1446875 15.2065625 13.1446875 16.4375 14.3125 C21.2266273 19.33524327 21.44781051 24.68264871 21.3203125 31.3671875 C20.83773121 35.3337703 19.74123267 37.10647663 17 40 C14.875 40.625 14.875 40.625 13 41 C12.71125 41.639375 12.4225 42.27875 12.125 42.9375 C11 45 11 45 8.625 46.109375 C3.6743758 47.32569215 -1.04613578 47.32918484 -6.125 47.3125 C-7.11371094 47.32861328 -8.10242188 47.34472656 -9.12109375 47.36132812 C-10.07371094 47.36197266 -11.02632813 47.36261719 -12.0078125 47.36328125 C-13.30162842 47.36775269 -13.30162842 47.36775269 -14.62158203 47.37231445 C-17.50201171 46.92141574 -18.89975154 45.99362607 -21 44 C-21 43.34 -21 42.68 -21 42 C-21.598125 41.79375 -22.19625 41.5875 -22.8125 41.375 C-26.02029068 39.35867443 -26.68703075 37.56377369 -28 34 C-29.68621475 26.21932337 -28.90872977 20.89330251 -25 14 C-24.67 13.34 -24.34 12.68 -24 12 C-21.9375 11.375 -21.9375 11.375 -20 11 C-20.33 10.34 -20.66 9.68 -21 9 C-20.1028125 8.6596875 -20.1028125 8.6596875 -19.1875 8.3125 C-16.80208333 7.11458333 -16.80208333 7.11458333 -15.5 4.5 C-12.07952744 -1.20078759 -5.99243943 -0.64861622 0 0 Z " fill="#D5433D" transform="translate(409,373)"/>
<path d="M0 0 C6.20496188 5.13918968 10.53876021 10.05212402 14.12109375 17.28515625 C14.61609375 18.27515625 14.61609375 18.27515625 15.12109375 19.28515625 C15.71649369 24.56720432 16.08904314 28.84789807 13.05859375 33.34765625 C10.43556482 35.07773916 8.33032651 36.05353303 5.28515625 36.7578125 C2.44656486 37.44952701 -0.2939899 38.36439024 -3.06640625 39.28515625 C-4.57267578 39.78015625 -4.57267578 39.78015625 -6.109375 40.28515625 C-8.81819274 41.19583218 -8.81819274 41.19583218 -11.0078125 42.3828125 C-14.24238182 43.94269875 -17.42473149 43.8950826 -20.87890625 43.28515625 C-23.91051734 42.01805801 -26.46217866 40.520175 -28.87890625 38.28515625 C-29.75390625 35.53515625 -29.75390625 35.53515625 -29.87890625 33.28515625 C-30.53890625 32.95515625 -31.19890625 32.62515625 -31.87890625 32.28515625 C-32.20890625 25.68515625 -32.53890625 19.08515625 -32.87890625 12.28515625 C-32.21890625 12.28515625 -31.55890625 12.28515625 -30.87890625 12.28515625 C-29.47475794 10.82314053 -29.47475794 10.82314053 -28.06640625 8.97265625 C-25.61048502 6.00633575 -23.41428103 3.95463878 -19.87890625 2.28515625 C-19.21890625 2.28515625 -18.55890625 2.28515625 -17.87890625 2.28515625 C-17.87890625 1.62515625 -17.87890625 0.96515625 -17.87890625 0.28515625 C-11.32292953 -2.59027214 -6.61350919 -3.93939014 0 0 Z " fill="#D5423E" transform="translate(73.87890625,351.71484375)"/>
<path d="M0 0 C0.97324219 0.16242188 1.94648438 0.32484375 2.94921875 0.4921875 C7.24494907 1.10447241 11.47988815 1.14754612 15.8125 1.125 C16.9562207 1.13080078 16.9562207 1.13080078 18.12304688 1.13671875 C22.19267358 1.22191153 22.19267358 1.22191153 26 0 C24.70193023 6.7499628 20.50284124 12.70931913 17.0625 18.5625 C16.41764648 19.6752832 16.41764648 19.6752832 15.75976562 20.81054688 C13.92487202 23.93738377 12.12440539 26.84533994 9.84765625 29.67578125 C7.82959205 32.21436095 6.64598316 34.64843944 5.375 37.625 C4.06544108 40.66951595 2.84577478 43.23133783 1 46 C0.7525 46.94875 0.505 47.8975 0.25 48.875 C-1.39819759 52.99549397 -3.28223497 54.61501866 -7 57 C-11.35595632 57.70006441 -13.36080116 57.34418399 -17.25 55.25 C-21.75431034 51.56465517 -21.75431034 51.56465517 -23 49 C-22.61497939 42.19796929 -20.79969674 36.02426936 -17.26171875 30.2109375 C-15.90353365 27.83095989 -14.7133525 25.38752032 -13.52319336 22.92016602 C-10.87906838 17.45152046 -8.1157918 12.43509999 -4.2890625 7.6875 C-2.47043527 5.30675163 -1.2253407 2.72297932 0 0 Z " fill="#41DE4E" transform="translate(306,224)"/>
<path d="M0 0 C0.33 0 0.66 0 1 0 C1 55.77 1 111.54 1 169 C0.67 169 0.34 169 0 169 C0 113.23 0 57.46 0 0 Z " fill="#FDFDFD" transform="translate(967,322)"/>
<path d="M0 0 C0.33 0 0.66 0 1 0 C1.17358814 14.0220641 0.63488981 27.99358774 0 42 C-0.33 42 -0.66 42 -1 42 C-1.1044444 27.9626728 -1.18400916 13.99667968 0 0 Z " fill="#D6E044" transform="translate(55,298)"/>
<path d="M0 0 C5.50366792 -0.32374517 9.43672206 -0.53286034 14 3 C13.67 3.66 13.34 4.32 13 5 C12.34 4.67 11.68 4.34 11 4 C9.29636178 3.77377919 7.58671299 3.59111527 5.875 3.4375 C4.96492188 3.35371094 4.05484375 3.26992187 3.1171875 3.18359375 C2.41851562 3.12300781 1.71984375 3.06242188 1 3 C0.67 2.01 0.34 1.02 0 0 Z " fill="#828A1B" transform="translate(317,202)"/>
<path d="M0 0 C0.33 0 0.66 0 1 0 C1 9.57 1 19.14 1 29 C0.67 29 0.34 29 0 29 C0 19.43 0 9.86 0 0 Z " fill="#FDFDFD" transform="translate(618,393)"/>
<path d="M0 0 C0.33 0 0.66 0 1 0 C1 8.91 1 17.82 1 27 C0.67 27 0.34 27 0 27 C0 18.09 0 9.18 0 0 Z " fill="#FDFDFD" transform="translate(739,394)"/>
<path d="M0 0 C0.66 0 1.32 0 2 0 C1.25 7.625 1.25 7.625 -1 11 C-1.66 11 -2.32 11 -3 11 C-3.33 11.66 -3.66 12.32 -4 13 C-4 10 -4 10 -2.5625 8.1875 C-0.63599355 5.49039097 -0.3700239 3.25621035 0 0 Z " fill="#758C19" transform="translate(334,213)"/>
<path d="M0 0 C7.26 0 14.52 0 22 0 C22 0.33 22 0.66 22 1 C14.74 1 7.48 1 0 1 C0 0.67 0 0.34 0 0 Z " fill="#D6E044" transform="translate(117,196)"/>
<path d="M0 0 C4.95 0 9.9 0 15 0 C15 0.33 15 0.66 15 1 C10.05 1 5.1 1 0 1 C0 0.67 0 0.34 0 0 Z " fill="#41DF4F" transform="translate(366,156)"/>
<path d="M0 0 C0 0.33 0 0.66 0 1 C-3.3 1.33 -6.6 1.66 -10 2 C-6.00889681 0.0044484 -4.30013434 -0.19546065 0 0 Z " fill="#41DF4F" transform="translate(364,158)"/>
<path d="M0 0 C0.33 0 0.66 0 1 0 C1 3.3 1 6.6 1 10 C0.67 10 0.34 10 0 10 C0 6.7 0 3.4 0 0 Z " fill="#D6433E" transform="translate(40,367)"/>
<path d="M0 0 C0.66 0.33 1.32 0.66 2 1 C0.35 2.32 -1.3 3.64 -3 5 C-1.125 1.125 -1.125 1.125 0 0 Z " fill="#D6433E" transform="translate(46,357)"/>
<path d="M0 0 C0.66 0.33 1.32 0.66 2 1 C0.35 2.32 -1.3 3.64 -3 5 C-1.125 1.125 -1.125 1.125 0 0 Z " fill="#FDFDFD" transform="translate(973,311)"/>
<path d="M0 0 C0.33 0 0.66 0 1 0 C1 2.97 1 5.94 1 9 C0.67 9 0.34 9 0 9 C0 6.03 0 3.06 0 0 Z " fill="#D6E044" transform="translate(56,289)"/>
<path d="M0 0 C0.33 0 0.66 0 1 0 C1 2.64 1 5.28 1 8 C0.67 8 0.34 8 0 8 C0 5.36 0 2.72 0 0 Z " fill="#FDFDFD" transform="translate(794,445)"/>
<path d="M0 0 C0.66 0.33 1.32 0.66 2 1 C0.35 1.66 -1.3 2.32 -3 3 C-2.01 2.01 -1.02 1.02 0 0 Z " fill="#D6433E" transform="translate(52,353)"/>
<path d="M0 0 C0.66 0.33 1.32 0.66 2 1 C1.01 2.485 1.01 2.485 0 4 C-0.66 3.67 -1.32 3.34 -2 3 C-1.34 2.01 -0.68 1.02 0 0 Z " fill="#D6433E" transform="translate(205,184)"/>
<path d="M0 0 C1.98 0 3.96 0 6 0 C6 0.33 6 0.66 6 1 C4.02 1 2.04 1 0 1 C0 0.67 0 0.34 0 0 Z " fill="#D6433E" transform="translate(237,123)"/>
<path d="M0 0 C1.65 0 3.3 0 5 0 C5 0.33 5 0.66 5 1 C3.35 1 1.7 1 0 1 C0 0.67 0 0.34 0 0 Z " fill="#FDFDFD" transform="translate(811,428)"/>
<path d="M0 0 C0.33 0 0.66 0 1 0 C1 1.65 1 3.3 1 5 C0.67 5 0.34 5 0 5 C0 3.35 0 1.7 0 0 Z " fill="#FDFDFD" transform="translate(799,359)"/>
<path d="M0 0 C1.65 0 3.3 0 5 0 C5 0.33 5 0.66 5 1 C3.35 1 1.7 1 0 1 C0 0.67 0 0.34 0 0 Z " fill="#D6433E" transform="translate(224,120)"/>
<path d="M0 0 C0 3 0 3 0 3 Z " fill="#C05535" transform="translate(55,350)"/>
<path d="M0 0 C0 3 0 3 0 3 Z " fill="#D6E044" transform="translate(77,230)"/>
<path d="M0 0 C0.66 0.33 1.32 0.66 2 1 C1.01 1 0.02 1 -1 1 C-0.67 0.67 -0.34 0.34 0 0 Z " fill="#D6E044" transform="translate(102,203)"/>
<path d="M0 0 C0.66 0.33 1.32 0.66 2 1 C1.01 1 0.02 1 -1 1 C-0.67 0.67 -0.34 0.34 0 0 Z " fill="#D6E044" transform="translate(105,201)"/>
<path d="" fill="#D6433E" transform="translate(0,0)"/>
<path d="" fill="#D6E044" transform="translate(0,0)"/>
<path d="M0 0 C0.99 0.495 0.99 0.495 2 1 C1.01 1.495 1.01 1.495 0 2 C0 1.34 0 0.68 0 0 Z " fill="#FDFDFD" transform="translate(813,326)"/>
<path d="" fill="#D6E044" transform="translate(0,0)"/>
<path d="" fill="#D6E044" transform="translate(0,0)"/>
<path d="M0 0 C0.99 0.495 0.99 0.495 2 1 C1.01 1.495 1.01 1.495 0 2 C0 1.34 0 0.68 0 0 Z " fill="#D6433E" transform="translate(196,193)"/>
<path d="" fill="#BD334C" transform="translate(0,0)"/>
<path d="" fill="#FDFDFD" transform="translate(0,0)"/>
<path d="" fill="#FDFDFD" transform="translate(0,0)"/>
<path d="M0 0 C2 1 2 1 2 1 Z " fill="#D6433E" transform="translate(387,384)"/>
<path d="" fill="#D6433E" transform="translate(0,0)"/>
<path d="" fill="#FDFDFD" transform="translate(0,0)"/>
<path d="" fill="#FDFDFD" transform="translate(0,0)"/>
<path d="" fill="#D6E044" transform="translate(0,0)"/>
<path d="" fill="#D6E044" transform="translate(0,0)"/>
<path d="" fill="#D6E044" transform="translate(0,0)"/>
<path d="" fill="#45B532" transform="translate(0,0)"/>
<path d="M0 0 C2 1 2 1 2 1 Z " fill="#D6E044" transform="translate(164,201)"/>
<path d="M0 0 C2 1 2 1 2 1 Z " fill="#D6E044" transform="translate(107,200)"/>
<path d="M0 0 C2 1 2 1 2 1 Z " fill="#D6E044" transform="translate(109,199)"/>
<path d="M0 0 C2 1 2 1 2 1 Z " fill="#D6E044" transform="translate(147,198)"/>
<path d="M0 0 C2 1 2 1 2 1 Z " fill="#D6E044" transform="translate(115,197)"/>
<path d="" fill="#41DF4F" transform="translate(0,0)"/>
<path d="M0 0 C2 1 2 1 2 1 Z " fill="#41DF4F" transform="translate(333,168)"/>
<path d="M0 0 C2 1 2 1 2 1 Z " fill="#41DF4F" transform="translate(338,164)"/>
<path d="M0 0 C2 1 2 1 2 1 Z " fill="#41DF4F" transform="translate(340,163)"/>
<path d="M0 0 C2 1 2 1 2 1 Z " fill="#41DF4F" transform="translate(386,159)"/>
<path d="" fill="#000100" transform="translate(0,0)"/>
<path d="" fill="#D6433E" transform="translate(0,0)"/>
<path d="" fill="#D6433E" transform="translate(0,0)"/>
<path d="" fill="#D6433E" transform="translate(0,0)"/>
<path d="" fill="#FDFDFD" transform="translate(0,0)"/>
<path d="" fill="#FDFDFD" transform="translate(0,0)"/>
<path d="" fill="#D6433E" transform="translate(0,0)"/>
<path d="" fill="#D6433E" transform="translate(0,0)"/>
<path d="" fill="#FDFDFD" transform="translate(0,0)"/>
<path d="" fill="#FDFDFD" transform="translate(0,0)"/>
<path d="" fill="#FDFDFD" transform="translate(0,0)"/>
<path d="" fill="#D6433E" transform="translate(0,0)"/>
<path d="" fill="#D6E044" transform="translate(0,0)"/>
<path d="" fill="#FDFDFD" transform="translate(0,0)"/>
<path d="" fill="#D6E044" transform="translate(0,0)"/>
<path d="" fill="#41DF4F" transform="translate(0,0)"/>
</svg>
