<?xml version="1.0" encoding="UTF-8"?>
<!DOCTYPE svg PUBLIC "-//W3C//DTD SVG 1.1//EN" "http://www.w3.org/Graphics/SVG/1.1/DTD/svg11.dtd">
<svg xmlns="http://www.w3.org/2000/svg" version="1.1" width="1146px" height="300px" style="shape-rendering:geometricPrecision; text-rendering:geometricPrecision; image-rendering:optimizeQuality; fill-rule:evenodd; clip-rule:evenodd" xmlns:xlink="http://www.w3.org/1999/xlink">
<g><path style="opacity:0.2" fill="#220705" d="M 116.5,11.5 C 114.401,12.6118 112.067,13.2785 109.5,13.5C 111.438,11.8372 113.772,11.1706 116.5,11.5 Z"/></g>
<g><path style="opacity:1" fill="#b12323" d="M 116.5,11.5 C 119.187,11.3359 121.854,11.5026 124.5,12C 130.819,14.8121 137.486,16.4788 144.5,17C 145.942,17.3768 146.942,18.2101 147.5,19.5C 151.247,27.2755 148.913,31.9421 140.5,33.5C 139.702,33.9569 139.369,34.6236 139.5,35.5C 138.092,34.9386 136.592,34.6052 135,34.5C 127.881,35.149 121.047,36.4824 114.5,38.5C 112.094,36.7653 109.76,34.7653 107.5,32.5C 106.526,30.2573 106.192,27.924 106.5,25.5C 107.627,24.8783 108.627,24.045 109.5,23C 108.196,22.196 107.529,21.0293 107.5,19.5C 108.178,17.484 108.844,15.484 109.5,13.5C 112.067,13.2785 114.401,12.6118 116.5,11.5 Z"/></g>
<g><path style="opacity:0.047" fill="#0e0202" d="M 109.5,13.5 C 108.844,15.484 108.178,17.484 107.5,19.5C 107.529,21.0293 108.196,22.196 109.5,23C 108.627,24.045 107.627,24.8783 106.5,25.5C 106.729,22.6634 106.896,19.6634 107,16.5C 107.377,15.0577 108.21,14.0577 109.5,13.5 Z"/></g>
<g><path style="opacity:0.024" fill="#200805" d="M 147.5,19.5 C 149.776,19.7565 150.943,21.0898 151,23.5C 151.859,29.975 149.026,33.475 142.5,34C 141.663,35.0113 141.33,36.1779 141.5,37.5C 140.833,36.8333 140.167,36.1667 139.5,35.5C 139.369,34.6236 139.702,33.9569 140.5,33.5C 148.913,31.9421 151.247,27.2755 147.5,19.5 Z"/></g>
<g><path style="opacity:0.361" fill="#1a3c1c" d="M 202.5,34.5 C 206.981,33.3516 211.648,33.1849 216.5,34C 217.056,34.3826 217.389,34.8826 217.5,35.5C 212.562,34.6076 207.562,34.2743 202.5,34.5 Z"/></g>
<g><path style="opacity:0.067" fill="#170503" d="M 106.5,25.5 C 106.192,27.924 106.526,30.2573 107.5,32.5C 109.76,34.7653 112.094,36.7653 114.5,38.5C 113.833,38.8333 113.167,39.1667 112.5,39.5C 110.534,37.4074 108.368,35.4074 106,33.5C 105.199,30.633 105.366,27.9664 106.5,25.5 Z"/></g>
<g><path style="opacity:0.878" fill="#278531" d="M 197.5,35.5 C 195.485,36.9238 193.152,37.5905 190.5,37.5C 192.438,35.8372 194.772,35.1706 197.5,35.5 Z"/></g>
<g><path style="opacity:0.553" fill="#205f25" d="M 189.5,37.5 C 188.514,39.4077 186.848,40.4077 184.5,40.5C 185.659,38.7497 187.326,37.7497 189.5,37.5 Z"/></g>
<g><path style="opacity:0.008" fill="#22110a" d="M 141.5,37.5 C 143.457,39.4914 145.457,41.4914 147.5,43.5C 144.065,42.8084 142.065,40.8084 141.5,37.5 Z"/></g>
<g><path style="opacity:0.09" fill="#130704" d="M 112.5,39.5 C 112.346,41.9699 111.346,43.9699 109.5,45.5C 109.654,43.0301 110.654,41.0301 112.5,39.5 Z"/></g>
<g><path style="opacity:0.925" fill="#28832e" d="M 184.5,40.5 C 183.699,42.9995 182.366,44.9995 180.5,46.5C 180.87,43.733 182.204,41.733 184.5,40.5 Z"/></g>
<g><path style="opacity:0.008" fill="#301713" d="M 147.5,43.5 C 151.609,44.8744 154.943,47.2078 157.5,50.5C 155.089,48.7809 152.423,47.4476 149.5,46.5C 148.807,45.4822 148.141,44.4822 147.5,43.5 Z"/></g>
<g><path style="opacity:0.047" fill="#1f0f0b" d="M 109.5,45.5 C 108.872,48.09 107.705,50.4234 106,52.5C 105.184,53.8228 104.017,54.4894 102.5,54.5C 104.583,51.3492 106.916,48.3492 109.5,45.5 Z"/></g>
<g><path style="opacity:1" fill="#8c1569" d="M 167.5,73.5 C 167.5,73.8333 167.5,74.1667 167.5,74.5C 167.5,74.8333 167.5,75.1667 167.5,75.5C 165.838,78.1202 164.172,80.7868 162.5,83.5C 159.988,85.465 158.655,88.1317 158.5,91.5C 155.334,94.7752 153.668,98.7752 153.5,103.5C 144.874,102.589 136.208,102.255 127.5,102.5C 127.784,100.585 127.451,98.9187 126.5,97.5C 122.805,93.4741 119.138,89.4741 115.5,85.5C 112.191,81.1853 108.857,76.852 105.5,72.5C 110.716,67.334 115.883,62.0007 121,56.5C 122.407,51.9281 124.74,47.9281 128,44.5C 131.573,50.0696 136.407,54.2363 142.5,57C 149.678,64.3613 158.011,69.8613 167.5,73.5 Z"/></g>
<g><path style="opacity:0.043" fill="#24120e" d="M 157.5,50.5 C 160.362,51.2471 162.362,52.9138 163.5,55.5C 161.122,54.3076 159.122,52.641 157.5,50.5 Z"/></g>
<g><path style="opacity:0.498" fill="#174019" d="M 179.5,47.5 C 179.741,49.8984 179.074,51.8984 177.5,53.5C 177.595,51.2143 178.262,49.2143 179.5,47.5 Z"/></g>
<g><path style="opacity:1" fill="#4d8d13" d="M 210.5,132.5 C 217.261,131.332 219.761,127.332 218,120.5C 217.184,119.177 216.017,118.511 214.5,118.5C 211.449,117.168 208.449,117.501 205.5,119.5C 202.482,119.665 199.482,119.498 196.5,119C 194.559,117.097 192.226,116.264 189.5,116.5C 187.967,114.755 185.967,113.755 183.5,113.5C 180.734,112.289 178.068,110.956 175.5,109.5C 173.064,108.129 170.397,107.129 167.5,106.5C 168.275,102.01 169.775,97.6766 172,93.5C 175.306,88.0293 178.806,82.696 182.5,77.5C 182.253,76.2867 181.586,75.62 180.5,75.5C 180.5,75.1667 180.5,74.8333 180.5,74.5C 183.893,72.927 185.226,70.2604 184.5,66.5C 185.473,67.7914 186.473,67.7914 187.5,66.5C 190.334,61.6749 192.334,56.5082 193.5,51C 199.662,48.7364 205.996,48.0697 212.5,49C 216.184,57.2466 220.518,65.08 225.5,72.5C 226.314,74.7662 226.814,77.0995 227,79.5C 228.202,104.278 227.202,128.945 224,153.5C 223.333,154.833 222.667,154.833 222,153.5C 219.22,145.896 215.386,138.896 210.5,132.5 Z"/></g>
<g><path style="opacity:1" fill="#db5a40" d="M 139.5,35.5 C 140.167,36.1667 140.833,36.8333 141.5,37.5C 142.065,40.8084 144.065,42.8084 147.5,43.5C 148.141,44.4822 148.807,45.4822 149.5,46.5C 152.423,47.4476 155.089,48.7809 157.5,50.5C 159.122,52.641 161.122,54.3076 163.5,55.5C 164.911,57.539 166.911,58.539 169.5,58.5C 170.206,60.8764 171.873,62.2097 174.5,62.5C 176.167,62.5 177.833,62.5 179.5,62.5C 181.749,63.0798 183.415,64.4131 184.5,66.5C 185.226,70.2604 183.893,72.927 180.5,74.5C 176.143,74.4135 171.81,74.0802 167.5,73.5C 158.011,69.8613 149.678,64.3613 142.5,57C 136.407,54.2363 131.573,50.0696 128,44.5C 124.74,47.9281 122.407,51.9281 121,56.5C 115.883,62.0007 110.716,67.334 105.5,72.5C 101.64,73.6441 97.6404,74.3107 93.5,74.5C 88.7008,72.2526 87.3675,68.5859 89.5,63.5C 90.7095,63.0679 91.7095,62.4013 92.5,61.5C 97.2181,61.1412 100.551,58.8079 102.5,54.5C 104.017,54.4894 105.184,53.8228 106,52.5C 107.705,50.4234 108.872,48.09 109.5,45.5C 111.346,43.9699 112.346,41.9699 112.5,39.5C 113.167,39.1667 113.833,38.8333 114.5,38.5C 121.047,36.4824 127.881,35.149 135,34.5C 136.592,34.6052 138.092,34.9386 139.5,35.5 Z"/></g>
<g><path style="opacity:0.129" fill="#27130f" d="M 163.5,55.5 C 165.819,55.9925 167.819,56.9925 169.5,58.5C 166.911,58.539 164.911,57.539 163.5,55.5 Z"/></g>
<g><path style="opacity:0.882" fill="#858a2e" d="M 71.5,59.5 C 64.1591,59.3337 56.8258,59.5003 49.5,60C 47.9221,61.0945 46.2554,61.9278 44.5,62.5C 44.8333,61.8333 45.1667,61.1667 45.5,60.5C 49.5344,58.0358 54.0344,57.0358 59,57.5C 63.4422,57.3259 67.6089,57.9926 71.5,59.5 Z"/></g>
<g><path style="opacity:0.569" fill="#4d521a" d="M 73.5,59.5 C 76.4951,59.2938 79.1617,59.9605 81.5,61.5C 78.5049,61.7062 75.8383,61.0395 73.5,59.5 Z"/></g>
<g><path style="opacity:0.922" fill="#652b20" d="M 102.5,54.5 C 100.551,58.8079 97.2181,61.1412 92.5,61.5C 95.9495,59.3118 99.2828,56.9785 102.5,54.5 Z"/></g>
<g><path style="opacity:0.999" fill="#60a040" d="M 177.5,54.5 C 177.643,56.2624 177.309,57.9291 176.5,59.5C 177.993,60.1411 178.993,61.1411 179.5,62.5C 177.833,62.5 176.167,62.5 174.5,62.5C 174.5,61.5 174.5,60.5 174.5,59.5C 175.313,57.7392 176.313,56.0725 177.5,54.5 Z"/></g>
<g><path style="opacity:0.933" fill="#733d23" d="M 169.5,58.5 C 171.117,59.038 172.784,59.3713 174.5,59.5C 174.5,60.5 174.5,61.5 174.5,62.5C 171.873,62.2097 170.206,60.8764 169.5,58.5 Z"/></g>
<g><path style="opacity:0.424" fill="#393515" d="M 84.5,61.5 C 87.2716,62.3715 89.9382,62.3715 92.5,61.5C 91.7095,62.4013 90.7095,63.0679 89.5,63.5C 87.597,63.2041 85.9303,62.5375 84.5,61.5 Z"/></g>
<g><path style="opacity:0.086" fill="#0d1a0b" d="M 217.5,35.5 C 221.684,35.8444 224.851,37.8444 227,41.5C 230.901,50.9714 235.568,59.9714 241,68.5C 241.49,69.7932 241.657,71.1266 241.5,72.5C 240.687,70.7392 239.687,69.0725 238.5,67.5C 233.996,61.1592 230.496,54.1592 228,46.5C 225.916,43.9975 224.083,41.3308 222.5,38.5C 220.855,37.3037 219.189,36.3037 217.5,35.5 Z"/></g>
<g><path style="opacity:0.259" fill="#292b10" d="M 45.5,60.5 C 45.1667,61.1667 44.8333,61.8333 44.5,62.5C 41.8682,64.1134 39.2016,65.78 36.5,67.5C 34.4956,71.1664 31.8289,74.1664 28.5,76.5C 31.7729,68.6846 37.4395,63.3512 45.5,60.5 Z"/></g>
<g><path style="opacity:1" fill="#40dd4d" d="M 202.5,34.5 C 207.562,34.2743 212.562,34.6076 217.5,35.5C 219.189,36.3037 220.855,37.3037 222.5,38.5C 224.083,41.3308 225.916,43.9975 228,46.5C 230.496,54.1592 233.996,61.1592 238.5,67.5C 240.359,90.4406 241.026,113.441 240.5,136.5C 239.631,138.717 239.298,141.05 239.5,143.5C 238.286,150.307 237.453,157.307 237,164.5C 236.34,166.324 235.173,167.657 233.5,168.5C 232.833,168.5 232.5,168.167 232.5,167.5C 232.389,166.883 232.056,166.383 231.5,166C 228.833,165.333 226.167,165.333 223.5,166C 221.859,167.129 220.859,168.629 220.5,170.5C 220.5,171.167 220.167,171.5 219.5,171.5C 218.609,170.89 217.609,170.557 216.5,170.5C 213.737,164.141 210.071,158.475 205.5,153.5C 205.727,151.067 204.727,149.401 202.5,148.5C 202.443,147.391 202.11,146.391 201.5,145.5C 200.126,143.142 198.793,140.808 197.5,138.5C 197.5,136.167 197.5,133.833 197.5,131.5C 200.208,129.647 203.208,128.647 206.5,128.5C 208.833,128.833 210.167,130.167 210.5,132.5C 215.386,138.896 219.22,145.896 222,153.5C 222.667,154.833 223.333,154.833 224,153.5C 227.202,128.945 228.202,104.278 227,79.5C 226.814,77.0995 226.314,74.7662 225.5,72.5C 220.518,65.08 216.184,57.2466 212.5,49C 205.996,48.0697 199.662,48.7364 193.5,51C 192.334,56.5082 190.334,61.6749 187.5,66.5C 186.473,67.7914 185.473,67.7914 184.5,66.5C 183.415,64.4131 181.749,63.0798 179.5,62.5C 178.993,61.1411 177.993,60.1411 176.5,59.5C 177.309,57.9291 177.643,56.2624 177.5,54.5C 177.5,54.1667 177.5,53.8333 177.5,53.5C 179.074,51.8984 179.741,49.8984 179.5,47.5C 179.5,46.8333 179.833,46.5 180.5,46.5C 182.366,44.9995 183.699,42.9995 184.5,40.5C 186.848,40.4077 188.514,39.4077 189.5,37.5C 189.833,37.5 190.167,37.5 190.5,37.5C 193.152,37.5905 195.485,36.9238 197.5,35.5C 199.117,34.962 200.784,34.6287 202.5,34.5 Z"/></g>
<g><path style="opacity:1" fill="#808c13" d="M 113.5,103.5 C 109.958,103.187 106.625,103.521 103.5,104.5C 98.4889,104.334 93.4889,104.501 88.5,105C 80.351,107.787 72.0177,110.12 63.5,112C 59.2966,114.782 54.6299,116.116 49.5,116C 46.9586,117.848 45.9586,120.348 46.5,123.5C 41.2517,121.373 38.0851,123.04 37,128.5C 33.9534,131.545 31.2867,134.878 29,138.5C 28.3333,132.5 28.3333,126.5 29,120.5C 31.3655,114.398 32.6989,108.065 33,101.5C 36.9922,96.4928 39.6588,90.8261 41,84.5C 44.0269,79.8948 47.8602,76.0614 52.5,73C 65.4465,72.3096 78.1131,73.9762 90.5,78C 98.4308,86.4221 106.097,94.9221 113.5,103.5 Z"/></g>
<g><path style="opacity:1" fill="#ac8544" d="M 167.5,74.5 C 167.5,74.1667 167.5,73.8333 167.5,73.5C 171.81,74.0802 176.143,74.4135 180.5,74.5C 180.5,74.8333 180.5,75.1667 180.5,75.5C 178.924,76.075 177.258,76.4084 175.5,76.5C 172.664,76.2937 169.998,75.627 167.5,74.5 Z"/></g>
<g><path style="opacity:0.067" fill="#181707" d="M 28.5,76.5 C 28.2451,78.9674 27.2451,80.9674 25.5,82.5C 25.7549,80.0326 26.7549,78.0326 28.5,76.5 Z"/></g>
<g><path style="opacity:1" fill="#d4ba4f" d="M 105.5,72.5 C 108.857,76.852 112.191,81.1853 115.5,85.5C 113.301,83.8977 111.301,82.0643 109.5,80C 108.552,79.5172 107.552,79.3505 106.5,79.5C 106.822,77.2776 106.155,75.4443 104.5,74C 102.067,74.3607 99.5666,74.8607 97,75.5C 95.6153,75.4857 94.4486,75.1524 93.5,74.5C 97.6404,74.3107 101.64,73.6441 105.5,72.5 Z"/></g>
<g><path style="opacity:0.019" fill="#010501" d="M 241.5,72.5 C 242.309,74.2922 242.809,76.2922 243,78.5C 243.829,98.0044 243.662,117.338 242.5,136.5C 242.83,117.326 242.497,98.326 241.5,79.5C 241.5,77.1667 241.5,74.8333 241.5,72.5 Z"/></g>
<g><path style="opacity:0.999" fill="#141414" d="M 751.5,87.5 C 755.66,89.6732 759.16,92.6732 762,96.5C 762.167,98.1667 762.333,99.8333 762.5,101.5C 762.102,106.858 760.602,111.858 758,116.5C 755.854,119.126 754.521,122.126 754,125.5C 749.86,130.211 744.694,131.711 738.5,130C 723.803,121.609 708.136,119.276 691.5,123C 687.517,127.373 687.517,131.706 691.5,136C 696.476,137.238 700.976,139.405 705,142.5C 708.2,143.207 711.367,144.04 714.5,145C 730.222,150.362 743.722,159.196 755,171.5C 772.223,203.413 766.057,229.58 736.5,250C 712.311,260.202 687.645,261.202 662.5,253C 654.792,249.731 647.625,245.564 641,240.5C 639.249,237.584 638.083,234.418 637.5,231C 638.703,227.149 639.87,223.315 641,219.5C 643.333,215.5 645.667,211.5 648,207.5C 651.509,202.162 656.342,200.328 662.5,202C 668.632,206.237 674.965,210.237 681.5,214C 691.405,216.89 701.405,217.223 711.5,215C 713.137,212.69 715.304,211.19 718,210.5C 720.329,205.637 719.829,201.137 716.5,197C 704.406,189.121 691.406,183.121 677.5,179C 662.952,172.284 652.285,161.784 645.5,147.5C 637.09,112.837 650.09,90.337 684.5,80C 701.219,76.7979 717.886,77.1312 734.5,81C 740.607,82.3086 746.274,84.4753 751.5,87.5 Z"/></g>
<g><path style="opacity:1" fill="#679362" d="M 167.5,75.5 C 167.299,79.1302 165.632,81.7969 162.5,83.5C 164.172,80.7868 165.838,78.1202 167.5,75.5 Z"/></g>
<g><path style="opacity:0.239" fill="#0f3212" d="M 241.5,79.5 C 242.497,98.326 242.83,117.326 242.5,136.5C 241.85,138.435 241.517,140.435 241.5,142.5C 240.833,142.833 240.167,143.167 239.5,143.5C 239.298,141.05 239.631,138.717 240.5,136.5C 241.497,117.674 241.83,98.674 241.5,79.5 Z"/></g>
<g><path style="opacity:0.089" fill="#040404" d="M 797.5,80.5 C 829.168,80.3334 860.835,80.5 892.5,81C 898.235,81.7718 901.735,84.9385 903,90.5C 903.667,98.8333 903.667,107.167 903,115.5C 902.332,119.499 900.165,122.332 896.5,124C 875.925,125.477 855.259,125.977 834.5,125.5C 834.5,131.167 834.5,136.833 834.5,142.5C 851.889,142.056 869.223,142.556 886.5,144C 889.728,145.563 891.895,148.063 893,151.5C 893.667,160.833 893.667,170.167 893,179.5C 891.108,183.058 888.275,185.558 884.5,187C 867.837,187.5 851.17,187.667 834.5,187.5C 834.5,195.5 834.5,203.5 834.5,211.5C 854.169,211.333 873.836,211.5 893.5,212C 898,213.833 901.167,217 903,221.5C 903.667,229.833 903.667,238.167 903,246.5C 901.421,252.41 897.588,255.91 891.5,257C 860.167,257.667 828.833,257.667 797.5,257C 791.224,255.058 787.39,250.891 786,244.5C 785.333,193.833 785.333,143.167 786,92.5C 787.348,85.9875 791.181,81.9875 797.5,80.5 Z"/></g>
<g><path style="opacity:0.096" fill="#020202" d="M 497.5,246.5 C 478.151,233.501 465.984,215.501 461,192.5C 455.567,166.297 458.9,141.297 471,117.5C 491.308,86.106 520.141,73.2727 557.5,79C 593.286,86.4497 615.786,107.95 625,143.5C 633.7,182.716 623.534,215.882 594.5,243C 568.166,261.409 539.832,265.076 509.5,254C 504.93,252.226 500.93,249.726 497.5,246.5 Z M 538.5,122.5 C 553.603,121.966 564.77,128.3 572,141.5C 580.323,159.648 580.657,177.981 573,196.5C 565.088,210.206 553.254,216.039 537.5,214C 524.966,211.135 516.466,203.635 512,191.5C 505.262,173.381 506.262,155.715 515,138.5C 520.514,129.512 528.347,124.178 538.5,122.5 Z"/></g>
<g><path style="opacity:0.999" fill="#141414" d="M 497.5,246.5 C 489.494,239.659 482.328,231.993 476,223.5C 474.87,219.69 472.87,216.357 470,213.5C 468.093,207.546 466.093,201.546 464,195.5C 459.555,173.092 460.722,150.925 467.5,129C 482.757,94.083 509.423,77.7497 547.5,80C 564.281,79.9075 579.281,84.9075 592.5,95C 617.87,117.29 628.704,145.457 625,179.5C 621.019,215.463 602.519,240.629 569.5,255C 544.24,261.955 520.24,259.121 497.5,246.5 Z M 538.5,122.5 C 528.347,124.178 520.514,129.512 515,138.5C 506.262,155.715 505.262,173.381 512,191.5C 516.466,203.635 524.966,211.135 537.5,214C 553.254,216.039 565.088,210.206 573,196.5C 580.657,177.981 580.323,159.648 572,141.5C 564.77,128.3 553.603,121.966 538.5,122.5 Z"/></g>
<g><path style="opacity:0.101" fill="#050505" d="M 966.5,77.5 C 985.166,75.8571 1001.83,80.6904 1016.5,92C 1032.11,108.658 1035.94,127.825 1028,149.5C 1025.79,154.1 1022.95,158.266 1019.5,162C 1037.66,182.104 1041.16,204.604 1030,229.5C 1016.32,250.013 996.985,260.346 972,260.5C 951.953,260.487 934.287,254.154 919,241.5C 916.107,236.686 915.774,231.686 918,226.5C 921.539,219.25 925.706,212.417 930.5,206C 934.894,203.626 939.56,202.959 944.5,204C 949.167,206.667 953.833,209.333 958.5,212C 967.385,215.564 976.052,215.23 984.5,211C 990.087,203.349 989.087,196.682 981.5,191C 977.066,188.855 972.4,187.522 967.5,187C 959.091,186.907 950.757,186.24 942.5,185C 939.865,183.039 938.031,180.539 937,177.5C 936.333,169.167 936.333,160.833 937,152.5C 938.819,147.664 942.319,144.831 947.5,144C 954.833,143.667 962.167,143.333 969.5,143C 977.085,142.062 982.085,138.062 984.5,131C 983.78,126.876 981.446,124.21 977.5,123C 973.5,122.333 969.5,122.333 965.5,123C 958.911,124.961 952.911,127.961 947.5,132C 939.635,134.252 933.468,132.085 929,125.5C 926.077,119.985 923.41,114.318 921,108.5C 919.055,101.676 920.888,96.1756 926.5,92C 938.729,83.8703 952.062,79.037 966.5,77.5 Z"/></g>
<g><path style="opacity:0.999" fill="#141414" d="M 967.5,79.5 C 989.232,77.8015 1007.4,84.8015 1022,100.5C 1028.84,114.369 1030.84,129.036 1028,144.5C 1027.28,146.949 1026.28,149.283 1025,151.5C 1021.09,155.038 1017.92,159.038 1015.5,163.5C 1018.26,163.744 1020.43,165.077 1022,167.5C 1025.12,171.048 1027.79,175.048 1030,179.5C 1034.99,195.237 1034.66,211.237 1029,227.5C 1026.07,229.418 1024.41,232.085 1024,235.5C 1019.5,238.667 1015.67,242.5 1012.5,247C 1006.83,249.667 1001.17,252.333 995.5,255C 973.847,259.738 952.847,257.738 932.5,249C 927.912,246.359 923.746,243.192 920,239.5C 919.077,237.966 918.577,236.299 918.5,234.5C 921.17,223.693 926.17,214.193 933.5,206C 936.406,204.682 939.406,204.348 942.5,205C 947.497,207.498 952.164,210.498 956.5,214C 964.309,216.435 972.309,217.102 980.5,216C 990.543,212.457 993.376,205.623 989,195.5C 984.523,189.914 978.689,186.747 971.5,186C 963.167,185.667 954.833,185.333 946.5,185C 943.121,182.76 940.955,179.594 940,175.5C 939.09,166.756 939.424,158.089 941,149.5C 943.087,148.206 945.254,147.039 947.5,146C 954.833,145.667 962.167,145.333 969.5,145C 976.052,144.06 981.385,141.06 985.5,136C 986.55,132.545 986.717,129.045 986,125.5C 980.265,120.912 973.765,119.412 966.5,121C 958.533,122.485 951.533,125.818 945.5,131C 939.123,132.227 934.29,130.061 931,124.5C 927.931,118.605 925.264,112.605 923,106.5C 922.118,102.469 922.951,98.8021 925.5,95.5C 937.837,85.6595 951.837,80.3261 967.5,79.5 Z"/></g>
<g><path style="opacity:0.999" fill="#141414" d="M 799.5,82.5 C 829.835,82.3334 860.168,82.5 890.5,83C 895.525,82.6897 899.025,84.8564 901,89.5C 901.667,98.5 901.667,107.5 901,116.5C 900.535,117.931 899.701,119.097 898.5,120C 895.595,121.286 892.595,122.286 889.5,123C 870.17,123.5 850.836,123.667 831.5,123.5C 831.187,130.755 831.52,137.921 832.5,145C 850.167,145.333 867.833,145.667 885.5,146C 887.744,146.996 889.577,148.496 891,150.5C 892.576,159.089 892.91,167.756 892,176.5C 890.815,178.377 889.815,180.377 889,182.5C 888.25,183.126 887.416,183.626 886.5,184C 868.235,185.461 849.902,185.961 831.5,185.5C 831.5,194.833 831.5,204.167 831.5,213.5C 851.836,213.333 872.169,213.5 892.5,214C 896.467,214.628 899.301,216.795 901,220.5C 901.667,229.833 901.667,239.167 901,248.5C 899.116,251.384 896.616,253.551 893.5,255C 861.167,255.667 828.833,255.667 796.5,255C 793.269,253.731 790.936,251.565 789.5,248.5C 788.333,195.836 788.167,143.17 789,90.5C 790.5,88.3333 792,86.1667 793.5,84C 795.708,83.8091 797.708,83.3091 799.5,82.5 Z"/></g>
<g><path style="opacity:0.106" fill="#151605" d="M 25.5,82.5 C 25.5979,84.5529 24.9313,86.2196 23.5,87.5C 23.1201,85.302 23.7868,83.6354 25.5,82.5 Z"/></g>
<g><path style="opacity:0.104" fill="#040404" d="M 350.5,78.5 C 411.758,77.4276 444.092,107.428 447.5,168.5C 444.394,227.939 413.06,258.273 353.5,259.5C 341.143,258.999 328.81,258.165 316.5,257C 310.447,255.947 306.613,252.447 305,246.5C 304.333,194.833 304.333,143.167 305,91.5C 305.793,87.4212 307.959,84.2545 311.5,82C 324.597,80.3502 337.597,79.1836 350.5,78.5 Z M 352.5,123.5 C 366.293,122.041 378.126,126.041 388,135.5C 395.263,145.78 398.763,157.28 398.5,170C 398.212,200.455 382.879,214.955 352.5,213.5C 352.5,183.5 352.5,153.5 352.5,123.5 Z"/></g>
<g><path style="opacity:0.999" fill="#141414" d="M 335.5,80.5 C 358.487,78.996 380.82,81.8293 402.5,89C 405.652,92.154 409.319,94.4873 413.5,96C 430.884,109.453 440.718,127.286 443,149.5C 445.8,169.95 444.133,189.95 438,209.5C 424.095,236.815 401.929,252.648 371.5,257C 351.682,258.322 332.015,257.322 312.5,254C 309.837,252.199 308.003,249.699 307,246.5C 306.333,194.5 306.333,142.5 307,90.5C 307.346,88.1523 308.513,86.3189 310.5,85C 318.871,83.0522 327.204,81.5522 335.5,80.5 Z M 352.5,123.5 C 352.5,153.5 352.5,183.5 352.5,213.5C 382.879,214.955 398.212,200.455 398.5,170C 398.763,157.28 395.263,145.78 388,135.5C 378.126,126.041 366.293,122.041 352.5,123.5 Z"/></g>
<g><path style="opacity:0.105" fill="#030303" d="M 751.5,87.5 C 763.094,90.057 766.928,97.057 763,108.5C 761,113.167 759,117.833 757,122.5C 753.601,130.971 747.434,134.138 738.5,132C 728.524,126.508 717.857,123.341 706.5,122.5C 702.053,122.756 697.72,123.589 693.5,125C 689.5,128 689.5,131 693.5,134C 708.335,140.279 723.002,146.946 737.5,154C 761.75,169.068 770.584,190.568 764,218.5C 755.255,241.312 738.755,254.812 714.5,259C 687.974,263.195 663.641,257.862 641.5,243C 635.452,237.644 633.952,231.144 637,223.5C 640.919,217.33 644.586,210.997 648,204.5C 651.743,200.772 656.243,199.272 661.5,200C 668.135,203.652 674.802,207.319 681.5,211C 691.439,214.663 701.439,214.997 711.5,212C 719.41,206.752 719.41,201.419 711.5,196C 699.667,190.278 687.667,184.945 675.5,180C 665.844,175.341 657.677,168.841 651,160.5C 648.063,156.626 646.229,152.293 645.5,147.5C 652.285,161.784 662.952,172.284 677.5,179C 691.406,183.121 704.406,189.121 716.5,197C 719.829,201.137 720.329,205.637 718,210.5C 715.304,211.19 713.137,212.69 711.5,215C 701.405,217.223 691.405,216.89 681.5,214C 674.965,210.237 668.632,206.237 662.5,202C 656.342,200.328 651.509,202.162 648,207.5C 645.667,211.5 643.333,215.5 641,219.5C 639.87,223.315 638.703,227.149 637.5,231C 638.083,234.418 639.249,237.584 641,240.5C 647.625,245.564 654.792,249.731 662.5,253C 687.645,261.202 712.311,260.202 736.5,250C 766.057,229.58 772.223,203.413 755,171.5C 743.722,159.196 730.222,150.362 714.5,145C 711.367,144.04 708.2,143.207 705,142.5C 700.976,139.405 696.476,137.238 691.5,136C 687.517,131.706 687.517,127.373 691.5,123C 708.136,119.276 723.803,121.609 738.5,130C 744.694,131.711 749.86,130.211 754,125.5C 754.521,122.126 755.854,119.126 758,116.5C 760.602,111.858 762.102,106.858 762.5,101.5C 762.333,99.8333 762.167,98.1667 762,96.5C 759.16,92.6732 755.66,89.6732 751.5,87.5 Z"/></g>
<g><path style="opacity:0.031" fill="#141505" d="M 23.5,87.5 C 23.5,88.5 23.5,89.5 23.5,90.5C 22.8333,90.8333 22.1667,91.1667 21.5,91.5C 21.2291,89.6203 21.8958,88.287 23.5,87.5 Z"/></g>
<g><path style="opacity:1" fill="#44dd4e" d="M 167.5,74.5 C 169.998,75.627 172.664,76.2937 175.5,76.5C 177.258,76.4084 178.924,76.075 180.5,75.5C 181.586,75.62 182.253,76.2867 182.5,77.5C 178.806,82.696 175.306,88.0293 172,93.5C 169.775,97.6766 168.275,102.01 167.5,106.5C 165.003,108.871 162.003,109.871 158.5,109.5C 157.167,108.833 156.167,107.833 155.5,106.5C 155.336,103.813 155.503,101.146 156,98.5C 157.413,96.3476 158.246,94.0143 158.5,91.5C 160.202,89.1595 161.535,86.4928 162.5,83.5C 165.632,81.7969 167.299,79.1302 167.5,75.5C 167.5,75.1667 167.5,74.8333 167.5,74.5 Z"/></g>
<g><path style="opacity:1" fill="#64b063" d="M 162.5,83.5 C 161.535,86.4928 160.202,89.1595 158.5,91.5C 158.655,88.1317 159.988,85.465 162.5,83.5 Z"/></g>
<g><path style="opacity:1" fill="#6aaa5e" d="M 158.5,91.5 C 158.246,94.0143 157.413,96.3476 156,98.5C 155.503,101.146 155.336,103.813 155.5,106.5C 154.833,106.167 154.167,105.833 153.5,105.5C 153.5,104.833 153.5,104.167 153.5,103.5C 153.668,98.7752 155.334,94.7752 158.5,91.5 Z"/></g>
<g><path style="opacity:1" fill="#a5ae31" d="M 23.5,90.5 C 22.4377,96.1004 20.771,101.434 18.5,106.5C 18.3677,103.43 18.701,100.43 19.5,97.5C 21.0739,95.8984 21.7406,93.8984 21.5,91.5C 22.1667,91.1667 22.8333,90.8333 23.5,90.5 Z"/></g>
<g><path style="opacity:0.161" fill="#20220b" d="M 21.5,91.5 C 21.7406,93.8984 21.0739,95.8984 19.5,97.5C 19.2594,95.1016 19.9261,93.1016 21.5,91.5 Z"/></g>
<g><path style="opacity:1" fill="#d1db3e" d="M 71.5,59.5 C 72.1667,59.5 72.8333,59.5 73.5,59.5C 75.8383,61.0395 78.5049,61.7062 81.5,61.5C 82.5,61.5 83.5,61.5 84.5,61.5C 85.9303,62.5375 87.597,63.2041 89.5,63.5C 87.3675,68.5859 88.7008,72.2526 93.5,74.5C 94.4486,75.1524 95.6153,75.4857 97,75.5C 99.5666,74.8607 102.067,74.3607 104.5,74C 106.155,75.4443 106.822,77.2776 106.5,79.5C 107.552,79.3505 108.552,79.5172 109.5,80C 111.301,82.0643 113.301,83.8977 115.5,85.5C 119.138,89.4741 122.805,93.4741 126.5,97.5C 127.505,105.33 124.172,108.496 116.5,107C 115.186,106.015 114.186,104.848 113.5,103.5C 106.097,94.9221 98.4308,86.4221 90.5,78C 78.1131,73.9762 65.4465,72.3096 52.5,73C 47.8602,76.0614 44.0269,79.8948 41,84.5C 39.6588,90.8261 36.9922,96.4928 33,101.5C 32.6989,108.065 31.3655,114.398 29,120.5C 28.3333,126.5 28.3333,132.5 29,138.5C 31.2867,134.878 33.9534,131.545 37,128.5C 38.0851,123.04 41.2517,121.373 46.5,123.5C 47.8333,124.5 49.1667,125.5 50.5,126.5C 50.6621,128.527 50.4955,130.527 50,132.5C 48.9055,134.078 48.0722,135.745 47.5,137.5C 47.5,137.833 47.5,138.167 47.5,138.5C 46.5,138.833 45.8333,139.5 45.5,140.5C 40.9622,146.294 36.6289,152.294 32.5,158.5C 32.1667,158.5 31.8333,158.5 31.5,158.5C 30.8333,158.167 30.1667,157.833 29.5,157.5C 26.3895,151.665 21.7228,149.999 15.5,152.5C 14.5054,141.679 14.1721,130.679 14.5,119.5C 15.5415,115.082 16.8748,110.749 18.5,106.5C 20.771,101.434 22.4377,96.1004 23.5,90.5C 23.5,89.5 23.5,88.5 23.5,87.5C 24.9313,86.2196 25.5979,84.5529 25.5,82.5C 27.2451,80.9674 28.2451,78.9674 28.5,76.5C 31.8289,74.1664 34.4956,71.1664 36.5,67.5C 39.2016,65.78 41.8682,64.1134 44.5,62.5C 46.2554,61.9278 47.9221,61.0945 49.5,60C 56.8258,59.5003 64.1591,59.3337 71.5,59.5 Z"/></g>
<g><path style="opacity:0.243" fill="#27290e" d="M 19.5,97.5 C 18.701,100.43 18.3677,103.43 18.5,106.5C 16.8748,110.749 15.5415,115.082 14.5,119.5C 14.7135,113.741 15.5469,108.074 17,102.5C 17.0995,100.347 17.9328,98.6808 19.5,97.5 Z"/></g>
<g><path style="opacity:1" fill="#cf3b4f" d="M 127.5,102.5 C 136.208,102.255 144.874,102.589 153.5,103.5C 153.5,104.167 153.5,104.833 153.5,105.5C 144.517,105.198 135.85,104.198 127.5,102.5 Z"/></g>
<g><path style="opacity:1" fill="#c55b33" d="M 103.5,104.5 C 99.0181,105.326 94.3514,105.826 89.5,106C 88.8333,107.333 87.8333,108.333 86.5,109C 76.7337,110.398 67.4003,113.064 58.5,117C 55.5,117.333 52.5,117.667 49.5,118C 48.4258,118.739 47.7591,119.739 47.5,121C 48.741,122.731 49.741,124.564 50.5,126.5C 49.1667,125.5 47.8333,124.5 46.5,123.5C 45.9586,120.348 46.9586,117.848 49.5,116C 54.6299,116.116 59.2966,114.782 63.5,112C 72.0177,110.12 80.351,107.787 88.5,105C 93.4889,104.501 98.4889,104.334 103.5,104.5 Z"/></g>
<g><path style="opacity:1" fill="#b76137" d="M 167.5,106.5 C 170.397,107.129 173.064,108.129 175.5,109.5C 169.654,110.133 163.987,110.133 158.5,109.5C 162.003,109.871 165.003,108.871 167.5,106.5 Z"/></g>
<g><path style="opacity:1" fill="#8b6c26" d="M 183.5,113.5 C 185.967,113.755 187.967,114.755 189.5,116.5C 187.033,116.245 185.033,115.245 183.5,113.5 Z"/></g>
<g><path style="opacity:1" fill="#e6b2b0" d="M 118.5,117.5 C 110.025,118.725 101.358,119.392 92.5,119.5C 93.9516,118.698 95.6183,118.198 97.5,118C 104.492,117.5 111.492,117.334 118.5,117.5 Z"/></g>
<g><path style="opacity:0.714" fill="#2d9f38" d="M 238.5,67.5 C 239.687,69.0725 240.687,70.7392 241.5,72.5C 241.5,74.8333 241.5,77.1667 241.5,79.5C 241.83,98.674 241.497,117.674 240.5,136.5C 241.026,113.441 240.359,90.4406 238.5,67.5 Z"/></g>
<g><path style="opacity:1" fill="#fdfafb" d="M 118.5,116.5 C 132.249,116.102 145.916,116.935 159.5,119C 165.692,120.76 171.692,123.093 177.5,126C 181.081,127.58 184.414,129.58 187.5,132C 188.793,132.49 190.127,132.657 191.5,132.5C 191.768,134.099 191.434,135.432 190.5,136.5C 189.084,142.318 187.917,148.318 187,154.5C 186.617,155.056 186.117,155.389 185.5,155.5C 183.217,152.044 180.717,148.71 178,145.5C 176.353,139.028 172.853,133.862 167.5,130C 164.338,129.398 161.338,129.898 158.5,131.5C 156.88,134.404 155.547,137.404 154.5,140.5C 152.674,142.147 151.34,144.147 150.5,146.5C 147.764,148.554 145.431,151.054 143.5,154C 141.323,155.202 138.989,155.702 136.5,155.5C 131.922,156.843 130.422,159.843 132,164.5C 134.288,169.311 137.788,170.645 142.5,168.5C 146.775,169.25 150.109,167.917 152.5,164.5C 156.167,162.833 158.833,160.167 160.5,156.5C 161.373,154.114 162.873,152.114 165,150.5C 170.817,156.467 174.817,163.467 177,171.5C 179.642,174.029 182.808,175.029 186.5,174.5C 185.196,188.795 184.363,203.128 184,217.5C 182.03,220.968 179.864,224.301 177.5,227.5C 172.29,232.54 166.623,237.04 160.5,241C 143.74,249.64 126.407,256.806 108.5,262.5C 94.5561,260.69 82.2228,255.357 71.5,246.5C 70.4058,244.641 69.5725,242.641 69,240.5C 67.9887,239.663 66.8221,239.33 65.5,239.5C 64.5003,228.172 63.5003,216.839 62.5,205.5C 62.5,194.5 62.5,183.5 62.5,172.5C 64.099,172.768 65.4324,172.434 66.5,171.5C 68.4835,171.617 70.1502,170.95 71.5,169.5C 76.1777,163.823 81.511,158.823 87.5,154.5C 89.5503,160.676 92.8836,166.009 97.5,170.5C 101.981,171.648 106.648,171.815 111.5,171C 112.056,170.617 112.389,170.117 112.5,169.5C 115.259,165.582 114.925,161.749 111.5,158C 108.518,157.502 105.518,157.335 102.5,157.5C 101.1,149.914 100.267,142.247 100,134.5C 96.1702,129.71 91.6702,129.21 86.5,133C 79.6492,141.68 72.3159,149.846 64.5,157.5C 63.1734,153.217 62.5067,148.551 62.5,143.5C 62.5248,138.421 62.8582,133.421 63.5,128.5C 65.0269,128.573 66.0269,127.906 66.5,126.5C 69.1873,126.664 71.854,126.497 74.5,126C 75.4158,125.722 76.0825,125.222 76.5,124.5C 81.6746,122.242 87.0079,120.575 92.5,119.5C 101.358,119.392 110.025,118.725 118.5,117.5C 118.5,117.167 118.5,116.833 118.5,116.5 Z"/></g>
<g><path style="opacity:1" fill="#6b7e20" d="M 189.5,116.5 C 192.226,116.264 194.559,117.097 196.5,119C 199.482,119.498 202.482,119.665 205.5,119.5C 205.167,120.167 204.833,120.833 204.5,121.5C 198.561,122.351 193.561,120.684 189.5,116.5 Z"/></g>
<g><path style="opacity:1" fill="#b55831" d="M 214.5,118.5 C 211.204,119.424 207.871,120.424 204.5,121.5C 204.833,120.833 205.167,120.167 205.5,119.5C 208.449,117.501 211.449,117.168 214.5,118.5 Z"/></g>
<g><path style="opacity:1" fill="#da4740" d="M 126.5,97.5 C 127.451,98.9187 127.784,100.585 127.5,102.5C 135.85,104.198 144.517,105.198 153.5,105.5C 154.167,105.833 154.833,106.167 155.5,106.5C 156.167,107.833 157.167,108.833 158.5,109.5C 163.987,110.133 169.654,110.133 175.5,109.5C 178.068,110.956 180.734,112.289 183.5,113.5C 185.033,115.245 187.033,116.245 189.5,116.5C 193.561,120.684 198.561,122.351 204.5,121.5C 207.871,120.424 211.204,119.424 214.5,118.5C 216.017,118.511 217.184,119.177 218,120.5C 219.761,127.332 217.261,131.332 210.5,132.5C 210.167,130.167 208.833,128.833 206.5,128.5C 204.712,127.378 202.712,127.211 200.5,128C 198.574,128.422 197.574,129.589 197.5,131.5C 197.5,133.833 197.5,136.167 197.5,138.5C 197.149,141.812 198.482,144.145 201.5,145.5C 202.11,146.391 202.443,147.391 202.5,148.5C 202.737,149.791 202.404,150.791 201.5,151.5C 201.657,150.127 201.49,148.793 201,147.5C 198.881,146.349 197.047,144.849 195.5,143C 195.868,139.622 195.868,136.122 195.5,132.5C 194.167,132.5 192.833,132.5 191.5,132.5C 190.127,132.657 188.793,132.49 187.5,132C 184.414,129.58 181.081,127.58 177.5,126C 171.692,123.093 165.692,120.76 159.5,119C 145.916,116.935 132.249,116.102 118.5,116.5C 127.324,115.67 136.324,115.17 145.5,115C 144.109,113.98 142.609,113.147 141,112.5C 140.691,111.234 140.191,110.067 139.5,109C 139.833,108.667 140.167,108.333 140.5,108C 133.339,108.089 126.172,108.589 119,109.5C 116.182,109.174 114.015,107.841 112.5,105.5C 109.572,104.516 106.572,104.183 103.5,104.5C 106.625,103.521 109.958,103.187 113.5,103.5C 114.186,104.848 115.186,106.015 116.5,107C 124.172,108.496 127.505,105.33 126.5,97.5 Z"/></g>
<g><path style="opacity:0.105" fill="#050505" d="M 533.5,121.5 C 543.619,120.428 553.286,121.928 562.5,126C 567.252,129.414 570.419,133.914 572,139.5C 576.691,143.712 579.191,149.045 579.5,155.5C 582.542,167.496 581.875,179.162 577.5,190.5C 567.42,214.599 550.087,222.099 525.5,213C 520.539,207.553 515.706,202.053 511,196.5C 502.385,177.527 502.385,158.527 511,139.5C 514.536,136.299 517.703,132.799 520.5,129C 524.532,125.762 528.866,123.262 533.5,121.5 Z M 538.5,122.5 C 528.347,124.178 520.514,129.512 515,138.5C 506.262,155.715 505.262,173.381 512,191.5C 516.466,203.635 524.966,211.135 537.5,214C 553.254,216.039 565.088,210.206 573,196.5C 580.657,177.981 580.323,159.648 572,141.5C 564.77,128.3 553.603,121.966 538.5,122.5 Z"/></g>
<g><path style="opacity:0.079" fill="#030303" d="M 352.5,120.5 C 383.638,121.472 399.638,137.639 400.5,169C 400.594,202.401 383.928,217.567 350.5,214.5C 349.853,182.943 350.519,151.61 352.5,120.5 Z M 352.5,123.5 C 352.5,153.5 352.5,183.5 352.5,213.5C 382.879,214.955 398.212,200.455 398.5,170C 398.763,157.28 395.263,145.78 388,135.5C 378.126,126.041 366.293,122.041 352.5,123.5 Z"/></g>
<g><path style="opacity:1" fill="#ebb7ba" d="M 76.5,124.5 C 76.0825,125.222 75.4158,125.722 74.5,126C 71.854,126.497 69.1873,126.664 66.5,126.5C 69.5443,124.989 72.8776,124.322 76.5,124.5 Z"/></g>
<g><path style="opacity:1" fill="#82a74c" d="M 206.5,128.5 C 203.208,128.647 200.208,129.647 197.5,131.5C 197.574,129.589 198.574,128.422 200.5,128C 202.712,127.211 204.712,127.378 206.5,128.5 Z"/></g>
<g><path style="opacity:0.081" fill="#24230f" d="M 14.5,119.5 C 14.1721,130.679 14.5054,141.679 15.5,152.5C 15.5,152.833 15.5,153.167 15.5,153.5C 13.6854,154.63 11.6854,155.296 9.5,155.5C 11.3226,154.507 12.6559,153.007 13.5,151C 12.1279,140.32 12.4612,129.82 14.5,119.5 Z"/></g>
<g><path style="opacity:1" fill="#e9baba" d="M 63.5,128.5 C 62.8582,133.421 62.5248,138.421 62.5,143.5C 62.5067,148.551 63.1734,153.217 64.5,157.5C 63.791,158.404 62.791,158.737 61.5,158.5C 60.859,148.111 61.5257,138.111 63.5,128.5 Z"/></g>
<g><path style="opacity:0.043" fill="#090303" d="M 45.5,140.5 C 46.1667,161.167 46.8333,181.833 47.5,202.5C 47.5,203.833 47.5,205.167 47.5,206.5C 46.7321,205.737 46.2321,204.737 46,203.5C 45.5,183.169 45.3334,162.836 45.5,142.5C 45.5,141.833 45.5,141.167 45.5,140.5 Z"/></g>
<g><path style="opacity:1" fill="#a77442" d="M 197.5,138.5 C 198.793,140.808 200.126,143.142 201.5,145.5C 198.482,144.145 197.149,141.812 197.5,138.5 Z"/></g>
<g><path style="opacity:0.29" fill="#3d1614" d="M 47.5,138.5 C 47.5,159.833 47.5,181.167 47.5,202.5C 46.8333,181.833 46.1667,161.167 45.5,140.5C 45.8333,139.5 46.5,138.833 47.5,138.5 Z"/></g>
<g><path style="opacity:0.106" fill="#333612" d="M 45.5,140.5 C 45.5,141.167 45.5,141.833 45.5,142.5C 42.2345,147.584 38.7345,152.584 35,157.5C 34.3292,158.252 33.4959,158.586 32.5,158.5C 36.6289,152.294 40.9622,146.294 45.5,140.5 Z"/></g>
<g><path style="opacity:1" fill="#b22322" d="M 15.5,153.5 C 20.8277,153.06 25.4944,154.393 29.5,157.5C 30.1667,157.833 30.8333,158.167 31.5,158.5C 31.8142,161.622 32.8142,164.455 34.5,167C 34.3333,168.167 34.1667,169.333 34,170.5C 32.6244,171.705 31.4577,173.038 30.5,174.5C 24.4801,175.839 18.4801,177.172 12.5,178.5C 8.40821,177.013 6.24155,174.013 6,169.5C 5.33333,166.5 5.33333,163.5 6,160.5C 7.64944,159.115 8.8161,157.449 9.5,155.5C 11.6854,155.296 13.6854,154.63 15.5,153.5 Z"/></g>
<g><path style="opacity:1" fill="#bb5427" d="M 29.5,157.5 C 25.4944,154.393 20.8277,153.06 15.5,153.5C 15.5,153.167 15.5,152.833 15.5,152.5C 21.7228,149.999 26.3895,151.665 29.5,157.5 Z"/></g>
<g><path style="opacity:0.969" fill="#226727" d="M 205.5,153.5 C 210.071,158.475 213.737,164.141 216.5,170.5C 214.376,169.969 212.876,168.635 212,166.5C 209.295,162.423 207.128,158.09 205.5,153.5 Z"/></g>
<g><path style="opacity:0.141" fill="#180403" d="M 9.5,155.5 C 8.8161,157.449 7.64944,159.115 6,160.5C 5.33333,163.5 5.33333,166.5 6,169.5C 6.24155,174.013 8.40821,177.013 12.5,178.5C 12.5,178.833 12.5,179.167 12.5,179.5C 9.0125,178.857 6.5125,176.857 5,173.5C 4.33333,168.833 4.33333,164.167 5,159.5C 6.0692,157.593 7.5692,156.259 9.5,155.5 Z"/></g>
<g><path style="opacity:0.737" fill="#9e322f" d="M 47.5,137.5 C 48.238,161.344 48.9046,185.344 49.5,209.5C 48.8333,208.5 48.1667,207.5 47.5,206.5C 47.5,205.167 47.5,203.833 47.5,202.5C 47.5,181.167 47.5,159.833 47.5,138.5C 47.5,138.167 47.5,137.833 47.5,137.5 Z"/></g>
<g><path style="opacity:0.396" fill="#390f0d" d="M 31.5,158.5 C 31.8333,158.5 32.1667,158.5 32.5,158.5C 35.3609,162.702 36.1942,167.369 35,172.5C 33.8904,174.037 32.3904,174.703 30.5,174.5C 31.4577,173.038 32.6244,171.705 34,170.5C 34.1667,169.333 34.3333,168.167 34.5,167C 32.8142,164.455 31.8142,161.622 31.5,158.5 Z"/></g>
<g><path style="opacity:1" fill="#7d863a" d="M 232.5,167.5 C 227.69,165.52 223.69,166.52 220.5,170.5C 220.859,168.629 221.859,167.129 223.5,166C 226.167,165.333 228.833,165.333 231.5,166C 232.056,166.383 232.389,166.883 232.5,167.5 Z"/></g>
<g><path style="opacity:0.023" fill="#120804" d="M 202.5,148.5 C 204.727,149.401 205.727,151.067 205.5,153.5C 204.883,153.389 204.383,153.056 204,152.5C 203.456,164.343 202.622,176.009 201.5,187.5C 201.5,176.833 201.5,166.167 201.5,155.5C 201.5,154.167 201.5,152.833 201.5,151.5C 202.404,150.791 202.737,149.791 202.5,148.5 Z"/></g>
<g><path style="opacity:0.549" fill="#381c11" d="M 216.5,170.5 C 217.609,170.557 218.609,170.89 219.5,171.5C 218.789,173.201 217.455,174.201 215.5,174.5C 215.577,173.25 216.244,172.417 217.5,172C 216.944,171.617 216.611,171.117 216.5,170.5 Z"/></g>
<g><path style="opacity:1" fill="#b12323" d="M 232.5,167.5 C 232.5,168.167 232.833,168.5 233.5,168.5C 236.49,170.99 239.323,173.657 242,176.5C 242.881,181.358 242.381,186.024 240.5,190.5C 237.964,191.037 235.964,192.37 234.5,194.5C 229.5,195.833 224.5,195.833 219.5,194.5C 218.522,192.188 216.855,190.522 214.5,189.5C 214.413,184.463 214.746,179.463 215.5,174.5C 217.455,174.201 218.789,173.201 219.5,171.5C 220.167,171.5 220.5,171.167 220.5,170.5C 223.69,166.52 227.69,165.52 232.5,167.5 Z"/></g>
<g><path style="opacity:0.059" fill="#18150a" d="M 241.5,142.5 C 240.528,149.809 239.694,157.142 239,164.5C 238.365,165.966 237.531,167.3 236.5,168.5C 243.978,173.772 246.145,180.772 243,189.5C 242.329,190.252 241.496,190.586 240.5,190.5C 242.381,186.024 242.881,181.358 242,176.5C 239.323,173.657 236.49,170.99 233.5,168.5C 235.173,167.657 236.34,166.324 237,164.5C 237.453,157.307 238.286,150.307 239.5,143.5C 240.167,143.167 240.833,142.833 241.5,142.5 Z"/></g>
<g><path style="opacity:0.478" fill="#491210" d="M 30.5,174.5 C 27.0573,176.43 23.3906,177.93 19.5,179C 17.1902,179.497 14.8568,179.663 12.5,179.5C 12.5,179.167 12.5,178.833 12.5,178.5C 18.4801,177.172 24.4801,175.839 30.5,174.5 Z"/></g>
<g><path style="opacity:0.875" fill="#5f1616" d="M 215.5,174.5 C 214.746,179.463 214.413,184.463 214.5,189.5C 211.568,184.262 211.901,179.262 215.5,174.5 Z"/></g>
<g><path style="opacity:0.737" fill="#431210" d="M 214.5,189.5 C 216.855,190.522 218.522,192.188 219.5,194.5C 218.761,194.631 218.094,194.464 217.5,194C 216.252,192.6 215.252,191.1 214.5,189.5 Z"/></g>
<g><path style="opacity:0.282" fill="#290c08" d="M 240.5,190.5 C 239.198,192.822 237.198,194.155 234.5,194.5C 235.964,192.37 237.964,191.037 240.5,190.5 Z"/></g>
<g><path style="opacity:0.211" fill="#250d0b" d="M 47.5,206.5 C 48.1667,207.5 48.8333,208.5 49.5,209.5C 49.8333,218.833 50.1667,228.167 50.5,237.5C 48.0602,227.448 47.0602,217.115 47.5,206.5 Z"/></g>
<g><path style="opacity:1" fill="#dd4442" d="M 103.5,104.5 C 106.572,104.183 109.572,104.516 112.5,105.5C 114.015,107.841 116.182,109.174 119,109.5C 126.172,108.589 133.339,108.089 140.5,108C 140.167,108.333 139.833,108.667 139.5,109C 140.191,110.067 140.691,111.234 141,112.5C 142.609,113.147 144.109,113.98 145.5,115C 136.324,115.17 127.324,115.67 118.5,116.5C 118.5,116.833 118.5,117.167 118.5,117.5C 111.492,117.334 104.492,117.5 97.5,118C 95.6183,118.198 93.9516,118.698 92.5,119.5C 87.0079,120.575 81.6746,122.242 76.5,124.5C 72.8776,124.322 69.5443,124.989 66.5,126.5C 66.0269,127.906 65.0269,128.573 63.5,128.5C 61.5257,138.111 60.859,148.111 61.5,158.5C 62.791,158.737 63.791,158.404 64.5,157.5C 72.3159,149.846 79.6492,141.68 86.5,133C 91.6702,129.21 96.1702,129.71 100,134.5C 100.267,142.247 101.1,149.914 102.5,157.5C 105.518,157.335 108.518,157.502 111.5,158C 114.925,161.749 115.259,165.582 112.5,169.5C 107.562,170.392 102.562,170.726 97.5,170.5C 92.8836,166.009 89.5503,160.676 87.5,154.5C 81.511,158.823 76.1777,163.823 71.5,169.5C 70.1502,170.95 68.4835,171.617 66.5,171.5C 64.8333,171.5 63.1667,171.5 61.5,171.5C 60.8338,177.157 60.5005,182.99 60.5,189C 60.5539,200.874 61.2206,212.707 62.5,224.5C 62.3333,228.167 62.1667,231.833 62,235.5C 60.7453,236.211 59.5786,237.044 58.5,238C 60.5767,238.192 62.5767,238.692 64.5,239.5C 65.6405,240.425 65.6405,241.259 64.5,242C 65.5634,243.188 66.8967,243.688 68.5,243.5C 68.5,244.5 68.5,245.5 68.5,246.5C 69.5,246.5 70.5,246.5 71.5,246.5C 82.2228,255.357 94.5561,260.69 108.5,262.5C 126.407,256.806 143.74,249.64 160.5,241C 166.623,237.04 172.29,232.54 177.5,227.5C 179.864,224.301 182.03,220.968 184,217.5C 184.363,203.128 185.196,188.795 186.5,174.5C 182.808,175.029 179.642,174.029 177,171.5C 174.817,163.467 170.817,156.467 165,150.5C 162.873,152.114 161.373,154.114 160.5,156.5C 157.527,158.806 154.86,161.473 152.5,164.5C 150.109,167.917 146.775,169.25 142.5,168.5C 132.983,167.863 130.983,163.53 136.5,155.5C 138.989,155.702 141.323,155.202 143.5,154C 145.431,151.054 147.764,148.554 150.5,146.5C 152.822,145.198 154.155,143.198 154.5,140.5C 155.547,137.404 156.88,134.404 158.5,131.5C 161.338,129.898 164.338,129.398 167.5,130C 172.853,133.862 176.353,139.028 178,145.5C 180.717,148.71 183.217,152.044 185.5,155.5C 185.775,157.842 186.608,157.842 188,155.5C 190.001,149.322 190.834,142.988 190.5,136.5C 191.434,135.432 191.768,134.099 191.5,132.5C 192.833,132.5 194.167,132.5 195.5,132.5C 195.868,136.122 195.868,139.622 195.5,143C 197.047,144.849 198.881,146.349 201,147.5C 201.49,148.793 201.657,150.127 201.5,151.5C 201.5,152.833 201.5,154.167 201.5,155.5C 200.688,176.369 199.521,197.369 198,218.5C 195.334,225.165 192.167,231.499 188.5,237.5C 183.239,240.758 178.572,244.758 174.5,249.5C 169.008,251.427 164.008,254.093 159.5,257.5C 156.911,257.461 154.911,258.461 153.5,260.5C 151.95,261.441 150.284,262.107 148.5,262.5C 146.62,262.229 145.287,262.896 144.5,264.5C 141.248,266.588 137.582,267.921 133.5,268.5C 131.847,268.66 130.514,269.326 129.5,270.5C 127.064,271.871 124.397,272.871 121.5,273.5C 119.62,273.229 118.287,273.896 117.5,275.5C 116.609,276.11 115.609,276.443 114.5,276.5C 110.176,276.073 105.842,275.739 101.5,275.5C 101.167,275.5 100.833,275.5 100.5,275.5C 96.5956,274.508 92.5956,273.508 88.5,272.5C 88.1667,272.5 87.8333,272.5 87.5,272.5C 86.4863,271.326 85.153,270.66 83.5,270.5C 81.5853,270.784 79.9187,270.451 78.5,269.5C 77.7377,267.738 76.4044,266.738 74.5,266.5C 73.5084,266.672 72.8417,266.338 72.5,265.5C 72.5,264.167 71.8333,263.5 70.5,263.5C 69.5084,263.672 68.8417,263.338 68.5,262.5C 67.2878,259.893 65.2878,258.226 62.5,257.5C 62.0432,255.227 60.7099,253.894 58.5,253.5C 57.1667,253.5 56.5,252.833 56.5,251.5C 54.4893,246.719 52.4893,242.052 50.5,237.5C 50.1667,228.167 49.8333,218.833 49.5,209.5C 48.9046,185.344 48.238,161.344 47.5,137.5C 48.0722,135.745 48.9055,134.078 50,132.5C 50.4955,130.527 50.6621,128.527 50.5,126.5C 49.741,124.564 48.741,122.731 47.5,121C 47.7591,119.739 48.4258,118.739 49.5,118C 52.5,117.667 55.5,117.333 58.5,117C 67.4003,113.064 76.7337,110.398 86.5,109C 87.8333,108.333 88.8333,107.333 89.5,106C 94.3514,105.826 99.0181,105.326 103.5,104.5 Z"/></g>
<g><path style="opacity:1" fill="#d262d5" d="M 89.5,218.5 C 88.8536,222.753 90.5203,225.586 94.5,227C 115.497,227.5 136.497,227.667 157.5,227.5C 135.671,228.663 113.671,228.83 91.5,228C 90.3333,227.5 89.5,226.667 89,225.5C 88.2042,222.961 88.3709,220.628 89.5,218.5 Z"/></g>
<g><path style="opacity:1" fill="#d446de" d="M 157.5,227.5 C 136.497,227.667 115.497,227.5 94.5,227C 90.5203,225.586 88.8536,222.753 89.5,218.5C 89.7214,217.265 90.3881,216.265 91.5,215.5C 113.826,214.334 136.159,214.167 158.5,215C 162.213,216.691 163.379,219.525 162,223.5C 160.951,225.384 159.451,226.718 157.5,227.5 Z"/></g>
<g><path style="opacity:1" fill="#626fcd" d="M 103.5,204.5 C 108.833,204.5 114.167,204.5 119.5,204.5C 119.389,205.117 119.056,205.617 118.5,206C 113.225,206.901 108.225,206.401 103.5,204.5 Z"/></g>
<g><path style="opacity:1" fill="#768bd7" d="M 99.5,187.5 C 99.5905,190.152 98.9238,192.485 97.5,194.5C 97.4095,191.848 98.0762,189.515 99.5,187.5 Z"/></g>
<g><path style="opacity:1" fill="#455dde" d="M 119.5,204.5 C 114.167,204.5 108.833,204.5 103.5,204.5C 99.1151,202.751 97.1151,199.418 97.5,194.5C 98.9238,192.485 99.5905,190.152 99.5,187.5C 102.06,182.204 106.394,179.371 112.5,179C 132.205,174.946 137.539,181.779 128.5,199.5C 126.203,202.471 123.203,204.138 119.5,204.5 Z"/></g>
<g><path style="opacity:1" fill="#e7b4b3" d="M 61.5,171.5 C 63.1667,171.5 64.8333,171.5 66.5,171.5C 65.4324,172.434 64.099,172.768 62.5,172.5C 62.5,183.5 62.5,194.5 62.5,205.5C 61.5052,194.346 61.1719,183.012 61.5,171.5 Z"/></g>
<g><path style="opacity:1" fill="#e59392" d="M 112.5,169.5 C 112.389,170.117 112.056,170.617 111.5,171C 106.648,171.815 101.981,171.648 97.5,170.5C 102.562,170.726 107.562,170.392 112.5,169.5 Z"/></g>
<g><path style="opacity:1" fill="#d96969" d="M 136.5,155.5 C 130.983,163.53 132.983,167.863 142.5,168.5C 137.788,170.645 134.288,169.311 132,164.5C 130.422,159.843 131.922,156.843 136.5,155.5 Z"/></g>
<g><path style="opacity:1" fill="#e8b4b3" d="M 160.5,156.5 C 158.833,160.167 156.167,162.833 152.5,164.5C 154.86,161.473 157.527,158.806 160.5,156.5 Z"/></g>
<g><path style="opacity:1" fill="#dc8281" d="M 190.5,136.5 C 190.834,142.988 190.001,149.322 188,155.5C 186.608,157.842 185.775,157.842 185.5,155.5C 186.117,155.389 186.617,155.056 187,154.5C 187.917,148.318 189.084,142.318 190.5,136.5 Z"/></g>
<g><path style="opacity:1" fill="#de8b86" d="M 154.5,140.5 C 154.155,143.198 152.822,145.198 150.5,146.5C 151.34,144.147 152.674,142.147 154.5,140.5 Z"/></g>
<g><path style="opacity:0.008" fill="#2e110f" d="M 201.5,155.5 C 201.5,166.167 201.5,176.833 201.5,187.5C 201.082,199.212 200.249,210.878 199,222.5C 197.025,226.632 194.858,230.632 192.5,234.5C 191.717,236.288 190.384,237.288 188.5,237.5C 192.167,231.499 195.334,225.165 198,218.5C 199.521,197.369 200.688,176.369 201.5,155.5 Z"/></g>
<g><path style="opacity:1" fill="#dc5655" d="M 61.5,171.5 C 61.1719,183.012 61.5052,194.346 62.5,205.5C 63.5003,216.839 64.5003,228.172 65.5,239.5C 66.8221,239.33 67.9887,239.663 69,240.5C 69.5725,242.641 70.4058,244.641 71.5,246.5C 70.5,246.5 69.5,246.5 68.5,246.5C 68.5,245.5 68.5,244.5 68.5,243.5C 66.8967,243.688 65.5634,243.188 64.5,242C 65.6405,241.259 65.6405,240.425 64.5,239.5C 62.5767,238.692 60.5767,238.192 58.5,238C 59.5786,237.044 60.7453,236.211 62,235.5C 62.1667,231.833 62.3333,228.167 62.5,224.5C 61.2206,212.707 60.5539,200.874 60.5,189C 60.5005,182.99 60.8338,177.157 61.5,171.5 Z"/></g>
<g><path style="opacity:0.286" fill="#331311" d="M 50.5,237.5 C 52.4893,242.052 54.4893,246.719 56.5,251.5C 52.7715,247.67 50.7715,243.003 50.5,237.5 Z"/></g>
<g><path style="opacity:0.027" fill="#210e0c" d="M 188.5,237.5 C 185.782,240.724 182.782,243.891 179.5,247C 177.922,248.094 176.255,248.928 174.5,249.5C 178.572,244.758 183.239,240.758 188.5,237.5 Z"/></g>
<g><path style="opacity:0.024" fill="#281110" d="M 174.5,249.5 C 173.426,250.885 172.093,252.051 170.5,253C 167.059,255.054 163.392,256.554 159.5,257.5C 164.008,254.093 169.008,251.427 174.5,249.5 Z"/></g>
<g><path style="opacity:0.184" fill="#290f0c" d="M 58.5,253.5 C 60.7099,253.894 62.0432,255.227 62.5,257.5C 60.2901,257.106 58.9568,255.773 58.5,253.5 Z"/></g>
<g><path style="opacity:0.133" fill="#220e0d" d="M 159.5,257.5 C 157.819,259.008 155.819,260.008 153.5,260.5C 154.911,258.461 156.911,257.461 159.5,257.5 Z"/></g>
<g><path style="opacity:0.114" fill="#250f0d" d="M 62.5,257.5 C 65.2878,258.226 67.2878,259.893 68.5,262.5C 66.1217,261.308 64.1217,259.641 62.5,257.5 Z"/></g>
<g><path style="opacity:0.004" fill="#230d0a" d="M 148.5,262.5 C 147.486,263.674 146.153,264.34 144.5,264.5C 145.287,262.896 146.62,262.229 148.5,262.5 Z"/></g>
<g><path style="opacity:0.231" fill="#321210" d="M 70.5,263.5 C 71.8333,263.5 72.5,264.167 72.5,265.5C 71.1667,265.5 70.5,264.833 70.5,263.5 Z"/></g>
<g><path style="opacity:0.129" fill="#1f0a08" d="M 74.5,266.5 C 76.4044,266.738 77.7377,267.738 78.5,269.5C 76.5956,269.262 75.2623,268.262 74.5,266.5 Z"/></g>
<g><path style="opacity:0.043" fill="#240e0b" d="M 133.5,268.5 C 132.713,270.104 131.38,270.771 129.5,270.5C 130.514,269.326 131.847,268.66 133.5,268.5 Z"/></g>
<g><path style="opacity:0.161" fill="#321211" d="M 83.5,270.5 C 85.153,270.66 86.4863,271.326 87.5,272.5C 85.6203,272.771 84.287,272.104 83.5,270.5 Z"/></g>
<g><path style="opacity:0.957" fill="#581c1c" d="M 88.5,272.5 C 92.5956,273.508 96.5956,274.508 100.5,275.5C 95.9681,276.114 91.9681,275.114 88.5,272.5 Z"/></g>
<g><path style="opacity:0.047" fill="#371412" d="M 121.5,273.5 C 120.486,274.674 119.153,275.34 117.5,275.5C 118.287,273.896 119.62,273.229 121.5,273.5 Z"/></g>
<g><path style="opacity:0.297" fill="#461818" d="M 101.5,275.5 C 105.842,275.739 110.176,276.073 114.5,276.5C 110.106,277.59 105.773,277.256 101.5,275.5 Z"/></g>
</svg>
