<?xml version="1.0" encoding="UTF-8"?>
<!DOCTYPE svg PUBLIC "-//W3C//DTD SVG 1.1//EN" "http://www.w3.org/Graphics/SVG/1.1/DTD/svg11.dtd">
<svg xmlns="http://www.w3.org/2000/svg" version="1.1" width="1300px" height="300px" style="shape-rendering:geometricPrecision; text-rendering:geometricPrecision; image-rendering:optimizeQuality; fill-rule:evenodd; clip-rule:evenodd" xmlns:xlink="http://www.w3.org/1999/xlink">
<g><path style="opacity:0.978" fill="#b62323" d="M 295.5,35.5 C 293.548,35.0051 291.548,34.6718 289.5,34.5C 282.528,35.5675 275.528,36.4008 268.5,37C 267.956,37.7172 267.289,38.2172 266.5,38.5C 259.268,35.3168 257.601,30.1501 261.5,23C 259.481,18.1234 260.814,14.4567 265.5,12C 274.043,10.5986 282.043,11.9319 289.5,16C 294.68,15.7513 299.347,17.0847 303.5,20C 305.886,23.3843 306.053,26.8843 304,30.5C 301.303,32.5763 298.47,34.2429 295.5,35.5 Z"/></g>
<g><path style="opacity:1" fill="#8c1569" d="M 321.5,74.5 C 319.642,78.5387 317.142,82.2053 314,85.5C 313.495,87.5183 312.995,89.5183 312.5,91.5C 309.334,94.7752 307.668,98.7752 307.5,103.5C 298.874,102.589 290.208,102.255 281.5,102.5C 281.784,100.585 281.451,98.9187 280.5,97.5C 273.262,89.3518 266.262,81.0185 259.5,72.5C 264.716,67.334 269.883,62.0007 275,56.5C 276.407,51.9281 278.74,47.9281 282,44.5C 284.156,48.1871 286.989,51.3537 290.5,54C 300.738,61.0891 311.072,67.9224 321.5,74.5 Z"/></g>
<g><path style="opacity:1" fill="#4d8c13" d="M 364.5,132.5 C 372.351,130.63 374.351,126.13 370.5,119C 365.983,116.642 361.983,117.308 358.5,121C 355.833,121.667 353.167,121.667 350.5,121C 343.081,117.408 336.081,113.574 329.5,109.5C 327.064,108.129 324.397,107.129 321.5,106.5C 322.275,102.01 323.775,97.6766 326,93.5C 329.306,88.0293 332.806,82.696 336.5,77.5C 336.253,76.2867 335.586,75.62 334.5,75.5C 335.458,74.0384 336.624,72.7051 338,71.5C 338.494,69.8659 338.66,68.1992 338.5,66.5C 339.473,67.7914 340.473,67.7914 341.5,66.5C 344.334,61.6749 346.334,56.5082 347.5,51C 353.662,48.7364 359.996,48.0697 366.5,49C 370.184,57.2466 374.518,65.08 379.5,72.5C 380.314,74.7662 380.814,77.0995 381,79.5C 382.202,104.278 381.202,128.945 378,153.5C 377.333,154.833 376.667,154.833 376,153.5C 373.22,145.896 369.386,138.896 364.5,132.5 Z"/></g>
<g><path style="opacity:0.997" fill="#dd5b40" d="M 295.5,35.5 C 295.751,37.1703 296.418,38.6703 297.5,40C 305.227,44.2338 312.227,49.4005 318.5,55.5C 321.64,57.4064 324.973,58.7397 328.5,59.5C 330.364,61.2183 332.697,62.385 335.5,63C 336.71,64.0391 337.71,65.2058 338.5,66.5C 338.66,68.1992 338.494,69.8659 338,71.5C 336.624,72.7051 335.458,74.0384 334.5,75.5C 330.119,75.6282 325.785,75.2949 321.5,74.5C 311.072,67.9224 300.738,61.0891 290.5,54C 286.989,51.3537 284.156,48.1871 282,44.5C 278.74,47.9281 276.407,51.9281 275,56.5C 269.883,62.0007 264.716,67.334 259.5,72.5C 255.034,74.1403 250.367,74.6403 245.5,74C 241.831,70.1393 241.498,65.9727 244.5,61.5C 255.001,56.9056 262.334,49.2389 266.5,38.5C 267.289,38.2172 267.956,37.7172 268.5,37C 275.528,36.4008 282.528,35.5675 289.5,34.5C 291.548,34.6718 293.548,35.0051 295.5,35.5 Z"/></g>
<g><path style="opacity:0.916" fill="#41de4d" d="M 390.5,169.5 C 388.62,169.771 387.287,169.104 386.5,167.5C 386.389,166.883 386.056,166.383 385.5,166C 382.833,165.333 380.167,165.333 377.5,166C 375.393,167.264 374.393,169.097 374.5,171.5C 373.5,171.5 372.5,171.5 371.5,171.5C 370.279,170.972 369.113,170.305 368,169.5C 364.314,164.129 361.148,158.462 358.5,152.5C 356.815,147.611 354.648,142.944 352,138.5C 349.108,130.089 351.941,126.589 360.5,128C 362.751,128.748 364.084,130.248 364.5,132.5C 369.386,138.896 373.22,145.896 376,153.5C 376.667,154.833 377.333,154.833 378,153.5C 381.202,128.945 382.202,104.278 381,79.5C 380.814,77.0995 380.314,74.7662 379.5,72.5C 374.518,65.08 370.184,57.2466 366.5,49C 359.996,48.0697 353.662,48.7364 347.5,51C 346.334,56.5082 344.334,61.6749 341.5,66.5C 340.473,67.7914 339.473,67.7914 338.5,66.5C 337.71,65.2058 336.71,64.0391 335.5,63C 332.697,62.385 330.364,61.2183 328.5,59.5C 330.566,53.3286 333.233,47.3286 336.5,41.5C 342.397,37.0557 349.064,34.5557 356.5,34C 364.493,32.4151 371.827,33.7484 378.5,38C 383.619,48.406 389.119,58.5727 395,68.5C 395.882,71.7895 396.548,75.1228 397,78.5C 398.677,107.373 397.343,136.04 393,164.5C 391.906,166.078 391.072,167.745 390.5,169.5 Z"/></g>
<g><path style="opacity:1" fill="#808c13" d="M 267.5,103.5 C 263.958,103.187 260.625,103.521 257.5,104.5C 252.489,104.334 247.489,104.501 242.5,105C 234.351,107.787 226.018,110.12 217.5,112C 213.297,114.782 208.63,116.116 203.5,116C 200.959,117.848 199.959,120.348 200.5,123.5C 195.252,121.373 192.085,123.04 191,128.5C 187.953,131.545 185.287,134.878 183,138.5C 182.333,132.5 182.333,126.5 183,120.5C 185.366,114.398 186.699,108.065 187,101.5C 190.992,96.4928 193.659,90.8261 195,84.5C 198.027,79.8948 201.86,76.0614 206.5,73C 219.446,72.3096 232.113,73.9762 244.5,78C 252.431,86.4221 260.097,94.9221 267.5,103.5 Z"/></g>
<g><path style="opacity:0.97" fill="#141414" d="M 691.5,77.5 C 735.548,77.0602 764.381,97.7269 778,139.5C 784.738,166.509 782.072,192.509 770,217.5C 744.089,256.917 708.589,269.083 663.5,254C 629.49,235.837 612.49,207.337 612.5,168.5C 611.991,137.811 623.324,112.644 646.5,93C 660.182,83.7181 675.182,78.5515 691.5,77.5 Z M 692.5,122.5 C 707.603,121.966 718.77,128.3 726,141.5C 734.323,159.648 734.657,177.981 727,196.5C 719.088,210.206 707.254,216.039 691.5,214C 678.966,211.135 670.466,203.635 666,191.5C 659.262,173.381 660.262,155.715 669,138.5C 674.514,129.512 682.347,124.178 692.5,122.5 Z"/></g>
<g><path style="opacity:0.966" fill="#141414" d="M 852.5,77.5 C 874.382,76.5759 895.049,81.0759 914.5,91C 918.686,96.3022 919.519,102.136 917,108.5C 914.333,114.5 911.667,120.5 909,126.5C 904.754,131.916 899.254,133.749 892.5,132C 882.524,126.508 871.857,123.341 860.5,122.5C 856.053,122.756 851.72,123.589 847.5,125C 843.5,128 843.5,131 847.5,134C 862.335,140.279 877.002,146.946 891.5,154C 917.753,171.089 925.92,194.589 916,224.5C 908.038,241.07 895.205,251.903 877.5,257C 848.038,264.201 820.705,259.535 795.5,243C 788.957,236.818 787.79,229.652 792,221.5C 795.585,215.998 798.919,210.331 802,204.5C 805.743,200.772 810.243,199.272 815.5,200C 822.135,203.652 828.802,207.319 835.5,211C 845.439,214.663 855.439,214.997 865.5,212C 873.41,206.752 873.41,201.419 865.5,196C 853.667,190.278 841.667,184.945 829.5,180C 799.431,164.153 789.931,139.986 801,107.5C 809.51,93.0022 822.01,83.8355 838.5,80C 843.336,79.3196 848.003,78.4862 852.5,77.5 Z"/></g>
<g><path style="opacity:0.96" fill="#141414" d="M 1120.5,77.5 C 1139.17,75.8571 1155.83,80.6904 1170.5,92C 1186.11,108.658 1189.94,127.825 1182,149.5C 1179.79,154.1 1176.95,158.266 1173.5,162C 1191.66,182.104 1195.16,204.604 1184,229.5C 1170.32,250.013 1150.98,260.346 1126,260.5C 1105.95,260.487 1088.29,254.154 1073,241.5C 1070.11,236.686 1069.77,231.686 1072,226.5C 1075.54,219.25 1079.71,212.417 1084.5,206C 1088.89,203.626 1093.56,202.959 1098.5,204C 1103.17,206.667 1107.83,209.333 1112.5,212C 1121.38,215.564 1130.05,215.23 1138.5,211C 1144.09,203.349 1143.09,196.682 1135.5,191C 1131.07,188.855 1126.4,187.522 1121.5,187C 1113.09,186.907 1104.76,186.24 1096.5,185C 1093.86,183.039 1092.03,180.539 1091,177.5C 1090.33,169.167 1090.33,160.833 1091,152.5C 1092.82,147.664 1096.32,144.831 1101.5,144C 1108.83,143.667 1116.17,143.333 1123.5,143C 1131.09,142.062 1136.09,138.062 1138.5,131C 1137.78,126.876 1135.45,124.21 1131.5,123C 1127.5,122.333 1123.5,122.333 1119.5,123C 1112.91,124.961 1106.91,127.961 1101.5,132C 1093.64,134.252 1087.47,132.085 1083,125.5C 1080.08,119.985 1077.41,114.318 1075,108.5C 1073.05,101.676 1074.89,96.1756 1080.5,92C 1092.73,83.8703 1106.06,79.037 1120.5,77.5 Z"/></g>
<g><path style="opacity:0.966" fill="#141414" d="M 504.5,78.5 C 565.758,77.4276 598.092,107.428 601.5,168.5C 598.394,227.939 567.06,258.273 507.5,259.5C 495.143,258.999 482.81,258.165 470.5,257C 464.447,255.947 460.613,252.447 459,246.5C 458.333,194.833 458.333,143.167 459,91.5C 459.793,87.4212 461.959,84.2545 465.5,82C 478.597,80.3502 491.597,79.1836 504.5,78.5 Z M 506.5,123.5 C 520.293,122.041 532.126,126.041 542,135.5C 549.263,145.78 552.763,157.28 552.5,170C 552.212,200.455 536.879,214.955 506.5,213.5C 506.5,183.5 506.5,153.5 506.5,123.5 Z"/></g>
<g><path style="opacity:0.961" fill="#141414" d="M 951.5,80.5 C 983.168,80.3334 1014.84,80.5 1046.5,81C 1052.23,81.7718 1055.73,84.9385 1057,90.5C 1057.67,98.8333 1057.67,107.167 1057,115.5C 1056.33,119.499 1054.17,122.332 1050.5,124C 1029.93,125.477 1009.26,125.977 988.5,125.5C 988.5,131.167 988.5,136.833 988.5,142.5C 1005.89,142.056 1023.22,142.556 1040.5,144C 1043.73,145.563 1045.9,148.063 1047,151.5C 1047.67,160.833 1047.67,170.167 1047,179.5C 1045.11,183.058 1042.27,185.558 1038.5,187C 1021.84,187.5 1005.17,187.667 988.5,187.5C 988.5,195.5 988.5,203.5 988.5,211.5C 1008.17,211.333 1027.84,211.5 1047.5,212C 1052,213.833 1055.17,217 1057,221.5C 1057.67,229.833 1057.67,238.167 1057,246.5C 1055.42,252.41 1051.59,255.91 1045.5,257C 1014.17,257.667 982.833,257.667 951.5,257C 945.224,255.058 941.39,250.891 940,244.5C 939.333,193.833 939.333,143.167 940,92.5C 941.348,85.9875 945.181,81.9875 951.5,80.5 Z"/></g>
<g><path style="opacity:1" fill="#47db4f" d="M 321.5,74.5 C 325.785,75.2949 330.119,75.6282 334.5,75.5C 335.586,75.62 336.253,76.2867 336.5,77.5C 332.806,82.696 329.306,88.0293 326,93.5C 323.775,97.6766 322.275,102.01 321.5,106.5C 319.003,108.871 316.003,109.871 312.5,109.5C 311.167,108.833 310.167,107.833 309.5,106.5C 309.336,103.813 309.503,101.146 310,98.5C 311.413,96.3476 312.246,94.0143 312.5,91.5C 312.995,89.5183 313.495,87.5183 314,85.5C 317.142,82.2053 319.642,78.5387 321.5,74.5 Z"/></g>
<g><path style="opacity:1" fill="#6aaa5e" d="M 312.5,91.5 C 312.246,94.0143 311.413,96.3476 310,98.5C 309.503,101.146 309.336,103.813 309.5,106.5C 308.094,106.027 307.427,105.027 307.5,103.5C 307.668,98.7752 309.334,94.7752 312.5,91.5 Z"/></g>
<g><path style="opacity:0.978" fill="#d4dd3f" d="M 244.5,61.5 C 241.498,65.9727 241.831,70.1393 245.5,74C 250.367,74.6403 255.034,74.1403 259.5,72.5C 266.262,81.0185 273.262,89.3518 280.5,97.5C 281.505,105.33 278.172,108.496 270.5,107C 269.186,106.015 268.186,104.848 267.5,103.5C 260.097,94.9221 252.431,86.4221 244.5,78C 232.113,73.9762 219.446,72.3096 206.5,73C 201.86,76.0614 198.027,79.8948 195,84.5C 193.659,90.8261 190.992,96.4928 187,101.5C 186.699,108.065 185.366,114.398 183,120.5C 182.333,126.5 182.333,132.5 183,138.5C 185.287,134.878 187.953,131.545 191,128.5C 192.085,123.04 195.252,121.373 200.5,123.5C 201.833,124.5 203.167,125.5 204.5,126.5C 204.662,128.527 204.495,130.527 204,132.5C 202.317,135.77 200.817,139.103 199.5,142.5C 196.235,147.584 192.735,152.584 189,157.5C 188.329,158.252 187.496,158.586 186.5,158.5C 183.437,156.949 180.771,154.782 178.5,152C 174.812,151.55 171.146,151.717 167.5,152.5C 165.044,128.452 168.544,105.452 178,83.5C 182.071,74.8347 187.904,67.668 195.5,62C 203.653,57.7113 212.319,56.3779 221.5,58C 228.789,59.1336 235.956,60.6336 243,62.5C 243.383,61.944 243.883,61.6107 244.5,61.5 Z"/></g>
<g><path style="opacity:0.998" fill="#de4442" d="M 280.5,97.5 C 281.451,98.9187 281.784,100.585 281.5,102.5C 290.208,102.255 298.874,102.589 307.5,103.5C 307.427,105.027 308.094,106.027 309.5,106.5C 310.167,107.833 311.167,108.833 312.5,109.5C 317.987,110.133 323.654,110.133 329.5,109.5C 336.081,113.574 343.081,117.408 350.5,121C 353.167,121.667 355.833,121.667 358.5,121C 361.983,117.308 365.983,116.642 370.5,119C 374.351,126.13 372.351,130.63 364.5,132.5C 364.084,130.248 362.751,128.748 360.5,128C 351.941,126.589 349.108,130.089 352,138.5C 354.648,142.944 356.815,147.611 358.5,152.5C 356.822,174.341 355.322,196.341 354,218.5C 352.304,224.224 349.804,229.558 346.5,234.5C 339.949,241.547 332.615,247.714 324.5,253C 311.793,258.689 299.126,264.356 286.5,270C 279.358,272.659 272.191,275.159 265,277.5C 258.87,276.395 252.703,275.562 246.5,275C 230.31,270.138 217.143,260.972 207,247.5C 205.422,244.343 204.422,241.009 204,237.5C 199.873,206.007 198.373,174.34 199.5,142.5C 200.817,139.103 202.317,135.77 204,132.5C 204.495,130.527 204.662,128.527 204.5,126.5C 203.741,124.564 202.741,122.731 201.5,121C 201.759,119.739 202.426,118.739 203.5,118C 210.681,117.882 217.347,116.049 223.5,112.5C 229.152,111.27 234.818,110.103 240.5,109C 241.833,108.333 242.833,107.333 243.5,106C 248.351,105.826 253.018,105.326 257.5,104.5C 260.625,103.521 263.958,103.187 267.5,103.5C 268.186,104.848 269.186,106.015 270.5,107C 278.172,108.496 281.505,105.33 280.5,97.5 Z"/></g>
<g><path style="opacity:1" fill="#c55b33" d="M 257.5,104.5 C 253.018,105.326 248.351,105.826 243.5,106C 242.833,107.333 241.833,108.333 240.5,109C 234.818,110.103 229.152,111.27 223.5,112.5C 217.347,116.049 210.681,117.882 203.5,118C 202.426,118.739 201.759,119.739 201.5,121C 202.741,122.731 203.741,124.564 204.5,126.5C 203.167,125.5 201.833,124.5 200.5,123.5C 199.959,120.348 200.959,117.848 203.5,116C 208.63,116.116 213.297,114.782 217.5,112C 226.018,110.12 234.351,107.787 242.5,105C 247.489,104.501 252.489,104.334 257.5,104.5 Z"/></g>
<g><path style="opacity:1" fill="#b76137" d="M 321.5,106.5 C 324.397,107.129 327.064,108.129 329.5,109.5C 323.654,110.133 317.987,110.133 312.5,109.5C 316.003,109.871 319.003,108.871 321.5,106.5 Z"/></g>
<g><path style="opacity:1" fill="#e6b2b0" d="M 272.5,117.5 C 264.025,118.725 255.358,119.392 246.5,119.5C 247.952,118.698 249.618,118.198 251.5,118C 258.492,117.5 265.492,117.334 272.5,117.5 Z"/></g>
<g><path style="opacity:1" fill="#fdfafa" d="M 344.5,136.5 C 343.084,142.318 341.917,148.318 341,154.5C 340.617,155.056 340.117,155.389 339.5,155.5C 337.217,152.044 334.717,148.71 332,145.5C 330.384,141.325 328.384,137.325 326,133.5C 322.103,129.022 317.603,128.355 312.5,131.5C 308.479,140.663 302.812,148.496 295.5,155C 284.69,155.837 282.69,160.504 289.5,169C 293.869,169.425 298.203,169.092 302.5,168C 308.338,162.495 313.838,156.662 319,150.5C 324.817,156.467 328.817,163.467 331,171.5C 333.642,174.029 336.808,175.029 340.5,174.5C 339.196,188.795 338.363,203.128 338,217.5C 336.03,220.968 333.864,224.301 331.5,227.5C 326.29,232.54 320.623,237.04 314.5,241C 297.74,249.64 280.407,256.806 262.5,262.5C 248.146,260.777 235.646,255.11 225,245.5C 224.163,243.649 223.329,241.816 222.5,240C 221.552,239.517 220.552,239.351 219.5,239.5C 218.5,228.172 217.5,216.839 216.5,205.5C 216.5,194.5 216.5,183.5 216.5,172.5C 218.099,172.768 219.432,172.434 220.5,171.5C 222.484,171.617 224.15,170.95 225.5,169.5C 230.178,163.823 235.511,158.823 241.5,154.5C 243.55,160.676 246.884,166.009 251.5,170.5C 255.981,171.648 260.648,171.815 265.5,171C 266.056,170.617 266.389,170.117 266.5,169.5C 269.259,165.582 268.925,161.749 265.5,158C 262.518,157.502 259.518,157.335 256.5,157.5C 255.1,149.914 254.267,142.247 254,134.5C 250.17,129.71 245.67,129.21 240.5,133C 233.649,141.68 226.316,149.846 218.5,157.5C 217.173,153.217 216.507,148.551 216.5,143.5C 216.525,138.421 216.858,133.421 217.5,128.5C 219.344,127.84 221.01,126.84 222.5,125.5C 230.812,124.502 238.812,122.502 246.5,119.5C 255.358,119.392 264.025,118.725 272.5,117.5C 293.025,114.591 312.691,117.424 331.5,126C 335.081,127.58 338.414,129.58 341.5,132C 342.793,132.49 344.127,132.657 345.5,132.5C 345.768,134.099 345.434,135.432 344.5,136.5 Z"/></g>
<g><path style="opacity:1" fill="#e9baba" d="M 217.5,128.5 C 216.858,133.421 216.525,138.421 216.5,143.5C 216.507,148.551 217.173,153.217 218.5,157.5C 217.791,158.404 216.791,158.737 215.5,158.5C 214.859,148.111 215.526,138.111 217.5,128.5 Z"/></g>
<g><path style="opacity:1" fill="#dc8281" d="M 344.5,136.5 C 345.345,144.106 343.845,151.106 340,157.5C 339.536,156.906 339.369,156.239 339.5,155.5C 340.117,155.389 340.617,155.056 341,154.5C 341.917,148.318 343.084,142.318 344.5,136.5 Z"/></g>
<g><path style="opacity:0.966" fill="#b72623" d="M 186.5,158.5 C 189.984,163.493 190.317,168.66 187.5,174C 179.723,177.355 171.723,179.021 163.5,179C 161.641,177.442 160.141,175.609 159,173.5C 155.96,163.819 158.793,156.819 167.5,152.5C 171.146,151.717 174.812,151.55 178.5,152C 180.771,154.782 183.437,156.949 186.5,158.5 Z"/></g>
<g><path style="opacity:1" fill="#837f38" d="M 386.5,167.5 C 380.662,164.937 376.996,166.603 375.5,172.5C 374.167,172.5 372.833,172.5 371.5,172.5C 371.5,172.167 371.5,171.833 371.5,171.5C 372.5,171.5 373.5,171.5 374.5,171.5C 374.393,169.097 375.393,167.264 377.5,166C 380.167,165.333 382.833,165.333 385.5,166C 386.056,166.383 386.389,166.883 386.5,167.5 Z"/></g>
<g><path style="opacity:1" fill="#e59392" d="M 266.5,169.5 C 266.389,170.117 266.056,170.617 265.5,171C 260.648,171.815 255.981,171.648 251.5,170.5C 256.562,170.726 261.562,170.392 266.5,169.5 Z"/></g>
<g><path style="opacity:0.989" fill="#b62424" d="M 386.5,167.5 C 387.287,169.104 388.62,169.771 390.5,169.5C 398.104,174.146 400.27,180.813 397,189.5C 390.515,195.114 383.015,196.948 374.5,195C 368.677,192.54 366.01,188.04 366.5,181.5C 366.919,177.65 368.585,174.65 371.5,172.5C 372.833,172.5 374.167,172.5 375.5,172.5C 376.996,166.603 380.662,164.937 386.5,167.5 Z"/></g>
<g><path style="opacity:1" fill="#e7b4b3" d="M 220.5,171.5 C 219.432,172.434 218.099,172.768 216.5,172.5C 216.5,183.5 216.5,194.5 216.5,205.5C 215.505,194.346 215.172,183.012 215.5,171.5C 217.167,171.5 218.833,171.5 220.5,171.5 Z"/></g>
<g><path style="opacity:1" fill="#465edd" d="M 266.5,178.5 C 285.42,174.408 291.086,181.075 283.5,198.5C 276.376,206.448 267.709,208.614 257.5,205C 252.15,201.629 250.317,196.796 252,190.5C 254.307,183.353 259.141,179.353 266.5,178.5 Z"/></g>
<g><path style="opacity:1" fill="#d446de" d="M 311.5,227.5 C 290.497,227.667 269.497,227.5 248.5,227C 244.52,225.586 242.854,222.753 243.5,218.5C 243.721,217.265 244.388,216.265 245.5,215.5C 267.826,214.334 290.159,214.167 312.5,215C 316.213,216.691 317.379,219.525 316,223.5C 314.951,225.384 313.451,226.718 311.5,227.5 Z"/></g>
<g><path style="opacity:1" fill="#d262d5" d="M 243.5,218.5 C 242.854,222.753 244.52,225.586 248.5,227C 269.497,227.5 290.497,227.667 311.5,227.5C 289.671,228.663 267.671,228.83 245.5,228C 244.333,227.5 243.5,226.667 243,225.5C 242.204,222.961 242.371,220.628 243.5,218.5 Z"/></g>
</svg>
